<ttFont>
    <TTGlyph name="A" xMin="-41" yMin="-1" xMax="761" yMax="724">
      <contour>
        <pt x="752" y="10" on="1"/>
        <pt x="760" y="10" on="1"/>
        <pt x="760" y="0" on="1"/>
        <pt x="381" y="0" on="1"/>
        <pt x="381" y="10" on="1"/>
        <pt x="390" y="10" on="1"/>
        <pt x="412" y="10" on="0"/>
        <pt x="434" y="37" on="0"/>
        <pt x="434" y="60" on="0"/>
        <pt x="429" y="73" on="1"/>
        <pt x="390" y="166" on="1"/>
        <pt x="176" y="166" on="1"/>
        <pt x="136" y="73" on="1"/>
        <pt x="131" y="60" on="0"/>
        <pt x="131" y="44" on="0"/>
        <pt x="138" y="25" on="0"/>
        <pt x="161" y="10" on="0"/>
        <pt x="174" y="10" on="1"/>
        <pt x="183" y="10" on="1"/>
        <pt x="183" y="0" on="1"/>
        <pt x="-40" y="0" on="1"/>
        <pt x="-40" y="10" on="1"/>
        <pt x="-31" y="10" on="1"/>
        <pt x="-8" y="10" on="0"/>
        <pt x="37" y="37" on="0"/>
        <pt x="52" y="64" on="1"/>
        <pt x="285" y="575" on="1"/>
        <pt x="338" y="687" on="0"/>
        <pt x="342" y="724" on="1"/>
        <pt x="351" y="724" on="1"/>
        <pt x="668" y="65" on="1"/>
        <pt x="700" y="10" on="0"/>
      </contour>
      <contour>
        <pt x="198" y="216" on="1"/>
        <pt x="369" y="216" on="1"/>
        <pt x="285" y="416" on="1"/>
      </contour>
    </TTGlyph>
    <TTGlyph name="AE" xMin="-33" yMin="0" xMax="1002" yMax="719">
      <contour>
        <pt x="416" y="10" on="1"/>
        <pt x="436" y="10" on="0"/>
        <pt x="465" y="38" on="0"/>
        <pt x="466" y="58" on="1"/>
        <pt x="466" y="317" on="1"/>
        <pt x="309" y="317" on="1"/>
        <pt x="158" y="73" on="1"/>
        <pt x="141" y="44" on="0"/>
        <pt x="158" y="26" on="1"/>
        <pt x="174" y="10" on="0"/>
        <pt x="196" y="10" on="1"/>
        <pt x="205" y="10" on="1"/>
        <pt x="205" y="0" on="1"/>
        <pt x="-33" y="0" on="1"/>
        <pt x="-33" y="10" on="1"/>
        <pt x="-24" y="10" on="1"/>
        <pt x="19" y="10" on="0"/>
        <pt x="62" y="71" on="1"/>
        <pt x="453" y="641" on="1"/>
        <pt x="461" y="654" on="0"/>
        <pt x="461" y="662" on="1"/>
        <pt x="461" y="690" on="0"/>
        <pt x="432" y="690" on="1"/>
        <pt x="427" y="690" on="1"/>
        <pt x="427" y="700" on="1"/>
        <pt x="821" y="700" on="1"/>
        <pt x="865" y="700" on="0"/>
        <pt x="931" y="714" on="0"/>
        <pt x="940" y="718" on="1"/>
        <pt x="940" y="512" on="1"/>
        <pt x="930" y="512" on="1"/>
        <pt x="930" y="520" on="1"/>
        <pt x="931" y="600" on="0"/>
        <pt x="873" y="632" on="1"/>
        <pt x="845" y="648" on="0"/>
        <pt x="805" y="649" on="1"/>
        <pt x="671" y="649" on="1"/>
        <pt x="671" y="367" on="1"/>
        <pt x="773" y="367" on="1"/>
        <pt x="819" y="369" on="0"/>
        <pt x="878" y="430" on="0"/>
        <pt x="878" y="476" on="1"/>
        <pt x="878" y="481" on="1"/>
        <pt x="888" y="481" on="1"/>
        <pt x="888" y="203" on="1"/>
        <pt x="878" y="203" on="1"/>
        <pt x="878" y="208" on="1"/>
        <pt x="878" y="254" on="0"/>
        <pt x="820" y="315" on="0"/>
        <pt x="775" y="317" on="1"/>
        <pt x="671" y="317" on="1"/>
        <pt x="671" y="51" on="1"/>
        <pt x="784" y="51" on="1"/>
        <pt x="857" y="51" on="0"/>
        <pt x="968" y="147" on="0"/>
        <pt x="991" y="232" on="1"/>
        <pt x="1001" y="232" on="1"/>
        <pt x="963" y="0" on="1"/>
        <pt x="406" y="0" on="1"/>
        <pt x="407" y="10" on="1"/>
      </contour>
      <contour>
        <pt x="466" y="367" on="1"/>
        <pt x="466" y="569" on="1"/>
        <pt x="340" y="367" on="1"/>
      </contour>
    </TTGlyph>
    <TTGlyph name="Aacute" xMin="-41" yMin="-1" xMax="761" yMax="954">
      <contour>
        <pt x="332" y="761" on="1"/>
        <pt x="325" y="768" on="1"/>
        <pt x="344" y="812" on="0"/>
        <pt x="436" y="917" on="0"/>
        <pt x="480" y="954" on="1"/>
        <pt x="544" y="927" on="0"/>
        <pt x="565" y="854" on="1"/>
        <pt x="515" y="821" on="0"/>
        <pt x="385" y="767" on="0"/>
      </contour>
      <contour>
        <pt x="752" y="10" on="1"/>
        <pt x="760" y="10" on="1"/>
        <pt x="760" y="0" on="1"/>
        <pt x="381" y="0" on="1"/>
        <pt x="381" y="10" on="1"/>
        <pt x="390" y="10" on="1"/>
        <pt x="412" y="10" on="0"/>
        <pt x="434" y="37" on="0"/>
        <pt x="434" y="60" on="0"/>
        <pt x="429" y="73" on="1"/>
        <pt x="390" y="166" on="1"/>
        <pt x="176" y="166" on="1"/>
        <pt x="136" y="73" on="1"/>
        <pt x="131" y="60" on="0"/>
        <pt x="131" y="44" on="0"/>
        <pt x="138" y="25" on="0"/>
        <pt x="161" y="10" on="0"/>
        <pt x="174" y="10" on="1"/>
        <pt x="183" y="10" on="1"/>
        <pt x="183" y="0" on="1"/>
        <pt x="-40" y="0" on="1"/>
        <pt x="-40" y="10" on="1"/>
        <pt x="-31" y="10" on="1"/>
        <pt x="-8" y="10" on="0"/>
        <pt x="37" y="37" on="0"/>
        <pt x="52" y="64" on="1"/>
        <pt x="285" y="575" on="1"/>
        <pt x="338" y="687" on="0"/>
        <pt x="342" y="724" on="1"/>
        <pt x="351" y="724" on="1"/>
        <pt x="668" y="65" on="1"/>
        <pt x="700" y="10" on="0"/>
      </contour>
      <contour>
        <pt x="198" y="216" on="1"/>
        <pt x="369" y="216" on="1"/>
        <pt x="285" y="416" on="1"/>
      </contour>
    </TTGlyph>
    <TTGlyph name="Abreve" xMin="-41" yMin="-1" xMax="761" yMax="928">
      <contour>
        <pt x="492" y="897" on="1"/>
        <pt x="492" y="851" on="0"/>
        <pt x="459" y="814" on="1"/>
        <pt x="416" y="764" on="0"/>
        <pt x="281" y="764" on="0"/>
        <pt x="238" y="814" on="1"/>
        <pt x="206" y="852" on="0"/>
        <pt x="206" y="897" on="1"/>
        <pt x="206" y="912" on="0"/>
        <pt x="209" y="928" on="1"/>
        <pt x="222" y="928" on="1"/>
        <pt x="236" y="895" on="0"/>
        <pt x="283" y="876" on="1"/>
        <pt x="313" y="864" on="0"/>
        <pt x="392" y="864" on="0"/>
        <pt x="464" y="900" on="0"/>
        <pt x="476" y="928" on="1"/>
        <pt x="488" y="928" on="1"/>
        <pt x="492" y="912" on="0"/>
      </contour>
      <contour>
        <pt x="700" y="10" on="0"/>
        <pt x="752" y="10" on="1"/>
        <pt x="760" y="10" on="1"/>
        <pt x="760" y="0" on="1"/>
        <pt x="381" y="0" on="1"/>
        <pt x="381" y="10" on="1"/>
        <pt x="390" y="10" on="1"/>
        <pt x="412" y="10" on="0"/>
        <pt x="434" y="37" on="0"/>
        <pt x="434" y="60" on="0"/>
        <pt x="429" y="73" on="1"/>
        <pt x="390" y="166" on="1"/>
        <pt x="176" y="166" on="1"/>
        <pt x="136" y="73" on="1"/>
        <pt x="131" y="60" on="0"/>
        <pt x="131" y="44" on="0"/>
        <pt x="138" y="25" on="0"/>
        <pt x="161" y="10" on="0"/>
        <pt x="174" y="10" on="1"/>
        <pt x="183" y="10" on="1"/>
        <pt x="183" y="0" on="1"/>
        <pt x="-40" y="0" on="1"/>
        <pt x="-40" y="10" on="1"/>
        <pt x="-31" y="10" on="1"/>
        <pt x="-8" y="10" on="0"/>
        <pt x="37" y="37" on="0"/>
        <pt x="52" y="64" on="1"/>
        <pt x="285" y="575" on="1"/>
        <pt x="338" y="687" on="0"/>
        <pt x="342" y="724" on="1"/>
        <pt x="351" y="724" on="1"/>
        <pt x="668" y="65" on="1"/>
      </contour>
      <contour>
        <pt x="198" y="216" on="1"/>
        <pt x="369" y="216" on="1"/>
        <pt x="285" y="416" on="1"/>
      </contour>
    </TTGlyph>
    <TTGlyph name="Acircumflex" xMin="-41" yMin="-1" xMax="761" yMax="932">
      <contour>
        <pt x="342" y="932" on="1"/>
        <pt x="353" y="932" on="1"/>
        <pt x="532" y="756" on="1"/>
        <pt x="525" y="748" on="1"/>
        <pt x="347" y="813" on="1"/>
        <pt x="180" y="748" on="1"/>
        <pt x="173" y="756" on="1"/>
      </contour>
      <contour>
        <pt x="752" y="10" on="1"/>
        <pt x="760" y="10" on="1"/>
        <pt x="760" y="0" on="1"/>
        <pt x="381" y="0" on="1"/>
        <pt x="381" y="10" on="1"/>
        <pt x="390" y="10" on="1"/>
        <pt x="412" y="10" on="0"/>
        <pt x="434" y="37" on="0"/>
        <pt x="434" y="60" on="0"/>
        <pt x="429" y="73" on="1"/>
        <pt x="390" y="166" on="1"/>
        <pt x="176" y="166" on="1"/>
        <pt x="136" y="73" on="1"/>
        <pt x="131" y="60" on="0"/>
        <pt x="131" y="44" on="0"/>
        <pt x="138" y="25" on="0"/>
        <pt x="161" y="10" on="0"/>
        <pt x="174" y="10" on="1"/>
        <pt x="183" y="10" on="1"/>
        <pt x="183" y="0" on="1"/>
        <pt x="-40" y="0" on="1"/>
        <pt x="-40" y="10" on="1"/>
        <pt x="-31" y="10" on="1"/>
        <pt x="-8" y="10" on="0"/>
        <pt x="37" y="37" on="0"/>
        <pt x="52" y="64" on="1"/>
        <pt x="285" y="575" on="1"/>
        <pt x="338" y="687" on="0"/>
        <pt x="342" y="724" on="1"/>
        <pt x="351" y="724" on="1"/>
        <pt x="668" y="65" on="1"/>
        <pt x="700" y="10" on="0"/>
      </contour>
      <contour>
        <pt x="198" y="216" on="1"/>
        <pt x="369" y="216" on="1"/>
        <pt x="285" y="416" on="1"/>
      </contour>
    </TTGlyph>
    <TTGlyph name="Adieresis" xMin="-41" yMin="-1" xMax="761" yMax="903">
      <contour>
        <pt x="244" y="755" on="0"/>
        <pt x="183" y="755" on="0"/>
        <pt x="140" y="799" on="0"/>
        <pt x="140" y="860" on="0"/>
        <pt x="183" y="903" on="0"/>
        <pt x="244" y="903" on="0"/>
        <pt x="288" y="860" on="0"/>
        <pt x="288" y="799" on="0"/>
      </contour>
      <contour>
        <pt x="507" y="755" on="0"/>
        <pt x="446" y="755" on="0"/>
        <pt x="403" y="799" on="0"/>
        <pt x="403" y="860" on="0"/>
        <pt x="446" y="903" on="0"/>
        <pt x="507" y="903" on="0"/>
        <pt x="550" y="860" on="0"/>
        <pt x="550" y="799" on="0"/>
      </contour>
      <contour>
        <pt x="752" y="10" on="1"/>
        <pt x="760" y="10" on="1"/>
        <pt x="760" y="0" on="1"/>
        <pt x="381" y="0" on="1"/>
        <pt x="381" y="10" on="1"/>
        <pt x="390" y="10" on="1"/>
        <pt x="412" y="10" on="0"/>
        <pt x="434" y="37" on="0"/>
        <pt x="434" y="60" on="0"/>
        <pt x="429" y="73" on="1"/>
        <pt x="390" y="166" on="1"/>
        <pt x="176" y="166" on="1"/>
        <pt x="136" y="73" on="1"/>
        <pt x="131" y="60" on="0"/>
        <pt x="131" y="44" on="0"/>
        <pt x="138" y="25" on="0"/>
        <pt x="161" y="10" on="0"/>
        <pt x="174" y="10" on="1"/>
        <pt x="183" y="10" on="1"/>
        <pt x="183" y="0" on="1"/>
        <pt x="-40" y="0" on="1"/>
        <pt x="-40" y="10" on="1"/>
        <pt x="-31" y="10" on="1"/>
        <pt x="-8" y="10" on="0"/>
        <pt x="37" y="37" on="0"/>
        <pt x="52" y="64" on="1"/>
        <pt x="285" y="575" on="1"/>
        <pt x="338" y="687" on="0"/>
        <pt x="342" y="724" on="1"/>
        <pt x="351" y="724" on="1"/>
        <pt x="668" y="65" on="1"/>
        <pt x="700" y="10" on="0"/>
      </contour>
      <contour>
        <pt x="198" y="216" on="1"/>
        <pt x="369" y="216" on="1"/>
        <pt x="285" y="416" on="1"/>
      </contour>
    </TTGlyph>
    <TTGlyph name="Agrave" xMin="-40" yMin="-1" xMax="761" yMax="957">
      <contour>
        <pt x="376" y="771" on="1"/>
        <pt x="369" y="764" on="1"/>
        <pt x="316" y="770" on="0"/>
        <pt x="186" y="824" on="0"/>
        <pt x="136" y="857" on="1"/>
        <pt x="157" y="930" on="0"/>
        <pt x="221" y="957" on="1"/>
        <pt x="264" y="920" on="0"/>
        <pt x="357" y="815" on="0"/>
      </contour>
      <contour>
        <pt x="752" y="10" on="1"/>
        <pt x="760" y="10" on="1"/>
        <pt x="760" y="0" on="1"/>
        <pt x="381" y="0" on="1"/>
        <pt x="381" y="10" on="1"/>
        <pt x="390" y="10" on="1"/>
        <pt x="412" y="10" on="0"/>
        <pt x="434" y="37" on="0"/>
        <pt x="434" y="60" on="0"/>
        <pt x="429" y="73" on="1"/>
        <pt x="390" y="166" on="1"/>
        <pt x="176" y="166" on="1"/>
        <pt x="136" y="73" on="1"/>
        <pt x="131" y="60" on="0"/>
        <pt x="131" y="44" on="0"/>
        <pt x="138" y="25" on="0"/>
        <pt x="161" y="10" on="0"/>
        <pt x="174" y="10" on="1"/>
        <pt x="183" y="10" on="1"/>
        <pt x="183" y="0" on="1"/>
        <pt x="-40" y="0" on="1"/>
        <pt x="-40" y="10" on="1"/>
        <pt x="-31" y="10" on="1"/>
        <pt x="-8" y="10" on="0"/>
        <pt x="37" y="37" on="0"/>
        <pt x="52" y="64" on="1"/>
        <pt x="285" y="575" on="1"/>
        <pt x="338" y="687" on="0"/>
        <pt x="342" y="724" on="1"/>
        <pt x="351" y="724" on="1"/>
        <pt x="668" y="65" on="1"/>
        <pt x="700" y="10" on="0"/>
      </contour>
      <contour>
        <pt x="198" y="216" on="1"/>
        <pt x="369" y="216" on="1"/>
        <pt x="285" y="416" on="1"/>
      </contour>
    </TTGlyph>
    <TTGlyph name="Amacron" xMin="-41" yMin="-1" xMax="761" yMax="881">
      <contour>
        <pt x="207" y="795" on="1"/>
        <pt x="207" y="880" on="1"/>
        <pt x="497" y="880" on="1"/>
        <pt x="497" y="795" on="1"/>
      </contour>
      <contour>
        <pt x="752" y="10" on="1"/>
        <pt x="760" y="10" on="1"/>
        <pt x="760" y="0" on="1"/>
        <pt x="381" y="0" on="1"/>
        <pt x="381" y="10" on="1"/>
        <pt x="390" y="10" on="1"/>
        <pt x="412" y="10" on="0"/>
        <pt x="434" y="37" on="0"/>
        <pt x="434" y="60" on="0"/>
        <pt x="429" y="73" on="1"/>
        <pt x="390" y="166" on="1"/>
        <pt x="176" y="166" on="1"/>
        <pt x="136" y="73" on="1"/>
        <pt x="131" y="60" on="0"/>
        <pt x="131" y="44" on="0"/>
        <pt x="138" y="25" on="0"/>
        <pt x="161" y="10" on="0"/>
        <pt x="174" y="10" on="1"/>
        <pt x="183" y="10" on="1"/>
        <pt x="183" y="0" on="1"/>
        <pt x="-40" y="0" on="1"/>
        <pt x="-40" y="10" on="1"/>
        <pt x="-31" y="10" on="1"/>
        <pt x="-8" y="10" on="0"/>
        <pt x="37" y="37" on="0"/>
        <pt x="52" y="64" on="1"/>
        <pt x="285" y="575" on="1"/>
        <pt x="338" y="687" on="0"/>
        <pt x="342" y="724" on="1"/>
        <pt x="351" y="724" on="1"/>
        <pt x="668" y="65" on="1"/>
        <pt x="700" y="10" on="0"/>
      </contour>
      <contour>
        <pt x="198" y="216" on="1"/>
        <pt x="369" y="216" on="1"/>
        <pt x="285" y="416" on="1"/>
      </contour>
    </TTGlyph>
    <TTGlyph name="Aogonek" xMin="-41" yMin="-208" xMax="761" yMax="714">
      <contour>
        <pt x="759" y="0" on="0"/>
        <pt x="681" y="5" on="0"/>
        <pt x="628" y="8" on="0"/>
        <pt x="609" y="8" on="1"/>
        <pt x="534" y="8" on="0"/>
        <pt x="501" y="0" on="1"/>
        <pt x="437" y="-15" on="0"/>
        <pt x="437" y="-65" on="1"/>
        <pt x="437" y="-116" on="0"/>
        <pt x="477" y="-132" on="1"/>
        <pt x="488" y="-136" on="0"/>
        <pt x="524" y="-136" on="0"/>
        <pt x="549" y="-115" on="1"/>
        <pt x="555" y="-121" on="1"/>
        <pt x="552" y="-184" on="0"/>
        <pt x="495" y="-202" on="1"/>
        <pt x="478" y="-207" on="0"/>
        <pt x="427" y="-207" on="0"/>
        <pt x="395" y="-186" on="1"/>
        <pt x="349" y="-156" on="0"/>
        <pt x="349" y="-105" on="1"/>
        <pt x="349" y="-64" on="0"/>
        <pt x="368" y="-42" on="1"/>
        <pt x="374" y="-36" on="0"/>
        <pt x="378" y="-30" on="0"/>
        <pt x="395" y="-17" on="0"/>
        <pt x="398" y="-15" on="0"/>
        <pt x="420" y="-1" on="0"/>
        <pt x="421" y="0" on="1"/>
        <pt x="439" y="12" on="0"/>
        <pt x="439" y="45" on="0"/>
        <pt x="430" y="69" on="1"/>
        <pt x="388" y="166" on="1"/>
        <pt x="178" y="166" on="1"/>
        <pt x="135" y="71" on="1"/>
        <pt x="124" y="43" on="0"/>
        <pt x="139" y="26" on="1"/>
        <pt x="153" y="10" on="0"/>
        <pt x="174" y="10" on="1"/>
        <pt x="183" y="10" on="1"/>
        <pt x="183" y="0" on="1"/>
        <pt x="-40" y="0" on="1"/>
        <pt x="-40" y="10" on="1"/>
        <pt x="-31" y="10" on="1"/>
        <pt x="-6" y="10" on="0"/>
        <pt x="42" y="41" on="0"/>
        <pt x="57" y="73" on="1"/>
        <pt x="285" y="565" on="1"/>
        <pt x="338" y="677" on="0"/>
        <pt x="342" y="714" on="1"/>
        <pt x="351" y="714" on="1"/>
        <pt x="664" y="73" on="1"/>
        <pt x="674" y="52" on="0"/>
        <pt x="690" y="39" on="1"/>
        <pt x="714" y="19" on="0"/>
        <pt x="760" y="10" on="1"/>
        <pt x="760" y="0" on="1"/>
      </contour>
      <contour>
        <pt x="200" y="216" on="1"/>
        <pt x="367" y="216" on="1"/>
        <pt x="285" y="408" on="1"/>
      </contour>
    </TTGlyph>
    <TTGlyph name="Aring" xMin="-41" yMin="0" xMax="761" yMax="844">
      <contour>
        <pt x="752" y="10" on="1"/>
        <pt x="760" y="10" on="1"/>
        <pt x="760" y="0" on="1"/>
        <pt x="381" y="0" on="1"/>
        <pt x="381" y="10" on="1"/>
        <pt x="390" y="10" on="1"/>
        <pt x="412" y="10" on="0"/>
        <pt x="433" y="37" on="0"/>
        <pt x="433" y="60" on="0"/>
        <pt x="429" y="72" on="1"/>
        <pt x="388" y="166" on="1"/>
        <pt x="178" y="166" on="1"/>
        <pt x="135" y="71" on="1"/>
        <pt x="131" y="59" on="0"/>
        <pt x="131" y="37" on="0"/>
        <pt x="152" y="10" on="0"/>
        <pt x="174" y="10" on="1"/>
        <pt x="183" y="10" on="1"/>
        <pt x="183" y="0" on="1"/>
        <pt x="-40" y="0" on="1"/>
        <pt x="-40" y="10" on="1"/>
        <pt x="-31" y="10" on="1"/>
        <pt x="-6" y="10" on="0"/>
        <pt x="42" y="41" on="0"/>
        <pt x="57" y="73" on="1"/>
        <pt x="285" y="565" on="1"/>
        <pt x="325" y="648" on="0"/>
        <pt x="338" y="694" on="1"/>
        <pt x="300" y="696" on="0"/>
        <pt x="249" y="738" on="0"/>
        <pt x="249" y="801" on="0"/>
        <pt x="306" y="843" on="0"/>
        <pt x="389" y="843" on="0"/>
        <pt x="446" y="802" on="0"/>
        <pt x="446" y="740" on="0"/>
        <pt x="397" y="698" on="0"/>
        <pt x="361" y="694" on="1"/>
        <pt x="664" y="73" on="1"/>
        <pt x="695" y="10" on="0"/>
      </contour>
      <contour>
        <pt x="348" y="821" on="1"/>
        <pt x="347" y="821" on="0"/>
        <pt x="347" y="821" on="0"/>
        <pt x="346" y="821" on="1"/>
        <pt x="329" y="821" on="0"/>
        <pt x="305" y="791" on="0"/>
        <pt x="305" y="760" on="0"/>
        <pt x="309" y="744" on="0"/>
        <pt x="316" y="731" on="0"/>
        <pt x="322" y="726" on="1"/>
        <pt x="332" y="716" on="0"/>
        <pt x="366" y="716" on="0"/>
        <pt x="391" y="746" on="0"/>
        <pt x="391" y="791" on="0"/>
        <pt x="366" y="821" on="0"/>
      </contour>
      <contour>
        <pt x="200" y="216" on="1"/>
        <pt x="367" y="216" on="1"/>
        <pt x="285" y="408" on="1"/>
      </contour>
    </TTGlyph>
    <TTGlyph name="Atilde" xMin="-41" yMin="-1" xMax="761" yMax="929">
      <contour>
        <pt x="544" y="919" on="1"/>
        <pt x="556" y="919" on="1"/>
        <pt x="562" y="902" on="0"/>
        <pt x="562" y="863" on="0"/>
        <pt x="554" y="844" on="1"/>
        <pt x="532" y="794" on="0"/>
        <pt x="493" y="776" on="1"/>
        <pt x="469" y="764" on="0"/>
        <pt x="406" y="764" on="0"/>
        <pt x="357" y="789" on="1"/>
        <pt x="307" y="814" on="0"/>
        <pt x="272" y="819" on="0"/>
        <pt x="242" y="819" on="0"/>
        <pt x="194" y="787" on="0"/>
        <pt x="186" y="767" on="1"/>
        <pt x="174" y="767" on="1"/>
        <pt x="170" y="781" on="0"/>
        <pt x="170" y="796" on="1"/>
        <pt x="170" y="856" on="0"/>
        <pt x="215" y="899" on="1"/>
        <pt x="246" y="929" on="0"/>
        <pt x="321" y="929" on="0"/>
        <pt x="429" y="875" on="0"/>
        <pt x="474" y="875" on="1"/>
        <pt x="489" y="875" on="0"/>
        <pt x="538" y="904" on="0"/>
      </contour>
      <contour>
        <pt x="700" y="10" on="0"/>
        <pt x="752" y="10" on="1"/>
        <pt x="760" y="10" on="1"/>
        <pt x="760" y="0" on="1"/>
        <pt x="381" y="0" on="1"/>
        <pt x="381" y="10" on="1"/>
        <pt x="390" y="10" on="1"/>
        <pt x="412" y="10" on="0"/>
        <pt x="434" y="37" on="0"/>
        <pt x="434" y="60" on="0"/>
        <pt x="429" y="73" on="1"/>
        <pt x="390" y="166" on="1"/>
        <pt x="176" y="166" on="1"/>
        <pt x="136" y="73" on="1"/>
        <pt x="130" y="60" on="0"/>
        <pt x="130" y="37" on="0"/>
        <pt x="152" y="10" on="0"/>
        <pt x="174" y="10" on="1"/>
        <pt x="183" y="10" on="1"/>
        <pt x="183" y="0" on="1"/>
        <pt x="-40" y="0" on="1"/>
        <pt x="-40" y="10" on="1"/>
        <pt x="-31" y="10" on="1"/>
        <pt x="-8" y="10" on="0"/>
        <pt x="37" y="37" on="0"/>
        <pt x="52" y="64" on="1"/>
        <pt x="285" y="575" on="1"/>
        <pt x="338" y="687" on="0"/>
        <pt x="342" y="724" on="1"/>
        <pt x="351" y="724" on="1"/>
        <pt x="668" y="65" on="1"/>
      </contour>
      <contour>
        <pt x="198" y="216" on="1"/>
        <pt x="369" y="216" on="1"/>
        <pt x="285" y="416" on="1"/>
      </contour>
    </TTGlyph>
    <TTGlyph name="B" xMin="30" yMin="0" xMax="707" yMax="701">
      <contour>
        <pt x="394" y="0" on="1"/>
        <pt x="30" y="0" on="1"/>
        <pt x="30" y="10" on="1"/>
        <pt x="43" y="10" on="1"/>
        <pt x="79" y="10" on="0"/>
        <pt x="98" y="41" on="1"/>
        <pt x="106" y="55" on="0"/>
        <pt x="107" y="72" on="1"/>
        <pt x="107" y="628" on="1"/>
        <pt x="106" y="664" on="0"/>
        <pt x="75" y="682" on="1"/>
        <pt x="60" y="690" on="0"/>
        <pt x="43" y="690" on="1"/>
        <pt x="30" y="690" on="1"/>
        <pt x="30" y="700" on="1"/>
        <pt x="378" y="700" on="1"/>
        <pt x="656" y="700" on="0"/>
        <pt x="656" y="526" on="1"/>
        <pt x="656" y="425" on="0"/>
        <pt x="574" y="391" on="1"/>
        <pt x="551" y="382" on="0"/>
        <pt x="525" y="381" on="1"/>
        <pt x="602" y="377" on="0"/>
        <pt x="707" y="280" on="0"/>
        <pt x="707" y="200" on="1"/>
        <pt x="707" y="100" on="0"/>
        <pt x="537" y="0" on="0"/>
      </contour>
      <contour>
        <pt x="326" y="52" on="1"/>
        <pt x="391" y="52" on="0"/>
        <pt x="472" y="130" on="0"/>
        <pt x="472" y="289" on="0"/>
        <pt x="408" y="370" on="0"/>
        <pt x="346" y="370" on="1"/>
        <pt x="346" y="379" on="1"/>
        <pt x="441" y="379" on="0"/>
        <pt x="441" y="650" on="0"/>
        <pt x="325" y="650" on="1"/>
        <pt x="325" y="650" on="0"/>
        <pt x="325" y="650" on="1"/>
        <pt x="312" y="650" on="1"/>
        <pt x="312" y="52" on="1"/>
        <pt x="325" y="52" on="1"/>
        <pt x="326" y="52" on="0"/>
      </contour>
    </TTGlyph>
    <TTGlyph name="C" xMin="34" yMin="-14" xMax="754" yMax="714">
      <contour>
        <pt x="35" y="351" on="1"/>
        <pt x="35" y="464" on="0"/>
        <pt x="139" y="628" on="0"/>
        <pt x="336" y="714" on="0"/>
        <pt x="622" y="714" on="0"/>
        <pt x="730" y="668" on="1"/>
        <pt x="720" y="477" on="1"/>
        <pt x="711" y="477" on="1"/>
        <pt x="682" y="578" on="0"/>
        <pt x="572" y="664" on="0"/>
        <pt x="490" y="664" on="1"/>
        <pt x="379" y="664" on="0"/>
        <pt x="255" y="500" on="0"/>
        <pt x="255" y="207" on="0"/>
        <pt x="370" y="39" on="0"/>
        <pt x="472" y="36" on="1"/>
        <pt x="590" y="36" on="0"/>
        <pt x="643" y="92" on="1"/>
        <pt x="693" y="144" on="0"/>
        <pt x="721" y="292" on="1"/>
        <pt x="729" y="292" on="1"/>
        <pt x="753" y="110" on="1"/>
        <pt x="679" y="-14" on="0"/>
        <pt x="268" y="-13" on="0"/>
        <pt x="35" y="178" on="0"/>
      </contour>
    </TTGlyph>
    <TTGlyph name="Cacute" xMin="34" yMin="-14" xMax="754" yMax="954">
      <contour>
        <pt x="419" y="761" on="1"/>
        <pt x="412" y="768" on="1"/>
        <pt x="431" y="812" on="0"/>
        <pt x="524" y="917" on="0"/>
        <pt x="567" y="954" on="1"/>
        <pt x="631" y="927" on="0"/>
        <pt x="652" y="854" on="1"/>
        <pt x="602" y="821" on="0"/>
        <pt x="472" y="767" on="0"/>
      </contour>
      <contour>
        <pt x="35" y="351" on="1"/>
        <pt x="35" y="464" on="0"/>
        <pt x="139" y="628" on="0"/>
        <pt x="336" y="714" on="0"/>
        <pt x="622" y="714" on="0"/>
        <pt x="730" y="668" on="1"/>
        <pt x="720" y="477" on="1"/>
        <pt x="711" y="477" on="1"/>
        <pt x="682" y="578" on="0"/>
        <pt x="572" y="664" on="0"/>
        <pt x="490" y="664" on="1"/>
        <pt x="379" y="664" on="0"/>
        <pt x="255" y="500" on="0"/>
        <pt x="255" y="207" on="0"/>
        <pt x="370" y="39" on="0"/>
        <pt x="472" y="36" on="1"/>
        <pt x="590" y="36" on="0"/>
        <pt x="643" y="92" on="1"/>
        <pt x="693" y="144" on="0"/>
        <pt x="721" y="292" on="1"/>
        <pt x="729" y="292" on="1"/>
        <pt x="753" y="110" on="1"/>
        <pt x="679" y="-14" on="0"/>
        <pt x="268" y="-13" on="0"/>
        <pt x="35" y="178" on="0"/>
      </contour>
    </TTGlyph>
    <TTGlyph name="Ccaron" xMin="34" yMin="-14" xMax="754" yMax="948">
      <contour>
        <pt x="443" y="764" on="1"/>
        <pt x="431" y="764" on="1"/>
        <pt x="262" y="939" on="1"/>
        <pt x="269" y="947" on="1"/>
        <pt x="437" y="883" on="1"/>
        <pt x="595" y="947" on="1"/>
        <pt x="602" y="939" on="1"/>
      </contour>
      <contour>
        <pt x="35" y="351" on="1"/>
        <pt x="35" y="464" on="0"/>
        <pt x="139" y="628" on="0"/>
        <pt x="336" y="714" on="0"/>
        <pt x="622" y="714" on="0"/>
        <pt x="730" y="668" on="1"/>
        <pt x="720" y="477" on="1"/>
        <pt x="711" y="477" on="1"/>
        <pt x="682" y="578" on="0"/>
        <pt x="572" y="664" on="0"/>
        <pt x="490" y="664" on="1"/>
        <pt x="379" y="664" on="0"/>
        <pt x="255" y="500" on="0"/>
        <pt x="255" y="207" on="0"/>
        <pt x="370" y="39" on="0"/>
        <pt x="472" y="36" on="1"/>
        <pt x="590" y="36" on="0"/>
        <pt x="643" y="92" on="1"/>
        <pt x="693" y="144" on="0"/>
        <pt x="721" y="292" on="1"/>
        <pt x="729" y="292" on="1"/>
        <pt x="753" y="110" on="1"/>
        <pt x="679" y="-14" on="0"/>
        <pt x="268" y="-13" on="0"/>
        <pt x="35" y="178" on="0"/>
      </contour>
    </TTGlyph>
    <TTGlyph name="Ccedilla" xMin="34" yMin="-214" xMax="754" yMax="715">
      <contour>
        <pt x="472" y="-14" on="1"/>
        <pt x="460" y="-14" on="1"/>
        <pt x="423" y="-57" on="1"/>
        <pt x="437" y="-52" on="0"/>
        <pt x="457" y="-52" on="0"/>
        <pt x="477" y="-52" on="0"/>
        <pt x="518" y="-63" on="0"/>
        <pt x="542" y="-93" on="0"/>
        <pt x="542" y="-105" on="1"/>
        <pt x="542" y="-151" on="0"/>
        <pt x="510" y="-178" on="1"/>
        <pt x="468" y="-213" on="0"/>
        <pt x="410" y="-213" on="1"/>
        <pt x="382" y="-213" on="0"/>
        <pt x="353" y="-205" on="1"/>
        <pt x="354" y="-195" on="1"/>
        <pt x="390" y="-195" on="0"/>
        <pt x="458" y="-154" on="0"/>
        <pt x="458" y="-114" on="1"/>
        <pt x="458" y="-98" on="0"/>
        <pt x="441" y="-86" on="1"/>
        <pt x="411" y="-65" on="0"/>
        <pt x="360" y="-81" on="1"/>
        <pt x="355" y="-71" on="1"/>
        <pt x="402" y="-11" on="1"/>
        <pt x="229" y="6" on="0"/>
        <pt x="35" y="194" on="0"/>
        <pt x="35" y="351" on="1"/>
        <pt x="35" y="464" on="0"/>
        <pt x="139" y="628" on="0"/>
        <pt x="336" y="714" on="0"/>
        <pt x="622" y="714" on="0"/>
        <pt x="730" y="668" on="1"/>
        <pt x="720" y="477" on="1"/>
        <pt x="711" y="477" on="1"/>
        <pt x="682" y="578" on="0"/>
        <pt x="572" y="664" on="0"/>
        <pt x="490" y="664" on="1"/>
        <pt x="379" y="664" on="0"/>
        <pt x="255" y="500" on="0"/>
        <pt x="255" y="207" on="0"/>
        <pt x="370" y="39" on="0"/>
        <pt x="472" y="36" on="1"/>
        <pt x="590" y="36" on="0"/>
        <pt x="643" y="92" on="1"/>
        <pt x="693" y="144" on="0"/>
        <pt x="721" y="292" on="1"/>
        <pt x="729" y="292" on="1"/>
        <pt x="753" y="110" on="1"/>
        <pt x="679" y="-14" on="0"/>
      </contour>
    </TTGlyph>
    <TTGlyph name="Cdotaccent" xMin="34" yMin="-14" xMax="754" yMax="912">
      <contour>
        <pt x="467" y="764" on="0"/>
        <pt x="405" y="764" on="0"/>
        <pt x="362" y="807" on="0"/>
        <pt x="362" y="868" on="0"/>
        <pt x="405" y="911" on="0"/>
        <pt x="467" y="911" on="0"/>
        <pt x="510" y="868" on="0"/>
        <pt x="510" y="807" on="0"/>
      </contour>
      <contour>
        <pt x="35" y="351" on="1"/>
        <pt x="35" y="464" on="0"/>
        <pt x="139" y="628" on="0"/>
        <pt x="336" y="714" on="0"/>
        <pt x="622" y="714" on="0"/>
        <pt x="730" y="668" on="1"/>
        <pt x="720" y="477" on="1"/>
        <pt x="711" y="477" on="1"/>
        <pt x="682" y="578" on="0"/>
        <pt x="572" y="664" on="0"/>
        <pt x="490" y="664" on="1"/>
        <pt x="379" y="664" on="0"/>
        <pt x="255" y="500" on="0"/>
        <pt x="255" y="207" on="0"/>
        <pt x="370" y="39" on="0"/>
        <pt x="472" y="36" on="1"/>
        <pt x="590" y="36" on="0"/>
        <pt x="643" y="92" on="1"/>
        <pt x="693" y="144" on="0"/>
        <pt x="721" y="292" on="1"/>
        <pt x="729" y="292" on="1"/>
        <pt x="753" y="110" on="1"/>
        <pt x="679" y="-14" on="0"/>
        <pt x="268" y="-13" on="0"/>
        <pt x="35" y="178" on="0"/>
      </contour>
    </TTGlyph>
    <TTGlyph name="D" xMin="29" yMin="-1" xMax="808" yMax="700">
      <contour>
        <pt x="808" y="515" on="0"/>
        <pt x="808" y="185" on="0"/>
        <pt x="597" y="0" on="0"/>
        <pt x="409" y="0" on="1"/>
        <pt x="30" y="0" on="1"/>
        <pt x="30" y="10" on="1"/>
        <pt x="43" y="10" on="1"/>
        <pt x="69" y="10" on="0"/>
        <pt x="106" y="47" on="0"/>
        <pt x="107" y="73" on="1"/>
        <pt x="107" y="633" on="1"/>
        <pt x="107" y="657" on="0"/>
        <pt x="68" y="690" on="0"/>
        <pt x="43" y="690" on="1"/>
        <pt x="31" y="690" on="1"/>
        <pt x="30" y="700" on="1"/>
        <pt x="409" y="700" on="1"/>
        <pt x="597" y="700" on="0"/>
      </contour>
      <contour>
        <pt x="312" y="650" on="1"/>
        <pt x="312" y="50" on="1"/>
        <pt x="389" y="50" on="1"/>
        <pt x="482" y="50" on="0"/>
        <pt x="588" y="209" on="0"/>
        <pt x="588" y="491" on="0"/>
        <pt x="482" y="650" on="0"/>
        <pt x="389" y="650" on="1"/>
      </contour>
    </TTGlyph>
    <TTGlyph name="Dcaron" xMin="29" yMin="-1" xMax="808" yMax="948">
      <contour>
        <pt x="428" y="764" on="1"/>
        <pt x="416" y="764" on="1"/>
        <pt x="247" y="939" on="1"/>
        <pt x="254" y="947" on="1"/>
        <pt x="423" y="883" on="1"/>
        <pt x="580" y="947" on="1"/>
        <pt x="587" y="939" on="1"/>
      </contour>
      <contour>
        <pt x="808" y="350" on="1"/>
        <pt x="808" y="240" on="0"/>
        <pt x="713" y="83" on="0"/>
        <pt x="533" y="0" on="0"/>
        <pt x="409" y="0" on="1"/>
        <pt x="30" y="0" on="1"/>
        <pt x="30" y="10" on="1"/>
        <pt x="43" y="10" on="1"/>
        <pt x="69" y="10" on="0"/>
        <pt x="106" y="47" on="0"/>
        <pt x="107" y="73" on="1"/>
        <pt x="107" y="633" on="1"/>
        <pt x="107" y="657" on="0"/>
        <pt x="68" y="690" on="0"/>
        <pt x="43" y="690" on="1"/>
        <pt x="30" y="690" on="1"/>
        <pt x="30" y="700" on="1"/>
        <pt x="409" y="700" on="1"/>
        <pt x="597" y="700" on="0"/>
        <pt x="808" y="515" on="0"/>
      </contour>
      <contour>
        <pt x="312" y="650" on="1"/>
        <pt x="312" y="50" on="1"/>
        <pt x="389" y="50" on="1"/>
        <pt x="482" y="50" on="0"/>
        <pt x="588" y="209" on="0"/>
        <pt x="588" y="491" on="0"/>
        <pt x="482" y="650" on="0"/>
        <pt x="389" y="650" on="1"/>
      </contour>
    </TTGlyph>
    <TTGlyph name="Dcroat" xMin="29" yMin="-1" xMax="808" yMax="881">
      <contour>
        <pt x="279" y="795" on="1"/>
        <pt x="279" y="880" on="1"/>
        <pt x="569" y="880" on="1"/>
        <pt x="569" y="795" on="1"/>
      </contour>
      <contour>
        <pt x="808" y="515" on="0"/>
        <pt x="808" y="185" on="0"/>
        <pt x="597" y="0" on="0"/>
        <pt x="409" y="0" on="1"/>
        <pt x="30" y="0" on="1"/>
        <pt x="30" y="10" on="1"/>
        <pt x="43" y="10" on="1"/>
        <pt x="69" y="10" on="0"/>
        <pt x="106" y="47" on="0"/>
        <pt x="107" y="73" on="1"/>
        <pt x="107" y="633" on="1"/>
        <pt x="107" y="657" on="0"/>
        <pt x="68" y="690" on="0"/>
        <pt x="43" y="690" on="1"/>
        <pt x="31" y="690" on="1"/>
        <pt x="30" y="700" on="1"/>
        <pt x="409" y="700" on="1"/>
        <pt x="597" y="700" on="0"/>
      </contour>
      <contour>
        <pt x="312" y="650" on="1"/>
        <pt x="312" y="50" on="1"/>
        <pt x="389" y="50" on="1"/>
        <pt x="482" y="50" on="0"/>
        <pt x="588" y="209" on="0"/>
        <pt x="588" y="491" on="0"/>
        <pt x="482" y="650" on="0"/>
        <pt x="389" y="650" on="1"/>
      </contour>
    </TTGlyph>
    <TTGlyph name="Delta" xMin="5" yMin="0" xMax="647" yMax="714">
      <contour>
        <pt x="647" y="0" on="1"/>
        <pt x="5" y="0" on="1"/>
        <pt x="5" y="10" on="1"/>
        <pt x="321" y="714" on="1"/>
        <pt x="331" y="714" on="1"/>
        <pt x="647" y="10" on="1"/>
      </contour>
      <contour>
        <pt x="498" y="50" on="1"/>
        <pt x="290" y="532" on="1"/>
        <pt x="79" y="50" on="1"/>
      </contour>
    </TTGlyph>
    <TTGlyph name="E" xMin="30" yMin="-1" xMax="653" yMax="719">
      <contour>
        <pt x="43" y="10" on="1"/>
        <pt x="69" y="10" on="0"/>
        <pt x="106" y="47" on="0"/>
        <pt x="107" y="73" on="1"/>
        <pt x="107" y="627" on="1"/>
        <pt x="106" y="659" on="0"/>
        <pt x="80" y="678" on="1"/>
        <pt x="64" y="690" on="0"/>
        <pt x="43" y="690" on="1"/>
        <pt x="30" y="690" on="1"/>
        <pt x="30" y="700" on="1"/>
        <pt x="473" y="700" on="1"/>
        <pt x="504" y="700" on="0"/>
        <pt x="577" y="712" on="0"/>
        <pt x="592" y="718" on="1"/>
        <pt x="592" y="512" on="1"/>
        <pt x="582" y="512" on="1"/>
        <pt x="582" y="520" on="1"/>
        <pt x="582" y="600" on="0"/>
        <pt x="524" y="632" on="1"/>
        <pt x="496" y="648" on="0"/>
        <pt x="457" y="649" on="1"/>
        <pt x="312" y="649" on="1"/>
        <pt x="312" y="370" on="1"/>
        <pt x="421" y="370" on="1"/>
        <pt x="469" y="371" on="0"/>
        <pt x="529" y="432" on="0"/>
        <pt x="529" y="480" on="1"/>
        <pt x="529" y="484" on="1"/>
        <pt x="539" y="484" on="1"/>
        <pt x="539" y="206" on="1"/>
        <pt x="529" y="206" on="1"/>
        <pt x="529" y="211" on="1"/>
        <pt x="529" y="258" on="0"/>
        <pt x="469" y="319" on="0"/>
        <pt x="422" y="320" on="1"/>
        <pt x="312" y="320" on="1"/>
        <pt x="312" y="51" on="1"/>
        <pt x="435" y="51" on="1"/>
        <pt x="508" y="51" on="0"/>
        <pt x="620" y="147" on="0"/>
        <pt x="643" y="232" on="1"/>
        <pt x="653" y="232" on="1"/>
        <pt x="615" y="0" on="1"/>
        <pt x="30" y="0" on="1"/>
        <pt x="30" y="10" on="1"/>
      </contour>
    </TTGlyph>
    <TTGlyph name="Eacute" xMin="30" yMin="-1" xMax="653" yMax="954">
      <contour>
        <pt x="322" y="761" on="1"/>
        <pt x="315" y="768" on="1"/>
        <pt x="334" y="812" on="0"/>
        <pt x="427" y="917" on="0"/>
        <pt x="470" y="954" on="1"/>
        <pt x="534" y="927" on="0"/>
        <pt x="555" y="854" on="1"/>
        <pt x="505" y="821" on="0"/>
        <pt x="375" y="767" on="0"/>
      </contour>
      <contour>
        <pt x="43" y="10" on="1"/>
        <pt x="69" y="10" on="0"/>
        <pt x="106" y="47" on="0"/>
        <pt x="107" y="73" on="1"/>
        <pt x="107" y="627" on="1"/>
        <pt x="106" y="653" on="0"/>
        <pt x="69" y="690" on="0"/>
        <pt x="43" y="690" on="1"/>
        <pt x="30" y="690" on="1"/>
        <pt x="30" y="700" on="1"/>
        <pt x="473" y="700" on="1"/>
        <pt x="504" y="700" on="0"/>
        <pt x="577" y="712" on="0"/>
        <pt x="592" y="718" on="1"/>
        <pt x="592" y="512" on="1"/>
        <pt x="582" y="512" on="1"/>
        <pt x="582" y="520" on="1"/>
        <pt x="582" y="600" on="0"/>
        <pt x="524" y="632" on="1"/>
        <pt x="496" y="648" on="0"/>
        <pt x="457" y="649" on="1"/>
        <pt x="312" y="649" on="1"/>
        <pt x="312" y="370" on="1"/>
        <pt x="421" y="370" on="1"/>
        <pt x="469" y="371" on="0"/>
        <pt x="529" y="432" on="0"/>
        <pt x="529" y="480" on="1"/>
        <pt x="529" y="484" on="1"/>
        <pt x="539" y="484" on="1"/>
        <pt x="539" y="206" on="1"/>
        <pt x="529" y="206" on="1"/>
        <pt x="529" y="211" on="1"/>
        <pt x="529" y="258" on="0"/>
        <pt x="469" y="319" on="0"/>
        <pt x="422" y="320" on="1"/>
        <pt x="312" y="320" on="1"/>
        <pt x="312" y="51" on="1"/>
        <pt x="435" y="51" on="1"/>
        <pt x="508" y="51" on="0"/>
        <pt x="620" y="147" on="0"/>
        <pt x="643" y="232" on="1"/>
        <pt x="653" y="232" on="1"/>
        <pt x="615" y="0" on="1"/>
        <pt x="30" y="0" on="1"/>
        <pt x="30" y="10" on="1"/>
      </contour>
    </TTGlyph>
    <TTGlyph name="Ecaron" xMin="30" yMin="-1" xMax="653" yMax="948">
      <contour>
        <pt x="346" y="764" on="1"/>
        <pt x="334" y="764" on="1"/>
        <pt x="165" y="939" on="1"/>
        <pt x="172" y="947" on="1"/>
        <pt x="340" y="883" on="1"/>
        <pt x="498" y="947" on="1"/>
        <pt x="505" y="939" on="1"/>
      </contour>
      <contour>
        <pt x="43" y="10" on="1"/>
        <pt x="69" y="10" on="0"/>
        <pt x="106" y="47" on="0"/>
        <pt x="107" y="73" on="1"/>
        <pt x="107" y="627" on="1"/>
        <pt x="106" y="659" on="0"/>
        <pt x="80" y="678" on="1"/>
        <pt x="64" y="690" on="0"/>
        <pt x="43" y="690" on="1"/>
        <pt x="30" y="690" on="1"/>
        <pt x="30" y="700" on="1"/>
        <pt x="473" y="700" on="1"/>
        <pt x="504" y="700" on="0"/>
        <pt x="577" y="712" on="0"/>
        <pt x="592" y="718" on="1"/>
        <pt x="592" y="512" on="1"/>
        <pt x="582" y="512" on="1"/>
        <pt x="582" y="520" on="1"/>
        <pt x="582" y="600" on="0"/>
        <pt x="524" y="632" on="1"/>
        <pt x="496" y="648" on="0"/>
        <pt x="457" y="649" on="1"/>
        <pt x="312" y="649" on="1"/>
        <pt x="312" y="370" on="1"/>
        <pt x="421" y="370" on="1"/>
        <pt x="469" y="371" on="0"/>
        <pt x="529" y="432" on="0"/>
        <pt x="529" y="480" on="1"/>
        <pt x="529" y="484" on="1"/>
        <pt x="539" y="484" on="1"/>
        <pt x="539" y="206" on="1"/>
        <pt x="529" y="206" on="1"/>
        <pt x="529" y="211" on="1"/>
        <pt x="529" y="258" on="0"/>
        <pt x="469" y="319" on="0"/>
        <pt x="422" y="320" on="1"/>
        <pt x="312" y="320" on="1"/>
        <pt x="312" y="51" on="1"/>
        <pt x="435" y="51" on="1"/>
        <pt x="508" y="51" on="0"/>
        <pt x="620" y="147" on="0"/>
        <pt x="643" y="232" on="1"/>
        <pt x="653" y="232" on="1"/>
        <pt x="615" y="0" on="1"/>
        <pt x="30" y="0" on="1"/>
        <pt x="30" y="10" on="1"/>
      </contour>
    </TTGlyph>
    <TTGlyph name="Ecircumflex" xMin="30" yMin="-1" xMax="653" yMax="932">
      <contour>
        <pt x="332" y="932" on="1"/>
        <pt x="344" y="932" on="1"/>
        <pt x="522" y="756" on="1"/>
        <pt x="515" y="748" on="1"/>
        <pt x="337" y="813" on="1"/>
        <pt x="170" y="748" on="1"/>
        <pt x="163" y="756" on="1"/>
      </contour>
      <contour>
        <pt x="43" y="10" on="1"/>
        <pt x="69" y="10" on="0"/>
        <pt x="106" y="47" on="0"/>
        <pt x="107" y="73" on="1"/>
        <pt x="107" y="627" on="1"/>
        <pt x="106" y="653" on="0"/>
        <pt x="69" y="690" on="0"/>
        <pt x="43" y="690" on="1"/>
        <pt x="30" y="690" on="1"/>
        <pt x="30" y="700" on="1"/>
        <pt x="473" y="700" on="1"/>
        <pt x="504" y="700" on="0"/>
        <pt x="577" y="712" on="0"/>
        <pt x="592" y="718" on="1"/>
        <pt x="592" y="512" on="1"/>
        <pt x="582" y="512" on="1"/>
        <pt x="582" y="520" on="1"/>
        <pt x="582" y="600" on="0"/>
        <pt x="524" y="632" on="1"/>
        <pt x="496" y="648" on="0"/>
        <pt x="457" y="649" on="1"/>
        <pt x="312" y="649" on="1"/>
        <pt x="312" y="370" on="1"/>
        <pt x="421" y="370" on="1"/>
        <pt x="469" y="371" on="0"/>
        <pt x="529" y="432" on="0"/>
        <pt x="529" y="480" on="1"/>
        <pt x="529" y="484" on="1"/>
        <pt x="539" y="484" on="1"/>
        <pt x="539" y="206" on="1"/>
        <pt x="529" y="206" on="1"/>
        <pt x="529" y="211" on="1"/>
        <pt x="529" y="258" on="0"/>
        <pt x="469" y="319" on="0"/>
        <pt x="422" y="320" on="1"/>
        <pt x="312" y="320" on="1"/>
        <pt x="312" y="51" on="1"/>
        <pt x="435" y="51" on="1"/>
        <pt x="508" y="51" on="0"/>
        <pt x="620" y="147" on="0"/>
        <pt x="643" y="232" on="1"/>
        <pt x="653" y="232" on="1"/>
        <pt x="615" y="0" on="1"/>
        <pt x="30" y="0" on="1"/>
        <pt x="30" y="10" on="1"/>
      </contour>
    </TTGlyph>
    <TTGlyph name="Edieresis" xMin="30" yMin="-1" xMax="653" yMax="903">
      <contour>
        <pt x="235" y="755" on="0"/>
        <pt x="174" y="755" on="0"/>
        <pt x="131" y="799" on="0"/>
        <pt x="131" y="860" on="0"/>
        <pt x="174" y="903" on="0"/>
        <pt x="235" y="903" on="0"/>
        <pt x="278" y="860" on="0"/>
        <pt x="278" y="799" on="0"/>
      </contour>
      <contour>
        <pt x="497" y="755" on="0"/>
        <pt x="436" y="755" on="0"/>
        <pt x="393" y="799" on="0"/>
        <pt x="393" y="860" on="0"/>
        <pt x="436" y="903" on="0"/>
        <pt x="497" y="903" on="0"/>
        <pt x="540" y="860" on="0"/>
        <pt x="540" y="799" on="0"/>
      </contour>
      <contour>
        <pt x="43" y="10" on="1"/>
        <pt x="69" y="10" on="0"/>
        <pt x="106" y="47" on="0"/>
        <pt x="107" y="73" on="1"/>
        <pt x="107" y="627" on="1"/>
        <pt x="106" y="653" on="0"/>
        <pt x="69" y="690" on="0"/>
        <pt x="43" y="690" on="1"/>
        <pt x="30" y="690" on="1"/>
        <pt x="30" y="700" on="1"/>
        <pt x="473" y="700" on="1"/>
        <pt x="516" y="700" on="0"/>
        <pt x="583" y="714" on="0"/>
        <pt x="592" y="718" on="1"/>
        <pt x="592" y="512" on="1"/>
        <pt x="582" y="512" on="1"/>
        <pt x="582" y="520" on="1"/>
        <pt x="582" y="600" on="0"/>
        <pt x="524" y="632" on="1"/>
        <pt x="496" y="648" on="0"/>
        <pt x="457" y="649" on="1"/>
        <pt x="312" y="649" on="1"/>
        <pt x="312" y="370" on="1"/>
        <pt x="421" y="370" on="1"/>
        <pt x="469" y="371" on="0"/>
        <pt x="529" y="432" on="0"/>
        <pt x="529" y="480" on="1"/>
        <pt x="529" y="484" on="1"/>
        <pt x="539" y="484" on="1"/>
        <pt x="539" y="206" on="1"/>
        <pt x="529" y="206" on="1"/>
        <pt x="529" y="211" on="1"/>
        <pt x="529" y="258" on="0"/>
        <pt x="469" y="319" on="0"/>
        <pt x="422" y="320" on="1"/>
        <pt x="312" y="320" on="1"/>
        <pt x="312" y="51" on="1"/>
        <pt x="435" y="51" on="1"/>
        <pt x="508" y="51" on="0"/>
        <pt x="620" y="147" on="0"/>
        <pt x="643" y="232" on="1"/>
        <pt x="653" y="232" on="1"/>
        <pt x="615" y="0" on="1"/>
        <pt x="30" y="0" on="1"/>
        <pt x="30" y="10" on="1"/>
      </contour>
    </TTGlyph>
    <TTGlyph name="Edotaccent" xMin="30" yMin="-1" xMax="653" yMax="912">
      <contour>
        <pt x="370" y="764" on="0"/>
        <pt x="309" y="764" on="0"/>
        <pt x="265" y="807" on="0"/>
        <pt x="265" y="868" on="0"/>
        <pt x="309" y="911" on="0"/>
        <pt x="370" y="911" on="0"/>
        <pt x="413" y="868" on="0"/>
        <pt x="413" y="807" on="0"/>
      </contour>
      <contour>
        <pt x="43" y="10" on="1"/>
        <pt x="69" y="10" on="0"/>
        <pt x="106" y="47" on="0"/>
        <pt x="107" y="73" on="1"/>
        <pt x="107" y="627" on="1"/>
        <pt x="106" y="659" on="0"/>
        <pt x="80" y="678" on="1"/>
        <pt x="64" y="690" on="0"/>
        <pt x="43" y="690" on="1"/>
        <pt x="30" y="690" on="1"/>
        <pt x="30" y="700" on="1"/>
        <pt x="473" y="700" on="1"/>
        <pt x="516" y="700" on="0"/>
        <pt x="583" y="714" on="0"/>
        <pt x="592" y="718" on="1"/>
        <pt x="592" y="512" on="1"/>
        <pt x="582" y="512" on="1"/>
        <pt x="582" y="520" on="1"/>
        <pt x="582" y="600" on="0"/>
        <pt x="524" y="632" on="1"/>
        <pt x="496" y="648" on="0"/>
        <pt x="457" y="649" on="1"/>
        <pt x="312" y="649" on="1"/>
        <pt x="312" y="370" on="1"/>
        <pt x="421" y="370" on="1"/>
        <pt x="469" y="371" on="0"/>
        <pt x="529" y="432" on="0"/>
        <pt x="529" y="480" on="1"/>
        <pt x="529" y="484" on="1"/>
        <pt x="539" y="484" on="1"/>
        <pt x="539" y="206" on="1"/>
        <pt x="529" y="206" on="1"/>
        <pt x="529" y="211" on="1"/>
        <pt x="529" y="258" on="0"/>
        <pt x="469" y="319" on="0"/>
        <pt x="422" y="320" on="1"/>
        <pt x="312" y="320" on="1"/>
        <pt x="312" y="51" on="1"/>
        <pt x="435" y="51" on="1"/>
        <pt x="508" y="51" on="0"/>
        <pt x="620" y="147" on="0"/>
        <pt x="643" y="232" on="1"/>
        <pt x="653" y="232" on="1"/>
        <pt x="615" y="0" on="1"/>
        <pt x="30" y="0" on="1"/>
        <pt x="30" y="10" on="1"/>
      </contour>
    </TTGlyph>
    <TTGlyph name="Egrave" xMin="30" yMin="-1" xMax="653" yMax="957">
      <contour>
        <pt x="393" y="771" on="1"/>
        <pt x="386" y="764" on="1"/>
        <pt x="333" y="770" on="0"/>
        <pt x="205" y="824" on="0"/>
        <pt x="156" y="857" on="1"/>
        <pt x="180" y="930" on="0"/>
        <pt x="245" y="957" on="1"/>
        <pt x="286" y="920" on="0"/>
        <pt x="375" y="815" on="0"/>
      </contour>
      <contour>
        <pt x="43" y="10" on="1"/>
        <pt x="69" y="10" on="0"/>
        <pt x="106" y="47" on="0"/>
        <pt x="107" y="73" on="1"/>
        <pt x="107" y="627" on="1"/>
        <pt x="106" y="664" on="0"/>
        <pt x="75" y="682" on="1"/>
        <pt x="60" y="690" on="0"/>
        <pt x="43" y="690" on="1"/>
        <pt x="30" y="690" on="1"/>
        <pt x="30" y="700" on="1"/>
        <pt x="473" y="700" on="1"/>
        <pt x="516" y="700" on="0"/>
        <pt x="583" y="714" on="0"/>
        <pt x="592" y="718" on="1"/>
        <pt x="592" y="512" on="1"/>
        <pt x="582" y="512" on="1"/>
        <pt x="582" y="520" on="1"/>
        <pt x="582" y="600" on="0"/>
        <pt x="524" y="632" on="1"/>
        <pt x="496" y="648" on="0"/>
        <pt x="457" y="649" on="1"/>
        <pt x="312" y="649" on="1"/>
        <pt x="312" y="370" on="1"/>
        <pt x="421" y="370" on="1"/>
        <pt x="469" y="371" on="0"/>
        <pt x="529" y="432" on="0"/>
        <pt x="529" y="480" on="1"/>
        <pt x="529" y="484" on="1"/>
        <pt x="539" y="484" on="1"/>
        <pt x="539" y="206" on="1"/>
        <pt x="529" y="206" on="1"/>
        <pt x="529" y="211" on="1"/>
        <pt x="529" y="258" on="0"/>
        <pt x="469" y="319" on="0"/>
        <pt x="422" y="320" on="1"/>
        <pt x="312" y="320" on="1"/>
        <pt x="312" y="51" on="1"/>
        <pt x="435" y="51" on="1"/>
        <pt x="508" y="51" on="0"/>
        <pt x="620" y="147" on="0"/>
        <pt x="643" y="232" on="1"/>
        <pt x="653" y="232" on="1"/>
        <pt x="615" y="0" on="1"/>
        <pt x="30" y="0" on="1"/>
        <pt x="30" y="10" on="1"/>
      </contour>
    </TTGlyph>
    <TTGlyph name="Emacron" xMin="30" yMin="-1" xMax="653" yMax="881">
      <contour>
        <pt x="197" y="795" on="1"/>
        <pt x="197" y="880" on="1"/>
        <pt x="487" y="880" on="1"/>
        <pt x="487" y="795" on="1"/>
      </contour>
      <contour>
        <pt x="43" y="10" on="1"/>
        <pt x="69" y="10" on="0"/>
        <pt x="106" y="47" on="0"/>
        <pt x="107" y="73" on="1"/>
        <pt x="107" y="627" on="1"/>
        <pt x="106" y="659" on="0"/>
        <pt x="80" y="678" on="1"/>
        <pt x="64" y="690" on="0"/>
        <pt x="43" y="690" on="1"/>
        <pt x="30" y="690" on="1"/>
        <pt x="30" y="700" on="1"/>
        <pt x="473" y="700" on="1"/>
        <pt x="504" y="700" on="0"/>
        <pt x="577" y="712" on="0"/>
        <pt x="592" y="718" on="1"/>
        <pt x="592" y="512" on="1"/>
        <pt x="582" y="512" on="1"/>
        <pt x="582" y="520" on="1"/>
        <pt x="582" y="600" on="0"/>
        <pt x="524" y="632" on="1"/>
        <pt x="496" y="648" on="0"/>
        <pt x="457" y="649" on="1"/>
        <pt x="312" y="649" on="1"/>
        <pt x="312" y="370" on="1"/>
        <pt x="421" y="370" on="1"/>
        <pt x="469" y="371" on="0"/>
        <pt x="529" y="432" on="0"/>
        <pt x="529" y="480" on="1"/>
        <pt x="529" y="484" on="1"/>
        <pt x="539" y="484" on="1"/>
        <pt x="539" y="206" on="1"/>
        <pt x="529" y="206" on="1"/>
        <pt x="529" y="211" on="1"/>
        <pt x="529" y="258" on="0"/>
        <pt x="469" y="319" on="0"/>
        <pt x="422" y="320" on="1"/>
        <pt x="312" y="320" on="1"/>
        <pt x="312" y="51" on="1"/>
        <pt x="435" y="51" on="1"/>
        <pt x="508" y="51" on="0"/>
        <pt x="620" y="147" on="0"/>
        <pt x="643" y="232" on="1"/>
        <pt x="653" y="232" on="1"/>
        <pt x="615" y="0" on="1"/>
        <pt x="30" y="0" on="1"/>
        <pt x="30" y="10" on="1"/>
      </contour>
    </TTGlyph>
    <TTGlyph name="Eng" xMin="19" yMin="-208" xMax="862" yMax="715">
      <contour>
        <pt x="843" y="690" on="1"/>
        <pt x="819" y="690" on="0"/>
        <pt x="785" y="658" on="0"/>
        <pt x="785" y="635" on="1"/>
        <pt x="785" y="-14" on="1"/>
        <pt x="782" y="-83" on="0"/>
        <pt x="742" y="-132" on="1"/>
        <pt x="680" y="-208" on="0"/>
        <pt x="572" y="-208" on="1"/>
        <pt x="539" y="-208" on="0"/>
        <pt x="503" y="-199" on="1"/>
        <pt x="498" y="-191" on="1"/>
        <pt x="527" y="-168" on="0"/>
        <pt x="553" y="-139" on="0"/>
        <pt x="578" y="-88" on="0"/>
        <pt x="586" y="-16" on="0"/>
        <pt x="586" y="42" on="1"/>
        <pt x="586" y="163" on="1"/>
        <pt x="296" y="421" on="1"/>
        <pt x="296" y="71" on="1"/>
        <pt x="296" y="35" on="0"/>
        <pt x="327" y="18" on="1"/>
        <pt x="341" y="10" on="0"/>
        <pt x="357" y="10" on="1"/>
        <pt x="376" y="10" on="1"/>
        <pt x="376" y="0" on="1"/>
        <pt x="20" y="0" on="1"/>
        <pt x="20" y="10" on="1"/>
        <pt x="39" y="10" on="1"/>
        <pt x="64" y="10" on="0"/>
        <pt x="100" y="45" on="0"/>
        <pt x="100" y="71" on="1"/>
        <pt x="100" y="590" on="1"/>
        <pt x="100" y="660" on="0"/>
        <pt x="90" y="701" on="1"/>
        <pt x="87" y="715" on="1"/>
        <pt x="98" y="714" on="1"/>
        <pt x="586" y="280" on="1"/>
        <pt x="586" y="629" on="1"/>
        <pt x="585" y="655" on="0"/>
        <pt x="549" y="690" on="0"/>
        <pt x="524" y="690" on="1"/>
        <pt x="505" y="690" on="1"/>
        <pt x="505" y="700" on="1"/>
        <pt x="861" y="700" on="1"/>
        <pt x="861" y="690" on="1"/>
      </contour>
    </TTGlyph>
    <TTGlyph name="Eogonek" xMin="30" yMin="-214" xMax="668" yMax="719">
      <contour>
        <pt x="667" y="-126" on="1"/>
        <pt x="661" y="-213" on="0"/>
        <pt x="563" y="-213" on="1"/>
        <pt x="538" y="-213" on="0"/>
        <pt x="506" y="-191" on="1"/>
        <pt x="462" y="-160" on="0"/>
        <pt x="462" y="-108" on="1"/>
        <pt x="462" y="-58" on="0"/>
        <pt x="517" y="-7" on="0"/>
        <pt x="551" y="0" on="1"/>
        <pt x="30" y="0" on="1"/>
        <pt x="30" y="10" on="1"/>
        <pt x="43" y="10" on="1"/>
        <pt x="69" y="10" on="0"/>
        <pt x="106" y="47" on="0"/>
        <pt x="107" y="73" on="1"/>
        <pt x="107" y="627" on="1"/>
        <pt x="106" y="659" on="0"/>
        <pt x="80" y="678" on="1"/>
        <pt x="64" y="690" on="0"/>
        <pt x="43" y="690" on="1"/>
        <pt x="30" y="690" on="1"/>
        <pt x="30" y="700" on="1"/>
        <pt x="473" y="700" on="1"/>
        <pt x="504" y="700" on="0"/>
        <pt x="577" y="712" on="0"/>
        <pt x="592" y="718" on="1"/>
        <pt x="592" y="512" on="1"/>
        <pt x="582" y="512" on="1"/>
        <pt x="582" y="520" on="1"/>
        <pt x="582" y="600" on="0"/>
        <pt x="524" y="632" on="1"/>
        <pt x="496" y="648" on="0"/>
        <pt x="457" y="649" on="1"/>
        <pt x="312" y="649" on="1"/>
        <pt x="312" y="370" on="1"/>
        <pt x="421" y="370" on="1"/>
        <pt x="469" y="371" on="0"/>
        <pt x="529" y="432" on="0"/>
        <pt x="529" y="480" on="1"/>
        <pt x="529" y="484" on="1"/>
        <pt x="539" y="484" on="1"/>
        <pt x="539" y="206" on="1"/>
        <pt x="529" y="206" on="1"/>
        <pt x="529" y="211" on="1"/>
        <pt x="529" y="258" on="0"/>
        <pt x="469" y="319" on="0"/>
        <pt x="422" y="320" on="1"/>
        <pt x="312" y="320" on="1"/>
        <pt x="312" y="51" on="1"/>
        <pt x="435" y="51" on="1"/>
        <pt x="508" y="51" on="0"/>
        <pt x="620" y="147" on="0"/>
        <pt x="643" y="232" on="1"/>
        <pt x="653" y="232" on="1"/>
        <pt x="615" y="0" on="1"/>
        <pt x="613" y="0" on="1"/>
        <pt x="549" y="-15" on="0"/>
        <pt x="549" y="-69" on="1"/>
        <pt x="549" y="-122" on="0"/>
        <pt x="588" y="-137" on="1"/>
        <pt x="599" y="-141" on="0"/>
        <pt x="635" y="-141" on="0"/>
        <pt x="661" y="-120" on="1"/>
      </contour>
    </TTGlyph>
    <TTGlyph name="Eth" xMin="29" yMin="-1" xMax="808" yMax="700">
      <contour>
        <pt x="808" y="515" on="0"/>
        <pt x="808" y="185" on="0"/>
        <pt x="597" y="0" on="0"/>
        <pt x="409" y="0" on="1"/>
        <pt x="30" y="0" on="1"/>
        <pt x="30" y="10" on="1"/>
        <pt x="43" y="10" on="1"/>
        <pt x="69" y="10" on="0"/>
        <pt x="106" y="47" on="0"/>
        <pt x="107" y="73" on="1"/>
        <pt x="107" y="325" on="1"/>
        <pt x="30" y="325" on="1"/>
        <pt x="30" y="375" on="1"/>
        <pt x="107" y="375" on="1"/>
        <pt x="107" y="633" on="1"/>
        <pt x="107" y="657" on="0"/>
        <pt x="68" y="690" on="0"/>
        <pt x="43" y="690" on="1"/>
        <pt x="31" y="690" on="1"/>
        <pt x="30" y="700" on="1"/>
        <pt x="409" y="700" on="1"/>
        <pt x="597" y="700" on="0"/>
      </contour>
      <contour>
        <pt x="312" y="325" on="1"/>
        <pt x="312" y="50" on="1"/>
        <pt x="389" y="50" on="1"/>
        <pt x="483" y="50" on="0"/>
        <pt x="593" y="209" on="0"/>
        <pt x="593" y="491" on="0"/>
        <pt x="483" y="650" on="0"/>
        <pt x="389" y="650" on="1"/>
        <pt x="312" y="650" on="1"/>
        <pt x="312" y="375" on="1"/>
        <pt x="420" y="375" on="1"/>
        <pt x="420" y="325" on="1"/>
      </contour>
    </TTGlyph>
    <TTGlyph name="Euro" xMin="-40" yMin="-14" xMax="677" yMax="714">
      <contour>
        <pt x="447" y="-13" on="1"/>
        <pt x="305" y="-13" on="0"/>
        <pt x="107" y="139" on="0"/>
        <pt x="79" y="264" on="1"/>
        <pt x="-40" y="264" on="1"/>
        <pt x="-21" y="314" on="1"/>
        <pt x="71" y="314" on="1"/>
        <pt x="68" y="349" on="0"/>
        <pt x="71" y="384" on="1"/>
        <pt x="-40" y="384" on="1"/>
        <pt x="-22" y="434" on="1"/>
        <pt x="78" y="434" on="1"/>
        <pt x="96" y="516" on="0"/>
        <pt x="195" y="642" on="0"/>
        <pt x="353" y="714" on="0"/>
        <pt x="517" y="714" on="0"/>
        <pt x="653" y="684" on="0"/>
        <pt x="676" y="655" on="1"/>
        <pt x="623" y="500" on="1"/>
        <pt x="613" y="500" on="1"/>
        <pt x="614" y="505" on="0"/>
        <pt x="614" y="549" on="0"/>
        <pt x="590" y="612" on="0"/>
        <pt x="568" y="630" on="1"/>
        <pt x="525" y="664" on="0"/>
        <pt x="467" y="664" on="1"/>
        <pt x="313" y="664" on="0"/>
        <pt x="289" y="434" on="1"/>
        <pt x="601" y="434" on="1"/>
        <pt x="583" y="384" on="1"/>
        <pt x="285" y="384" on="1"/>
        <pt x="285" y="351" on="1"/>
        <pt x="285" y="332" on="0"/>
        <pt x="285" y="314" on="1"/>
        <pt x="560" y="314" on="1"/>
        <pt x="544" y="264" on="1"/>
        <pt x="289" y="264" on="1"/>
        <pt x="314" y="37" on="0"/>
        <pt x="481" y="37" on="1"/>
        <pt x="554" y="37" on="0"/>
        <pt x="642" y="124" on="0"/>
        <pt x="667" y="214" on="1"/>
        <pt x="676" y="214" on="1"/>
        <pt x="676" y="49" on="1"/>
        <pt x="647" y="19" on="0"/>
        <pt x="513" y="-13" on="0"/>
      </contour>
    </TTGlyph>
    <TTGlyph name="F" xMin="29" yMin="-1" xMax="592" yMax="719">
      <contour>
        <pt x="312" y="649" on="1"/>
        <pt x="312" y="370" on="1"/>
        <pt x="421" y="370" on="1"/>
        <pt x="469" y="371" on="0"/>
        <pt x="529" y="432" on="0"/>
        <pt x="529" y="479" on="1"/>
        <pt x="529" y="484" on="1"/>
        <pt x="539" y="484" on="1"/>
        <pt x="539" y="206" on="1"/>
        <pt x="529" y="206" on="1"/>
        <pt x="529" y="211" on="1"/>
        <pt x="529" y="258" on="0"/>
        <pt x="469" y="319" on="0"/>
        <pt x="422" y="320" on="1"/>
        <pt x="312" y="320" on="1"/>
        <pt x="312" y="73" on="1"/>
        <pt x="312" y="47" on="0"/>
        <pt x="350" y="10" on="0"/>
        <pt x="376" y="10" on="1"/>
        <pt x="389" y="10" on="1"/>
        <pt x="389" y="0" on="1"/>
        <pt x="30" y="0" on="1"/>
        <pt x="30" y="10" on="1"/>
        <pt x="43" y="10" on="1"/>
        <pt x="69" y="10" on="0"/>
        <pt x="106" y="47" on="0"/>
        <pt x="107" y="73" on="1"/>
        <pt x="107" y="627" on="1"/>
        <pt x="106" y="653" on="0"/>
        <pt x="69" y="690" on="0"/>
        <pt x="43" y="690" on="1"/>
        <pt x="30" y="690" on="1"/>
        <pt x="30" y="700" on="1"/>
        <pt x="473" y="700" on="1"/>
        <pt x="516" y="700" on="0"/>
        <pt x="582" y="714" on="0"/>
        <pt x="592" y="718" on="1"/>
        <pt x="592" y="512" on="1"/>
        <pt x="582" y="512" on="1"/>
        <pt x="582" y="520" on="1"/>
        <pt x="582" y="600" on="0"/>
        <pt x="524" y="632" on="1"/>
        <pt x="496" y="648" on="0"/>
        <pt x="457" y="649" on="1"/>
      </contour>
    </TTGlyph>
    <TTGlyph name="G" xMin="34" yMin="-14" xMax="849" yMax="715">
      <contour>
        <pt x="425" y="-14" on="1"/>
        <pt x="246" y="-14" on="0"/>
        <pt x="35" y="181" on="0"/>
        <pt x="35" y="522" on="0"/>
        <pt x="247" y="714" on="0"/>
        <pt x="435" y="714" on="1"/>
        <pt x="516" y="714" on="0"/>
        <pt x="688" y="687" on="0"/>
        <pt x="733" y="668" on="1"/>
        <pt x="723" y="477" on="1"/>
        <pt x="714" y="477" on="1"/>
        <pt x="662" y="664" on="0"/>
        <pt x="485" y="664" on="1"/>
        <pt x="255" y="664" on="0"/>
        <pt x="255" y="342" on="1"/>
        <pt x="255" y="196" on="0"/>
        <pt x="350" y="36" on="0"/>
        <pt x="447" y="36" on="1"/>
        <pt x="500" y="36" on="0"/>
        <pt x="579" y="93" on="0"/>
        <pt x="579" y="143" on="1"/>
        <pt x="580" y="280" on="1"/>
        <pt x="580" y="302" on="0"/>
        <pt x="553" y="325" on="0"/>
        <pt x="529" y="325" on="1"/>
        <pt x="513" y="325" on="1"/>
        <pt x="513" y="335" on="1"/>
        <pt x="849" y="335" on="1"/>
        <pt x="849" y="325" on="1"/>
        <pt x="834" y="325" on="1"/>
        <pt x="809" y="325" on="0"/>
        <pt x="783" y="302" on="0"/>
        <pt x="784" y="280" on="1"/>
        <pt x="784" y="115" on="1"/>
        <pt x="728" y="44" on="0"/>
        <pt x="581" y="6" on="1"/>
        <pt x="505" y="-14" on="0"/>
      </contour>
    </TTGlyph>
    <TTGlyph name="Gbreve" xMin="34" yMin="-14" xMax="849" yMax="928">
      <contour>
        <pt x="569" y="897" on="1"/>
        <pt x="569" y="851" on="0"/>
        <pt x="536" y="814" on="1"/>
        <pt x="493" y="764" on="0"/>
        <pt x="358" y="764" on="0"/>
        <pt x="315" y="814" on="1"/>
        <pt x="283" y="852" on="0"/>
        <pt x="283" y="897" on="1"/>
        <pt x="283" y="912" on="0"/>
        <pt x="286" y="928" on="1"/>
        <pt x="299" y="928" on="1"/>
        <pt x="311" y="900" on="0"/>
        <pt x="382" y="864" on="0"/>
        <pt x="469" y="864" on="0"/>
        <pt x="541" y="900" on="0"/>
        <pt x="553" y="928" on="1"/>
        <pt x="566" y="928" on="1"/>
        <pt x="569" y="912" on="0"/>
      </contour>
      <contour>
        <pt x="425" y="-14" on="1"/>
        <pt x="246" y="-14" on="0"/>
        <pt x="35" y="181" on="0"/>
        <pt x="35" y="522" on="0"/>
        <pt x="247" y="714" on="0"/>
        <pt x="435" y="714" on="1"/>
        <pt x="516" y="714" on="0"/>
        <pt x="688" y="687" on="0"/>
        <pt x="733" y="668" on="1"/>
        <pt x="723" y="477" on="1"/>
        <pt x="714" y="477" on="1"/>
        <pt x="662" y="664" on="0"/>
        <pt x="485" y="664" on="1"/>
        <pt x="255" y="664" on="0"/>
        <pt x="255" y="342" on="1"/>
        <pt x="255" y="196" on="0"/>
        <pt x="350" y="36" on="0"/>
        <pt x="447" y="36" on="1"/>
        <pt x="500" y="36" on="0"/>
        <pt x="579" y="93" on="0"/>
        <pt x="579" y="143" on="1"/>
        <pt x="580" y="280" on="1"/>
        <pt x="580" y="302" on="0"/>
        <pt x="553" y="325" on="0"/>
        <pt x="529" y="325" on="1"/>
        <pt x="513" y="325" on="1"/>
        <pt x="513" y="335" on="1"/>
        <pt x="849" y="335" on="1"/>
        <pt x="849" y="325" on="1"/>
        <pt x="834" y="325" on="1"/>
        <pt x="809" y="325" on="0"/>
        <pt x="783" y="302" on="0"/>
        <pt x="784" y="280" on="1"/>
        <pt x="784" y="115" on="1"/>
        <pt x="728" y="44" on="0"/>
        <pt x="581" y="6" on="1"/>
        <pt x="505" y="-14" on="0"/>
      </contour>
    </TTGlyph>
    <TTGlyph name="Gcommaaccent" xMin="34" yMin="-275" xMax="849" yMax="715">
      <contour>
        <pt x="425" y="-14" on="1"/>
        <pt x="246" y="-14" on="0"/>
        <pt x="35" y="181" on="0"/>
        <pt x="35" y="522" on="0"/>
        <pt x="247" y="714" on="0"/>
        <pt x="435" y="714" on="1"/>
        <pt x="516" y="714" on="0"/>
        <pt x="688" y="687" on="0"/>
        <pt x="733" y="668" on="1"/>
        <pt x="723" y="477" on="1"/>
        <pt x="714" y="477" on="1"/>
        <pt x="662" y="664" on="0"/>
        <pt x="485" y="664" on="1"/>
        <pt x="255" y="664" on="0"/>
        <pt x="255" y="342" on="1"/>
        <pt x="255" y="196" on="0"/>
        <pt x="350" y="36" on="0"/>
        <pt x="447" y="36" on="1"/>
        <pt x="500" y="36" on="0"/>
        <pt x="579" y="93" on="0"/>
        <pt x="579" y="143" on="1"/>
        <pt x="580" y="280" on="1"/>
        <pt x="580" y="302" on="0"/>
        <pt x="553" y="325" on="0"/>
        <pt x="529" y="325" on="1"/>
        <pt x="513" y="325" on="1"/>
        <pt x="513" y="335" on="1"/>
        <pt x="849" y="335" on="1"/>
        <pt x="849" y="325" on="1"/>
        <pt x="834" y="325" on="1"/>
        <pt x="809" y="325" on="0"/>
        <pt x="783" y="302" on="0"/>
        <pt x="784" y="280" on="1"/>
        <pt x="784" y="115" on="1"/>
        <pt x="728" y="44" on="0"/>
        <pt x="581" y="6" on="1"/>
        <pt x="505" y="-14" on="0"/>
      </contour>
      <contour>
        <pt x="383" y="-264" on="1"/>
        <pt x="415" y="-250" on="0"/>
        <pt x="415" y="-195" on="0"/>
        <pt x="379" y="-154" on="0"/>
        <pt x="379" y="-128" on="1"/>
        <pt x="379" y="-93" on="0"/>
        <pt x="402" y="-76" on="1"/>
        <pt x="418" y="-64" on="0"/>
        <pt x="433" y="-64" on="1"/>
        <pt x="484" y="-64" on="0"/>
        <pt x="503" y="-105" on="1"/>
        <pt x="514" y="-128" on="0"/>
        <pt x="514" y="-160" on="0"/>
        <pt x="507" y="-201" on="0"/>
        <pt x="474" y="-252" on="0"/>
        <pt x="426" y="-275" on="0"/>
        <pt x="395" y="-275" on="0"/>
        <pt x="386" y="-273" on="1"/>
      </contour>
    </TTGlyph>
    <TTGlyph name="Gdotaccent" xMin="34" yMin="-14" xMax="849" yMax="912">
      <contour>
        <pt x="457" y="764" on="0"/>
        <pt x="395" y="764" on="0"/>
        <pt x="352" y="807" on="0"/>
        <pt x="352" y="868" on="0"/>
        <pt x="395" y="911" on="0"/>
        <pt x="457" y="911" on="0"/>
        <pt x="500" y="868" on="0"/>
        <pt x="500" y="807" on="0"/>
      </contour>
      <contour>
        <pt x="425" y="-14" on="1"/>
        <pt x="246" y="-14" on="0"/>
        <pt x="35" y="181" on="0"/>
        <pt x="35" y="522" on="0"/>
        <pt x="247" y="714" on="0"/>
        <pt x="435" y="714" on="1"/>
        <pt x="516" y="714" on="0"/>
        <pt x="688" y="687" on="0"/>
        <pt x="733" y="668" on="1"/>
        <pt x="723" y="477" on="1"/>
        <pt x="714" y="477" on="1"/>
        <pt x="662" y="664" on="0"/>
        <pt x="485" y="664" on="1"/>
        <pt x="255" y="664" on="0"/>
        <pt x="255" y="342" on="1"/>
        <pt x="255" y="196" on="0"/>
        <pt x="350" y="36" on="0"/>
        <pt x="447" y="36" on="1"/>
        <pt x="500" y="36" on="0"/>
        <pt x="579" y="93" on="0"/>
        <pt x="579" y="143" on="1"/>
        <pt x="580" y="280" on="1"/>
        <pt x="580" y="302" on="0"/>
        <pt x="553" y="325" on="0"/>
        <pt x="529" y="325" on="1"/>
        <pt x="513" y="325" on="1"/>
        <pt x="513" y="335" on="1"/>
        <pt x="849" y="335" on="1"/>
        <pt x="849" y="325" on="1"/>
        <pt x="834" y="325" on="1"/>
        <pt x="809" y="325" on="0"/>
        <pt x="783" y="302" on="0"/>
        <pt x="784" y="280" on="1"/>
        <pt x="784" y="115" on="1"/>
        <pt x="728" y="44" on="0"/>
        <pt x="581" y="6" on="1"/>
        <pt x="505" y="-14" on="0"/>
      </contour>
    </TTGlyph>
    <TTGlyph name="H" xMin="29" yMin="-1" xMax="864" yMax="701">
      <contour>
        <pt x="517" y="10" on="1"/>
        <pt x="543" y="10" on="0"/>
        <pt x="580" y="46" on="0"/>
        <pt x="581" y="72" on="1"/>
        <pt x="581" y="325" on="1"/>
        <pt x="312" y="325" on="1"/>
        <pt x="312" y="73" on="1"/>
        <pt x="313" y="36" on="0"/>
        <pt x="344" y="18" on="1"/>
        <pt x="359" y="10" on="0"/>
        <pt x="376" y="10" on="1"/>
        <pt x="389" y="10" on="1"/>
        <pt x="389" y="0" on="1"/>
        <pt x="30" y="0" on="1"/>
        <pt x="30" y="10" on="1"/>
        <pt x="43" y="10" on="1"/>
        <pt x="69" y="10" on="0"/>
        <pt x="106" y="47" on="0"/>
        <pt x="107" y="73" on="1"/>
        <pt x="107" y="628" on="1"/>
        <pt x="106" y="654" on="0"/>
        <pt x="69" y="690" on="0"/>
        <pt x="43" y="690" on="1"/>
        <pt x="30" y="690" on="1"/>
        <pt x="30" y="700" on="1"/>
        <pt x="389" y="700" on="1"/>
        <pt x="389" y="690" on="1"/>
        <pt x="376" y="690" on="1"/>
        <pt x="350" y="690" on="0"/>
        <pt x="313" y="654" on="0"/>
        <pt x="312" y="628" on="1"/>
        <pt x="312" y="375" on="1"/>
        <pt x="581" y="375" on="1"/>
        <pt x="581" y="628" on="1"/>
        <pt x="580" y="654" on="0"/>
        <pt x="543" y="690" on="0"/>
        <pt x="517" y="690" on="1"/>
        <pt x="504" y="690" on="1"/>
        <pt x="504" y="700" on="1"/>
        <pt x="863" y="700" on="1"/>
        <pt x="863" y="690" on="1"/>
        <pt x="850" y="690" on="1"/>
        <pt x="814" y="690" on="0"/>
        <pt x="795" y="659" on="1"/>
        <pt x="787" y="644" on="0"/>
        <pt x="786" y="627" on="1"/>
        <pt x="786" y="73" on="1"/>
        <pt x="787" y="47" on="0"/>
        <pt x="824" y="10" on="0"/>
        <pt x="850" y="10" on="1"/>
        <pt x="863" y="10" on="1"/>
        <pt x="863" y="0" on="1"/>
        <pt x="504" y="0" on="1"/>
        <pt x="504" y="10" on="1"/>
      </contour>
    </TTGlyph>
    <TTGlyph name="Hbar" xMin="29" yMin="-1" xMax="864" yMax="701">
      <contour>
        <pt x="517" y="10" on="1"/>
        <pt x="543" y="10" on="0"/>
        <pt x="580" y="46" on="0"/>
        <pt x="581" y="72" on="1"/>
        <pt x="581" y="325" on="1"/>
        <pt x="312" y="325" on="1"/>
        <pt x="312" y="73" on="1"/>
        <pt x="313" y="36" on="0"/>
        <pt x="344" y="18" on="1"/>
        <pt x="359" y="10" on="0"/>
        <pt x="376" y="10" on="1"/>
        <pt x="389" y="10" on="1"/>
        <pt x="389" y="0" on="1"/>
        <pt x="30" y="0" on="1"/>
        <pt x="30" y="10" on="1"/>
        <pt x="43" y="10" on="1"/>
        <pt x="69" y="10" on="0"/>
        <pt x="106" y="47" on="0"/>
        <pt x="107" y="73" on="1"/>
        <pt x="107" y="488" on="1"/>
        <pt x="42" y="488" on="1"/>
        <pt x="42" y="538" on="1"/>
        <pt x="107" y="538" on="1"/>
        <pt x="107" y="628" on="1"/>
        <pt x="106" y="654" on="0"/>
        <pt x="69" y="690" on="0"/>
        <pt x="43" y="690" on="1"/>
        <pt x="30" y="690" on="1"/>
        <pt x="30" y="700" on="1"/>
        <pt x="389" y="700" on="1"/>
        <pt x="389" y="690" on="1"/>
        <pt x="376" y="690" on="1"/>
        <pt x="350" y="690" on="0"/>
        <pt x="313" y="654" on="0"/>
        <pt x="312" y="628" on="1"/>
        <pt x="312" y="538" on="1"/>
        <pt x="581" y="538" on="1"/>
        <pt x="581" y="628" on="1"/>
        <pt x="580" y="654" on="0"/>
        <pt x="543" y="690" on="0"/>
        <pt x="517" y="690" on="1"/>
        <pt x="504" y="690" on="1"/>
        <pt x="504" y="700" on="1"/>
        <pt x="863" y="700" on="1"/>
        <pt x="863" y="690" on="1"/>
        <pt x="850" y="690" on="1"/>
        <pt x="814" y="690" on="0"/>
        <pt x="795" y="659" on="1"/>
        <pt x="787" y="644" on="0"/>
        <pt x="786" y="627" on="1"/>
        <pt x="786" y="538" on="1"/>
        <pt x="853" y="538" on="1"/>
        <pt x="853" y="488" on="1"/>
        <pt x="786" y="488" on="1"/>
        <pt x="786" y="73" on="1"/>
        <pt x="787" y="47" on="0"/>
        <pt x="824" y="10" on="0"/>
        <pt x="850" y="10" on="1"/>
        <pt x="863" y="10" on="1"/>
        <pt x="863" y="0" on="1"/>
        <pt x="504" y="0" on="1"/>
        <pt x="504" y="10" on="1"/>
      </contour>
      <contour>
        <pt x="312" y="375" on="1"/>
        <pt x="581" y="375" on="1"/>
        <pt x="581" y="488" on="1"/>
        <pt x="312" y="488" on="1"/>
      </contour>
    </TTGlyph>
    <TTGlyph name="I" xMin="29" yMin="0" xMax="389" yMax="701">
      <contour>
        <pt x="43" y="10" on="1"/>
        <pt x="69" y="10" on="0"/>
        <pt x="106" y="47" on="0"/>
        <pt x="107" y="73" on="1"/>
        <pt x="107" y="628" on="1"/>
        <pt x="106" y="654" on="0"/>
        <pt x="69" y="690" on="0"/>
        <pt x="43" y="690" on="1"/>
        <pt x="30" y="690" on="1"/>
        <pt x="30" y="700" on="1"/>
        <pt x="389" y="700" on="1"/>
        <pt x="389" y="690" on="1"/>
        <pt x="376" y="690" on="1"/>
        <pt x="350" y="690" on="0"/>
        <pt x="313" y="654" on="0"/>
        <pt x="312" y="628" on="1"/>
        <pt x="312" y="73" on="1"/>
        <pt x="312" y="47" on="0"/>
        <pt x="350" y="10" on="0"/>
        <pt x="376" y="10" on="1"/>
        <pt x="389" y="10" on="1"/>
        <pt x="389" y="0" on="1"/>
        <pt x="30" y="0" on="1"/>
        <pt x="30" y="10" on="1"/>
      </contour>
    </TTGlyph>
    <TTGlyph name="IJ" xMin="29" yMin="-203" xMax="813" yMax="701">
      <contour>
        <pt x="799" y="690" on="1"/>
        <pt x="763" y="690" on="0"/>
        <pt x="744" y="659" on="1"/>
        <pt x="736" y="645" on="0"/>
        <pt x="735" y="627" on="1"/>
        <pt x="735" y="50" on="1"/>
        <pt x="735" y="-32" on="0"/>
        <pt x="642" y="-156" on="0"/>
        <pt x="568" y="-183" on="1"/>
        <pt x="515" y="-203" on="0"/>
        <pt x="458" y="-203" on="1"/>
        <pt x="436" y="-203" on="0"/>
        <pt x="413" y="-200" on="1"/>
        <pt x="413" y="-191" on="1"/>
        <pt x="530" y="-138" on="0"/>
        <pt x="530" y="53" on="1"/>
        <pt x="530" y="627" on="1"/>
        <pt x="529" y="653" on="0"/>
        <pt x="492" y="690" on="0"/>
        <pt x="466" y="690" on="1"/>
        <pt x="453" y="690" on="1"/>
        <pt x="453" y="700" on="1"/>
        <pt x="812" y="700" on="1"/>
        <pt x="812" y="690" on="1"/>
      </contour>
      <contour>
        <pt x="43" y="10" on="1"/>
        <pt x="69" y="10" on="0"/>
        <pt x="106" y="47" on="0"/>
        <pt x="107" y="73" on="1"/>
        <pt x="107" y="628" on="1"/>
        <pt x="106" y="654" on="0"/>
        <pt x="69" y="690" on="0"/>
        <pt x="43" y="690" on="1"/>
        <pt x="30" y="690" on="1"/>
        <pt x="30" y="700" on="1"/>
        <pt x="389" y="700" on="1"/>
        <pt x="389" y="690" on="1"/>
        <pt x="376" y="690" on="1"/>
        <pt x="350" y="690" on="0"/>
        <pt x="313" y="654" on="0"/>
        <pt x="312" y="628" on="1"/>
        <pt x="312" y="73" on="1"/>
        <pt x="313" y="36" on="0"/>
        <pt x="344" y="18" on="1"/>
        <pt x="359" y="10" on="0"/>
        <pt x="376" y="10" on="1"/>
        <pt x="389" y="10" on="1"/>
        <pt x="389" y="0" on="1"/>
        <pt x="30" y="0" on="1"/>
        <pt x="30" y="10" on="1"/>
      </contour>
    </TTGlyph>
    <TTGlyph name="Iacute" xMin="30" yMin="0" xMax="425" yMax="954">
      <contour>
        <pt x="191" y="761" on="1"/>
        <pt x="184" y="768" on="1"/>
        <pt x="213" y="836" on="0"/>
        <pt x="309" y="926" on="1"/>
        <pt x="325" y="941" on="0"/>
        <pt x="339" y="954" on="1"/>
        <pt x="403" y="927" on="0"/>
        <pt x="424" y="854" on="1"/>
        <pt x="374" y="821" on="0"/>
        <pt x="244" y="767" on="0"/>
      </contour>
      <contour>
        <pt x="43" y="10" on="1"/>
        <pt x="69" y="10" on="0"/>
        <pt x="106" y="47" on="0"/>
        <pt x="107" y="73" on="1"/>
        <pt x="107" y="628" on="1"/>
        <pt x="106" y="654" on="0"/>
        <pt x="69" y="690" on="0"/>
        <pt x="43" y="690" on="1"/>
        <pt x="30" y="690" on="1"/>
        <pt x="30" y="700" on="1"/>
        <pt x="389" y="700" on="1"/>
        <pt x="389" y="690" on="1"/>
        <pt x="376" y="690" on="1"/>
        <pt x="350" y="690" on="0"/>
        <pt x="313" y="654" on="0"/>
        <pt x="312" y="628" on="1"/>
        <pt x="312" y="73" on="1"/>
        <pt x="312" y="47" on="0"/>
        <pt x="350" y="10" on="0"/>
        <pt x="376" y="10" on="1"/>
        <pt x="389" y="10" on="1"/>
        <pt x="389" y="0" on="1"/>
        <pt x="30" y="0" on="1"/>
        <pt x="30" y="10" on="1"/>
      </contour>
    </TTGlyph>
    <TTGlyph name="Icircumflex" xMin="29" yMin="0" xMax="392" yMax="932">
      <contour>
        <pt x="201" y="932" on="1"/>
        <pt x="213" y="932" on="1"/>
        <pt x="391" y="756" on="1"/>
        <pt x="384" y="748" on="1"/>
        <pt x="206" y="813" on="1"/>
        <pt x="39" y="748" on="1"/>
        <pt x="32" y="756" on="1"/>
      </contour>
      <contour>
        <pt x="43" y="10" on="1"/>
        <pt x="69" y="10" on="0"/>
        <pt x="106" y="47" on="0"/>
        <pt x="107" y="73" on="1"/>
        <pt x="107" y="628" on="1"/>
        <pt x="106" y="654" on="0"/>
        <pt x="69" y="690" on="0"/>
        <pt x="43" y="690" on="1"/>
        <pt x="30" y="690" on="1"/>
        <pt x="30" y="700" on="1"/>
        <pt x="389" y="700" on="1"/>
        <pt x="389" y="690" on="1"/>
        <pt x="376" y="690" on="1"/>
        <pt x="350" y="690" on="0"/>
        <pt x="313" y="654" on="0"/>
        <pt x="312" y="628" on="1"/>
        <pt x="312" y="73" on="1"/>
        <pt x="312" y="47" on="0"/>
        <pt x="350" y="10" on="0"/>
        <pt x="376" y="10" on="1"/>
        <pt x="389" y="10" on="1"/>
        <pt x="389" y="0" on="1"/>
        <pt x="30" y="0" on="1"/>
        <pt x="30" y="10" on="1"/>
      </contour>
    </TTGlyph>
    <TTGlyph name="Idieresis" xMin="-1" yMin="0" xMax="410" yMax="903">
      <contour>
        <pt x="104" y="755" on="0"/>
        <pt x="43" y="755" on="0"/>
        <pt x="0" y="799" on="0"/>
        <pt x="0" y="860" on="0"/>
        <pt x="43" y="903" on="0"/>
        <pt x="104" y="903" on="0"/>
        <pt x="147" y="860" on="0"/>
        <pt x="147" y="799" on="0"/>
      </contour>
      <contour>
        <pt x="367" y="755" on="0"/>
        <pt x="306" y="755" on="0"/>
        <pt x="262" y="799" on="0"/>
        <pt x="262" y="860" on="0"/>
        <pt x="306" y="903" on="0"/>
        <pt x="367" y="903" on="0"/>
        <pt x="410" y="860" on="0"/>
        <pt x="410" y="799" on="0"/>
      </contour>
      <contour>
        <pt x="43" y="10" on="1"/>
        <pt x="69" y="10" on="0"/>
        <pt x="106" y="47" on="0"/>
        <pt x="107" y="73" on="1"/>
        <pt x="107" y="628" on="1"/>
        <pt x="106" y="654" on="0"/>
        <pt x="69" y="690" on="0"/>
        <pt x="43" y="690" on="1"/>
        <pt x="30" y="690" on="1"/>
        <pt x="30" y="700" on="1"/>
        <pt x="389" y="700" on="1"/>
        <pt x="389" y="690" on="1"/>
        <pt x="376" y="690" on="1"/>
        <pt x="350" y="690" on="0"/>
        <pt x="313" y="654" on="0"/>
        <pt x="312" y="628" on="1"/>
        <pt x="312" y="73" on="1"/>
        <pt x="312" y="47" on="0"/>
        <pt x="350" y="10" on="0"/>
        <pt x="376" y="10" on="1"/>
        <pt x="389" y="10" on="1"/>
        <pt x="389" y="0" on="1"/>
        <pt x="30" y="0" on="1"/>
        <pt x="30" y="10" on="1"/>
      </contour>
    </TTGlyph>
    <TTGlyph name="Idotaccent" xMin="29" yMin="0" xMax="389" yMax="912">
      <contour>
        <pt x="239" y="764" on="0"/>
        <pt x="178" y="764" on="0"/>
        <pt x="135" y="807" on="0"/>
        <pt x="135" y="868" on="0"/>
        <pt x="178" y="911" on="0"/>
        <pt x="239" y="911" on="0"/>
        <pt x="282" y="868" on="0"/>
        <pt x="282" y="807" on="0"/>
      </contour>
      <contour>
        <pt x="43" y="10" on="1"/>
        <pt x="69" y="10" on="0"/>
        <pt x="106" y="47" on="0"/>
        <pt x="107" y="73" on="1"/>
        <pt x="107" y="628" on="1"/>
        <pt x="106" y="654" on="0"/>
        <pt x="69" y="690" on="0"/>
        <pt x="43" y="690" on="1"/>
        <pt x="30" y="690" on="1"/>
        <pt x="30" y="700" on="1"/>
        <pt x="389" y="700" on="1"/>
        <pt x="389" y="690" on="1"/>
        <pt x="376" y="690" on="1"/>
        <pt x="350" y="690" on="0"/>
        <pt x="313" y="654" on="0"/>
        <pt x="312" y="628" on="1"/>
        <pt x="312" y="73" on="1"/>
        <pt x="312" y="47" on="0"/>
        <pt x="350" y="10" on="0"/>
        <pt x="376" y="10" on="1"/>
        <pt x="389" y="10" on="1"/>
        <pt x="389" y="0" on="1"/>
        <pt x="30" y="0" on="1"/>
        <pt x="30" y="10" on="1"/>
      </contour>
    </TTGlyph>
    <TTGlyph name="Igrave" xMin="5" yMin="-1" xMax="389" yMax="957">
      <contour>
        <pt x="245" y="771" on="1"/>
        <pt x="238" y="764" on="1"/>
        <pt x="185" y="770" on="0"/>
        <pt x="55" y="824" on="0"/>
        <pt x="5" y="857" on="1"/>
        <pt x="26" y="930" on="0"/>
        <pt x="90" y="957" on="1"/>
        <pt x="134" y="920" on="0"/>
        <pt x="226" y="815" on="0"/>
      </contour>
      <contour>
        <pt x="43" y="10" on="1"/>
        <pt x="69" y="10" on="0"/>
        <pt x="106" y="47" on="0"/>
        <pt x="107" y="73" on="1"/>
        <pt x="107" y="628" on="1"/>
        <pt x="106" y="654" on="0"/>
        <pt x="69" y="690" on="0"/>
        <pt x="43" y="690" on="1"/>
        <pt x="30" y="690" on="1"/>
        <pt x="30" y="700" on="1"/>
        <pt x="389" y="700" on="1"/>
        <pt x="389" y="690" on="1"/>
        <pt x="376" y="690" on="1"/>
        <pt x="350" y="690" on="0"/>
        <pt x="313" y="654" on="0"/>
        <pt x="312" y="628" on="1"/>
        <pt x="312" y="73" on="1"/>
        <pt x="312" y="47" on="0"/>
        <pt x="350" y="10" on="0"/>
        <pt x="376" y="10" on="1"/>
        <pt x="389" y="10" on="1"/>
        <pt x="389" y="0" on="1"/>
        <pt x="30" y="0" on="1"/>
        <pt x="30" y="10" on="1"/>
      </contour>
    </TTGlyph>
    <TTGlyph name="Imacron" xMin="29" yMin="0" xMax="389" yMax="881">
      <contour>
        <pt x="66" y="795" on="1"/>
        <pt x="66" y="880" on="1"/>
        <pt x="356" y="880" on="1"/>
        <pt x="356" y="795" on="1"/>
      </contour>
      <contour>
        <pt x="43" y="10" on="1"/>
        <pt x="69" y="10" on="0"/>
        <pt x="106" y="47" on="0"/>
        <pt x="107" y="73" on="1"/>
        <pt x="107" y="628" on="1"/>
        <pt x="106" y="654" on="0"/>
        <pt x="69" y="690" on="0"/>
        <pt x="43" y="690" on="1"/>
        <pt x="30" y="690" on="1"/>
        <pt x="30" y="700" on="1"/>
        <pt x="389" y="700" on="1"/>
        <pt x="389" y="690" on="1"/>
        <pt x="376" y="690" on="1"/>
        <pt x="350" y="690" on="0"/>
        <pt x="313" y="654" on="0"/>
        <pt x="312" y="628" on="1"/>
        <pt x="312" y="73" on="1"/>
        <pt x="312" y="47" on="0"/>
        <pt x="350" y="10" on="0"/>
        <pt x="376" y="10" on="1"/>
        <pt x="389" y="10" on="1"/>
        <pt x="389" y="0" on="1"/>
        <pt x="30" y="0" on="1"/>
        <pt x="30" y="10" on="1"/>
      </contour>
    </TTGlyph>
    <TTGlyph name="Iogonek" xMin="29" yMin="-216" xMax="389" yMax="701">
      <contour>
        <pt x="259" y="-143" on="1"/>
        <pt x="277" y="-143" on="0"/>
        <pt x="303" y="-122" on="1"/>
        <pt x="309" y="-128" on="1"/>
        <pt x="305" y="-192" on="0"/>
        <pt x="248" y="-210" on="1"/>
        <pt x="231" y="-215" on="0"/>
        <pt x="180" y="-215" on="0"/>
        <pt x="148" y="-193" on="1"/>
        <pt x="104" y="-162" on="0"/>
        <pt x="104" y="-110" on="1"/>
        <pt x="104" y="-71" on="0"/>
        <pt x="121" y="-47" on="1"/>
        <pt x="151" y="-8" on="0"/>
        <pt x="202" y="0" on="1"/>
        <pt x="30" y="0" on="1"/>
        <pt x="30" y="10" on="1"/>
        <pt x="43" y="10" on="1"/>
        <pt x="69" y="10" on="0"/>
        <pt x="106" y="47" on="0"/>
        <pt x="107" y="73" on="1"/>
        <pt x="107" y="628" on="1"/>
        <pt x="106" y="654" on="0"/>
        <pt x="69" y="690" on="0"/>
        <pt x="43" y="690" on="1"/>
        <pt x="30" y="690" on="1"/>
        <pt x="30" y="700" on="1"/>
        <pt x="389" y="700" on="1"/>
        <pt x="389" y="690" on="1"/>
        <pt x="376" y="690" on="1"/>
        <pt x="350" y="690" on="0"/>
        <pt x="313" y="654" on="0"/>
        <pt x="312" y="628" on="1"/>
        <pt x="312" y="73" on="1"/>
        <pt x="312" y="47" on="0"/>
        <pt x="350" y="10" on="0"/>
        <pt x="376" y="10" on="1"/>
        <pt x="389" y="10" on="1"/>
        <pt x="389" y="0" on="1"/>
        <pt x="250" y="0" on="1"/>
        <pt x="256" y="-2" on="1"/>
        <pt x="191" y="-16" on="0"/>
        <pt x="191" y="-70" on="1"/>
        <pt x="191" y="-143" on="0"/>
      </contour>
    </TTGlyph>
    <TTGlyph name="J" xMin="-5" yMin="-203" xMax="395" yMax="701">
      <contour>
        <pt x="381" y="690" on="1"/>
        <pt x="345" y="690" on="0"/>
        <pt x="326" y="659" on="1"/>
        <pt x="318" y="645" on="0"/>
        <pt x="317" y="627" on="1"/>
        <pt x="317" y="50" on="1"/>
        <pt x="317" y="-32" on="0"/>
        <pt x="224" y="-156" on="0"/>
        <pt x="150" y="-183" on="1"/>
        <pt x="97" y="-203" on="0"/>
        <pt x="40" y="-203" on="1"/>
        <pt x="18" y="-203" on="0"/>
        <pt x="-5" y="-200" on="1"/>
        <pt x="-5" y="-191" on="1"/>
        <pt x="112" y="-138" on="0"/>
        <pt x="112" y="53" on="1"/>
        <pt x="112" y="627" on="1"/>
        <pt x="111" y="653" on="0"/>
        <pt x="74" y="690" on="0"/>
        <pt x="48" y="690" on="1"/>
        <pt x="35" y="690" on="1"/>
        <pt x="35" y="700" on="1"/>
        <pt x="394" y="700" on="1"/>
        <pt x="394" y="690" on="1"/>
      </contour>
    </TTGlyph>
    <TTGlyph name="K" xMin="29" yMin="0" xMax="848" yMax="701">
      <contour>
        <pt x="43" y="10" on="1"/>
        <pt x="69" y="10" on="0"/>
        <pt x="106" y="47" on="0"/>
        <pt x="107" y="73" on="1"/>
        <pt x="107" y="628" on="1"/>
        <pt x="106" y="654" on="0"/>
        <pt x="69" y="690" on="0"/>
        <pt x="43" y="690" on="1"/>
        <pt x="30" y="690" on="1"/>
        <pt x="30" y="700" on="1"/>
        <pt x="389" y="700" on="1"/>
        <pt x="389" y="690" on="1"/>
        <pt x="376" y="690" on="1"/>
        <pt x="350" y="690" on="0"/>
        <pt x="313" y="654" on="0"/>
        <pt x="312" y="628" on="1"/>
        <pt x="312" y="73" on="1"/>
        <pt x="312" y="47" on="0"/>
        <pt x="350" y="10" on="0"/>
        <pt x="376" y="10" on="1"/>
        <pt x="389" y="10" on="1"/>
        <pt x="389" y="0" on="1"/>
        <pt x="30" y="0" on="1"/>
        <pt x="30" y="10" on="1"/>
      </contour>
      <contour>
        <pt x="848" y="0" on="1"/>
        <pt x="740" y="0" on="1"/>
        <pt x="556" y="0" on="0"/>
        <pt x="483" y="100" on="1"/>
        <pt x="453" y="140" on="0"/>
        <pt x="344" y="317" on="0"/>
        <pt x="344" y="318" on="1"/>
        <pt x="583" y="644" on="1"/>
        <pt x="590" y="654" on="0"/>
        <pt x="590" y="670" on="0"/>
        <pt x="587" y="676" on="1"/>
        <pt x="580" y="691" on="0"/>
        <pt x="559" y="691" on="1"/>
        <pt x="549" y="691" on="1"/>
        <pt x="549" y="700" on="1"/>
        <pt x="790" y="700" on="1"/>
        <pt x="790" y="691" on="1"/>
        <pt x="786" y="691" on="1"/>
        <pt x="719" y="691" on="0"/>
        <pt x="676" y="642" on="1"/>
        <pt x="507" y="438" on="1"/>
        <pt x="741" y="86" on="1"/>
        <pt x="790" y="12" on="0"/>
        <pt x="848" y="10" on="1"/>
      </contour>
    </TTGlyph>
    <TTGlyph name="Kcommaaccent" xMin="29" yMin="-211" xMax="848" yMax="701">
      <contour>
        <pt x="43" y="10" on="1"/>
        <pt x="69" y="10" on="0"/>
        <pt x="106" y="47" on="0"/>
        <pt x="107" y="73" on="1"/>
        <pt x="107" y="628" on="1"/>
        <pt x="106" y="654" on="0"/>
        <pt x="69" y="690" on="0"/>
        <pt x="43" y="690" on="1"/>
        <pt x="30" y="690" on="1"/>
        <pt x="30" y="700" on="1"/>
        <pt x="389" y="700" on="1"/>
        <pt x="389" y="690" on="1"/>
        <pt x="376" y="690" on="1"/>
        <pt x="350" y="690" on="0"/>
        <pt x="313" y="654" on="0"/>
        <pt x="312" y="628" on="1"/>
        <pt x="312" y="73" on="1"/>
        <pt x="313" y="37" on="0"/>
        <pt x="344" y="18" on="1"/>
        <pt x="359" y="10" on="0"/>
        <pt x="376" y="10" on="1"/>
        <pt x="389" y="10" on="1"/>
        <pt x="389" y="0" on="1"/>
        <pt x="30" y="0" on="1"/>
        <pt x="30" y="10" on="1"/>
      </contour>
      <contour>
        <pt x="848" y="0" on="1"/>
        <pt x="740" y="0" on="1"/>
        <pt x="556" y="0" on="0"/>
        <pt x="483" y="100" on="1"/>
        <pt x="453" y="140" on="0"/>
        <pt x="344" y="317" on="0"/>
        <pt x="344" y="318" on="1"/>
        <pt x="583" y="644" on="1"/>
        <pt x="590" y="654" on="0"/>
        <pt x="590" y="670" on="0"/>
        <pt x="587" y="676" on="1"/>
        <pt x="580" y="691" on="0"/>
        <pt x="559" y="691" on="1"/>
        <pt x="549" y="691" on="1"/>
        <pt x="549" y="700" on="1"/>
        <pt x="790" y="700" on="1"/>
        <pt x="790" y="691" on="1"/>
        <pt x="786" y="691" on="1"/>
        <pt x="719" y="691" on="0"/>
        <pt x="676" y="642" on="1"/>
        <pt x="507" y="438" on="1"/>
        <pt x="741" y="86" on="1"/>
        <pt x="790" y="12" on="0"/>
        <pt x="848" y="10" on="1"/>
      </contour>
      <contour>
        <pt x="409" y="-200" on="1"/>
        <pt x="440" y="-186" on="0"/>
        <pt x="440" y="-131" on="0"/>
        <pt x="404" y="-90" on="0"/>
        <pt x="404" y="-64" on="1"/>
        <pt x="404" y="-29" on="0"/>
        <pt x="428" y="-12" on="1"/>
        <pt x="444" y="0" on="0"/>
        <pt x="458" y="0" on="1"/>
        <pt x="510" y="0" on="0"/>
        <pt x="529" y="-41" on="1"/>
        <pt x="540" y="-64" on="0"/>
        <pt x="540" y="-96" on="0"/>
        <pt x="533" y="-137" on="0"/>
        <pt x="500" y="-188" on="0"/>
        <pt x="451" y="-211" on="0"/>
        <pt x="421" y="-211" on="0"/>
        <pt x="411" y="-209" on="1"/>
      </contour>
    </TTGlyph>
    <TTGlyph name="L" xMin="30" yMin="-1" xMax="653" yMax="701">
      <contour>
        <pt x="43" y="10" on="1"/>
        <pt x="69" y="10" on="0"/>
        <pt x="106" y="47" on="0"/>
        <pt x="107" y="73" on="1"/>
        <pt x="107" y="627" on="1"/>
        <pt x="106" y="664" on="0"/>
        <pt x="75" y="682" on="1"/>
        <pt x="60" y="690" on="0"/>
        <pt x="43" y="690" on="1"/>
        <pt x="30" y="690" on="1"/>
        <pt x="30" y="700" on="1"/>
        <pt x="389" y="700" on="1"/>
        <pt x="389" y="690" on="1"/>
        <pt x="376" y="690" on="1"/>
        <pt x="350" y="690" on="0"/>
        <pt x="312" y="653" on="0"/>
        <pt x="312" y="627" on="1"/>
        <pt x="312" y="51" on="1"/>
        <pt x="435" y="51" on="1"/>
        <pt x="508" y="51" on="0"/>
        <pt x="620" y="147" on="0"/>
        <pt x="643" y="232" on="1"/>
        <pt x="653" y="232" on="1"/>
        <pt x="615" y="0" on="1"/>
        <pt x="30" y="0" on="1"/>
        <pt x="30" y="10" on="1"/>
      </contour>
    </TTGlyph>
    <TTGlyph name="Lacute" xMin="30" yMin="-1" xMax="653" yMax="954">
      <contour>
        <pt x="193" y="761" on="1"/>
        <pt x="186" y="768" on="1"/>
        <pt x="215" y="836" on="0"/>
        <pt x="310" y="926" on="1"/>
        <pt x="326" y="941" on="0"/>
        <pt x="341" y="954" on="1"/>
        <pt x="405" y="927" on="0"/>
        <pt x="426" y="854" on="1"/>
        <pt x="376" y="821" on="0"/>
        <pt x="246" y="767" on="0"/>
      </contour>
      <contour>
        <pt x="43" y="10" on="1"/>
        <pt x="69" y="10" on="0"/>
        <pt x="106" y="47" on="0"/>
        <pt x="107" y="73" on="1"/>
        <pt x="107" y="627" on="1"/>
        <pt x="106" y="653" on="0"/>
        <pt x="69" y="690" on="0"/>
        <pt x="43" y="690" on="1"/>
        <pt x="30" y="690" on="1"/>
        <pt x="30" y="700" on="1"/>
        <pt x="389" y="700" on="1"/>
        <pt x="389" y="690" on="1"/>
        <pt x="376" y="690" on="1"/>
        <pt x="350" y="690" on="0"/>
        <pt x="312" y="653" on="0"/>
        <pt x="312" y="627" on="1"/>
        <pt x="312" y="51" on="1"/>
        <pt x="435" y="51" on="1"/>
        <pt x="508" y="51" on="0"/>
        <pt x="620" y="147" on="0"/>
        <pt x="643" y="232" on="1"/>
        <pt x="653" y="232" on="1"/>
        <pt x="615" y="0" on="1"/>
        <pt x="30" y="0" on="1"/>
        <pt x="30" y="10" on="1"/>
      </contour>
    </TTGlyph>
    <TTGlyph name="Lcaron" xMin="30" yMin="-1" xMax="653" yMax="710">
      <contour>
        <pt x="432" y="509" on="1"/>
        <pt x="463" y="523" on="0"/>
        <pt x="463" y="578" on="0"/>
        <pt x="427" y="619" on="0"/>
        <pt x="427" y="645" on="1"/>
        <pt x="427" y="680" on="0"/>
        <pt x="451" y="697" on="1"/>
        <pt x="467" y="709" on="0"/>
        <pt x="481" y="709" on="1"/>
        <pt x="533" y="709" on="0"/>
        <pt x="552" y="668" on="1"/>
        <pt x="563" y="645" on="0"/>
        <pt x="563" y="613" on="0"/>
        <pt x="556" y="572" on="0"/>
        <pt x="523" y="521" on="0"/>
        <pt x="474" y="498" on="0"/>
        <pt x="444" y="498" on="0"/>
        <pt x="434" y="500" on="1"/>
      </contour>
      <contour>
        <pt x="43" y="10" on="1"/>
        <pt x="69" y="10" on="0"/>
        <pt x="106" y="47" on="0"/>
        <pt x="107" y="73" on="1"/>
        <pt x="107" y="627" on="1"/>
        <pt x="106" y="664" on="0"/>
        <pt x="75" y="682" on="1"/>
        <pt x="60" y="690" on="0"/>
        <pt x="43" y="690" on="1"/>
        <pt x="30" y="690" on="1"/>
        <pt x="30" y="700" on="1"/>
        <pt x="389" y="700" on="1"/>
        <pt x="389" y="690" on="1"/>
        <pt x="376" y="690" on="1"/>
        <pt x="350" y="690" on="0"/>
        <pt x="312" y="653" on="0"/>
        <pt x="312" y="627" on="1"/>
        <pt x="312" y="51" on="1"/>
        <pt x="435" y="51" on="1"/>
        <pt x="508" y="51" on="0"/>
        <pt x="620" y="147" on="0"/>
        <pt x="643" y="232" on="1"/>
        <pt x="653" y="232" on="1"/>
        <pt x="615" y="0" on="1"/>
        <pt x="30" y="0" on="1"/>
        <pt x="30" y="10" on="1"/>
      </contour>
    </TTGlyph>
    <TTGlyph name="Lcommaaccent" xMin="30" yMin="-275" xMax="653" yMax="701">
      <contour>
        <pt x="43" y="10" on="1"/>
        <pt x="69" y="10" on="0"/>
        <pt x="106" y="47" on="0"/>
        <pt x="107" y="73" on="1"/>
        <pt x="107" y="627" on="1"/>
        <pt x="106" y="664" on="0"/>
        <pt x="75" y="682" on="1"/>
        <pt x="60" y="690" on="0"/>
        <pt x="43" y="690" on="1"/>
        <pt x="30" y="690" on="1"/>
        <pt x="30" y="700" on="1"/>
        <pt x="389" y="700" on="1"/>
        <pt x="389" y="690" on="1"/>
        <pt x="376" y="690" on="1"/>
        <pt x="350" y="690" on="0"/>
        <pt x="312" y="653" on="0"/>
        <pt x="312" y="627" on="1"/>
        <pt x="312" y="51" on="1"/>
        <pt x="435" y="51" on="1"/>
        <pt x="508" y="51" on="0"/>
        <pt x="620" y="147" on="0"/>
        <pt x="643" y="232" on="1"/>
        <pt x="653" y="232" on="1"/>
        <pt x="615" y="0" on="1"/>
        <pt x="30" y="0" on="1"/>
        <pt x="30" y="10" on="1"/>
      </contour>
      <contour>
        <pt x="292" y="-264" on="1"/>
        <pt x="324" y="-250" on="0"/>
        <pt x="324" y="-195" on="0"/>
        <pt x="288" y="-154" on="0"/>
        <pt x="288" y="-128" on="1"/>
        <pt x="288" y="-93" on="0"/>
        <pt x="312" y="-76" on="1"/>
        <pt x="328" y="-64" on="0"/>
        <pt x="342" y="-64" on="1"/>
        <pt x="394" y="-64" on="0"/>
        <pt x="413" y="-105" on="1"/>
        <pt x="424" y="-128" on="0"/>
        <pt x="424" y="-160" on="0"/>
        <pt x="417" y="-201" on="0"/>
        <pt x="384" y="-252" on="0"/>
        <pt x="335" y="-275" on="0"/>
        <pt x="305" y="-275" on="0"/>
        <pt x="295" y="-273" on="1"/>
      </contour>
    </TTGlyph>
    <TTGlyph name="Ldot" xMin="30" yMin="-1" xMax="653" yMax="701">
      <contour>
        <pt x="43" y="10" on="1"/>
        <pt x="69" y="10" on="0"/>
        <pt x="106" y="47" on="0"/>
        <pt x="107" y="73" on="1"/>
        <pt x="107" y="627" on="1"/>
        <pt x="106" y="664" on="0"/>
        <pt x="75" y="682" on="1"/>
        <pt x="60" y="690" on="0"/>
        <pt x="43" y="690" on="1"/>
        <pt x="30" y="690" on="1"/>
        <pt x="30" y="700" on="1"/>
        <pt x="389" y="700" on="1"/>
        <pt x="389" y="690" on="1"/>
        <pt x="376" y="690" on="1"/>
        <pt x="350" y="690" on="0"/>
        <pt x="312" y="653" on="0"/>
        <pt x="312" y="627" on="1"/>
        <pt x="312" y="51" on="1"/>
        <pt x="435" y="51" on="1"/>
        <pt x="508" y="51" on="0"/>
        <pt x="620" y="147" on="0"/>
        <pt x="643" y="232" on="1"/>
        <pt x="653" y="232" on="1"/>
        <pt x="615" y="0" on="1"/>
        <pt x="30" y="0" on="1"/>
        <pt x="30" y="10" on="1"/>
      </contour>
      <contour>
        <pt x="499" y="327" on="0"/>
        <pt x="438" y="327" on="0"/>
        <pt x="395" y="371" on="0"/>
        <pt x="395" y="432" on="0"/>
        <pt x="438" y="475" on="0"/>
        <pt x="499" y="475" on="0"/>
        <pt x="542" y="432" on="0"/>
        <pt x="542" y="371" on="0"/>
      </contour>
    </TTGlyph>
    <TTGlyph name="Lslash" xMin="17" yMin="-1" xMax="653" yMax="701">
      <contour>
        <pt x="43" y="10" on="1"/>
        <pt x="69" y="10" on="0"/>
        <pt x="106" y="47" on="0"/>
        <pt x="107" y="73" on="1"/>
        <pt x="107" y="264" on="1"/>
        <pt x="44" y="228" on="1"/>
        <pt x="18" y="274" on="1"/>
        <pt x="107" y="325" on="1"/>
        <pt x="107" y="627" on="1"/>
        <pt x="106" y="664" on="0"/>
        <pt x="75" y="682" on="1"/>
        <pt x="60" y="690" on="0"/>
        <pt x="43" y="690" on="1"/>
        <pt x="30" y="690" on="1"/>
        <pt x="30" y="700" on="1"/>
        <pt x="389" y="700" on="1"/>
        <pt x="389" y="690" on="1"/>
        <pt x="376" y="690" on="1"/>
        <pt x="350" y="690" on="0"/>
        <pt x="312" y="653" on="0"/>
        <pt x="312" y="627" on="1"/>
        <pt x="312" y="444" on="1"/>
        <pt x="389" y="489" on="1"/>
        <pt x="415" y="443" on="1"/>
        <pt x="312" y="383" on="1"/>
        <pt x="312" y="51" on="1"/>
        <pt x="435" y="51" on="1"/>
        <pt x="508" y="51" on="0"/>
        <pt x="620" y="147" on="0"/>
        <pt x="643" y="232" on="1"/>
        <pt x="653" y="232" on="1"/>
        <pt x="615" y="0" on="1"/>
        <pt x="30" y="0" on="1"/>
        <pt x="30" y="10" on="1"/>
      </contour>
    </TTGlyph>
    <TTGlyph name="M" xMin="-26" yMin="-25" xMax="994" yMax="714">
      <contour>
        <pt x="978" y="10" on="1"/>
        <pt x="994" y="10" on="1"/>
        <pt x="994" y="0" on="1"/>
        <pt x="639" y="0" on="1"/>
        <pt x="639" y="9" on="1"/>
        <pt x="655" y="9" on="1"/>
        <pt x="671" y="9" on="0"/>
        <pt x="694" y="36" on="0"/>
        <pt x="694" y="52" on="1"/>
        <pt x="656" y="344" on="1"/>
        <pt x="486" y="92" on="1"/>
        <pt x="469" y="68" on="0"/>
        <pt x="443" y="0" on="0"/>
        <pt x="444" y="-24" on="1"/>
        <pt x="435" y="-24" on="1"/>
        <pt x="175" y="335" on="1"/>
        <pt x="140" y="52" on="1"/>
        <pt x="140" y="36" on="0"/>
        <pt x="163" y="9" on="0"/>
        <pt x="179" y="9" on="1"/>
        <pt x="195" y="9" on="1"/>
        <pt x="195" y="0" on="1"/>
        <pt x="-25" y="0" on="1"/>
        <pt x="-25" y="10" on="1"/>
        <pt x="-9" y="10" on="1"/>
        <pt x="19" y="10" on="0"/>
        <pt x="60" y="44" on="0"/>
        <pt x="64" y="73" on="1"/>
        <pt x="152" y="714" on="1"/>
        <pt x="161" y="714" on="1"/>
        <pt x="497" y="255" on="1"/>
        <pt x="805" y="714" on="1"/>
        <pt x="814" y="714" on="1"/>
        <pt x="905" y="73" on="1"/>
        <pt x="912" y="33" on="0"/>
        <pt x="945" y="17" on="1"/>
        <pt x="960" y="10" on="0"/>
      </contour>
    </TTGlyph>
    <TTGlyph name="N" xMin="19" yMin="-15" xMax="862" yMax="715">
      <contour>
        <pt x="843" y="690" on="1"/>
        <pt x="818" y="690" on="0"/>
        <pt x="782" y="655" on="0"/>
        <pt x="781" y="630" on="1"/>
        <pt x="781" y="114" on="1"/>
        <pt x="781" y="40" on="0"/>
        <pt x="791" y="0" on="1"/>
        <pt x="794" y="-14" on="1"/>
        <pt x="785" y="-14" on="1"/>
        <pt x="306" y="412" on="1"/>
        <pt x="306" y="71" on="1"/>
        <pt x="306" y="35" on="0"/>
        <pt x="337" y="18" on="1"/>
        <pt x="351" y="10" on="0"/>
        <pt x="367" y="10" on="1"/>
        <pt x="386" y="10" on="1"/>
        <pt x="386" y="0" on="1"/>
        <pt x="20" y="0" on="1"/>
        <pt x="20" y="10" on="1"/>
        <pt x="39" y="10" on="1"/>
        <pt x="64" y="10" on="0"/>
        <pt x="100" y="45" on="0"/>
        <pt x="100" y="71" on="1"/>
        <pt x="100" y="590" on="1"/>
        <pt x="100" y="660" on="0"/>
        <pt x="90" y="701" on="1"/>
        <pt x="87" y="715" on="1"/>
        <pt x="97" y="715" on="1"/>
        <pt x="576" y="289" on="1"/>
        <pt x="576" y="629" on="1"/>
        <pt x="575" y="655" on="0"/>
        <pt x="539" y="690" on="0"/>
        <pt x="514" y="690" on="1"/>
        <pt x="495" y="690" on="1"/>
        <pt x="495" y="700" on="1"/>
        <pt x="861" y="700" on="1"/>
        <pt x="861" y="690" on="1"/>
      </contour>
    </TTGlyph>
    <TTGlyph name="Nacute" xMin="20" yMin="-15" xMax="862" yMax="954">
      <contour>
        <pt x="395" y="761" on="1"/>
        <pt x="388" y="768" on="1"/>
        <pt x="407" y="812" on="0"/>
        <pt x="499" y="917" on="0"/>
        <pt x="543" y="954" on="1"/>
        <pt x="607" y="927" on="0"/>
        <pt x="628" y="854" on="1"/>
        <pt x="578" y="821" on="0"/>
        <pt x="448" y="767" on="0"/>
      </contour>
      <contour>
        <pt x="843" y="690" on="1"/>
        <pt x="818" y="690" on="0"/>
        <pt x="782" y="655" on="0"/>
        <pt x="781" y="630" on="1"/>
        <pt x="781" y="114" on="1"/>
        <pt x="781" y="40" on="0"/>
        <pt x="791" y="0" on="1"/>
        <pt x="794" y="-14" on="1"/>
        <pt x="785" y="-14" on="1"/>
        <pt x="306" y="412" on="1"/>
        <pt x="306" y="71" on="1"/>
        <pt x="306" y="35" on="0"/>
        <pt x="337" y="18" on="1"/>
        <pt x="351" y="10" on="0"/>
        <pt x="367" y="10" on="1"/>
        <pt x="386" y="10" on="1"/>
        <pt x="386" y="0" on="1"/>
        <pt x="20" y="0" on="1"/>
        <pt x="20" y="10" on="1"/>
        <pt x="39" y="10" on="1"/>
        <pt x="64" y="10" on="0"/>
        <pt x="100" y="45" on="0"/>
        <pt x="100" y="71" on="1"/>
        <pt x="100" y="590" on="1"/>
        <pt x="100" y="660" on="0"/>
        <pt x="90" y="701" on="1"/>
        <pt x="87" y="715" on="1"/>
        <pt x="97" y="715" on="1"/>
        <pt x="576" y="289" on="1"/>
        <pt x="576" y="629" on="1"/>
        <pt x="575" y="655" on="0"/>
        <pt x="539" y="690" on="0"/>
        <pt x="514" y="690" on="1"/>
        <pt x="495" y="690" on="1"/>
        <pt x="495" y="700" on="1"/>
        <pt x="861" y="700" on="1"/>
        <pt x="861" y="690" on="1"/>
      </contour>
    </TTGlyph>
    <TTGlyph name="Ncaron" xMin="19" yMin="-15" xMax="862" yMax="948">
      <contour>
        <pt x="419" y="764" on="1"/>
        <pt x="407" y="764" on="1"/>
        <pt x="238" y="939" on="1"/>
        <pt x="245" y="947" on="1"/>
        <pt x="413" y="883" on="1"/>
        <pt x="571" y="947" on="1"/>
        <pt x="578" y="939" on="1"/>
      </contour>
      <contour>
        <pt x="843" y="690" on="1"/>
        <pt x="818" y="690" on="0"/>
        <pt x="782" y="655" on="0"/>
        <pt x="781" y="630" on="1"/>
        <pt x="781" y="114" on="1"/>
        <pt x="781" y="40" on="0"/>
        <pt x="791" y="0" on="1"/>
        <pt x="794" y="-14" on="1"/>
        <pt x="785" y="-14" on="1"/>
        <pt x="306" y="412" on="1"/>
        <pt x="306" y="71" on="1"/>
        <pt x="306" y="35" on="0"/>
        <pt x="337" y="18" on="1"/>
        <pt x="351" y="10" on="0"/>
        <pt x="367" y="10" on="1"/>
        <pt x="386" y="10" on="1"/>
        <pt x="386" y="0" on="1"/>
        <pt x="20" y="0" on="1"/>
        <pt x="20" y="10" on="1"/>
        <pt x="39" y="10" on="1"/>
        <pt x="64" y="10" on="0"/>
        <pt x="100" y="45" on="0"/>
        <pt x="100" y="71" on="1"/>
        <pt x="100" y="590" on="1"/>
        <pt x="100" y="660" on="0"/>
        <pt x="90" y="701" on="1"/>
        <pt x="87" y="715" on="1"/>
        <pt x="97" y="715" on="1"/>
        <pt x="576" y="289" on="1"/>
        <pt x="576" y="629" on="1"/>
        <pt x="575" y="655" on="0"/>
        <pt x="539" y="690" on="0"/>
        <pt x="514" y="690" on="1"/>
        <pt x="495" y="690" on="1"/>
        <pt x="495" y="700" on="1"/>
        <pt x="861" y="700" on="1"/>
        <pt x="861" y="690" on="1"/>
      </contour>
    </TTGlyph>
    <TTGlyph name="Ncommaaccent" xMin="19" yMin="-275" xMax="862" yMax="715">
      <contour>
        <pt x="843" y="690" on="1"/>
        <pt x="818" y="690" on="0"/>
        <pt x="782" y="655" on="0"/>
        <pt x="781" y="630" on="1"/>
        <pt x="781" y="114" on="1"/>
        <pt x="781" y="40" on="0"/>
        <pt x="791" y="0" on="1"/>
        <pt x="794" y="-14" on="1"/>
        <pt x="785" y="-14" on="1"/>
        <pt x="306" y="412" on="1"/>
        <pt x="306" y="71" on="1"/>
        <pt x="306" y="35" on="0"/>
        <pt x="337" y="18" on="1"/>
        <pt x="351" y="10" on="0"/>
        <pt x="367" y="10" on="1"/>
        <pt x="386" y="10" on="1"/>
        <pt x="386" y="0" on="1"/>
        <pt x="20" y="0" on="1"/>
        <pt x="20" y="10" on="1"/>
        <pt x="39" y="10" on="1"/>
        <pt x="64" y="10" on="0"/>
        <pt x="100" y="45" on="0"/>
        <pt x="100" y="71" on="1"/>
        <pt x="100" y="590" on="1"/>
        <pt x="100" y="660" on="0"/>
        <pt x="90" y="701" on="1"/>
        <pt x="87" y="715" on="1"/>
        <pt x="97" y="715" on="1"/>
        <pt x="576" y="289" on="1"/>
        <pt x="576" y="629" on="1"/>
        <pt x="575" y="655" on="0"/>
        <pt x="539" y="690" on="0"/>
        <pt x="514" y="690" on="1"/>
        <pt x="495" y="690" on="1"/>
        <pt x="495" y="700" on="1"/>
        <pt x="861" y="700" on="1"/>
        <pt x="861" y="690" on="1"/>
      </contour>
      <contour>
        <pt x="446" y="-264" on="1"/>
        <pt x="478" y="-250" on="0"/>
        <pt x="478" y="-195" on="0"/>
        <pt x="442" y="-154" on="0"/>
        <pt x="442" y="-128" on="1"/>
        <pt x="442" y="-93" on="0"/>
        <pt x="466" y="-76" on="1"/>
        <pt x="482" y="-64" on="0"/>
        <pt x="496" y="-64" on="1"/>
        <pt x="548" y="-64" on="0"/>
        <pt x="567" y="-105" on="1"/>
        <pt x="578" y="-128" on="0"/>
        <pt x="578" y="-160" on="0"/>
        <pt x="571" y="-201" on="0"/>
        <pt x="538" y="-252" on="0"/>
        <pt x="489" y="-275" on="0"/>
        <pt x="459" y="-275" on="0"/>
        <pt x="449" y="-273" on="1"/>
      </contour>
    </TTGlyph>
    <TTGlyph name="Ntilde" xMin="19" yMin="-15" xMax="862" yMax="929">
      <contour>
        <pt x="607" y="919" on="1"/>
        <pt x="619" y="919" on="1"/>
        <pt x="625" y="902" on="0"/>
        <pt x="625" y="863" on="0"/>
        <pt x="617" y="844" on="1"/>
        <pt x="595" y="794" on="0"/>
        <pt x="556" y="776" on="1"/>
        <pt x="532" y="764" on="0"/>
        <pt x="469" y="764" on="0"/>
        <pt x="420" y="789" on="1"/>
        <pt x="370" y="814" on="0"/>
        <pt x="335" y="819" on="0"/>
        <pt x="305" y="819" on="0"/>
        <pt x="257" y="787" on="0"/>
        <pt x="249" y="767" on="1"/>
        <pt x="237" y="767" on="1"/>
        <pt x="233" y="781" on="0"/>
        <pt x="233" y="796" on="1"/>
        <pt x="233" y="856" on="0"/>
        <pt x="278" y="899" on="1"/>
        <pt x="309" y="929" on="0"/>
        <pt x="384" y="929" on="0"/>
        <pt x="492" y="875" on="0"/>
        <pt x="537" y="875" on="1"/>
        <pt x="552" y="875" on="0"/>
        <pt x="601" y="904" on="0"/>
      </contour>
      <contour>
        <pt x="843" y="690" on="1"/>
        <pt x="818" y="690" on="0"/>
        <pt x="782" y="655" on="0"/>
        <pt x="781" y="630" on="1"/>
        <pt x="781" y="114" on="1"/>
        <pt x="781" y="40" on="0"/>
        <pt x="791" y="0" on="1"/>
        <pt x="794" y="-14" on="1"/>
        <pt x="785" y="-14" on="1"/>
        <pt x="306" y="412" on="1"/>
        <pt x="306" y="71" on="1"/>
        <pt x="306" y="35" on="0"/>
        <pt x="337" y="18" on="1"/>
        <pt x="351" y="10" on="0"/>
        <pt x="367" y="10" on="1"/>
        <pt x="386" y="10" on="1"/>
        <pt x="386" y="0" on="1"/>
        <pt x="20" y="0" on="1"/>
        <pt x="20" y="10" on="1"/>
        <pt x="39" y="10" on="1"/>
        <pt x="64" y="10" on="0"/>
        <pt x="100" y="45" on="0"/>
        <pt x="100" y="71" on="1"/>
        <pt x="100" y="590" on="1"/>
        <pt x="100" y="660" on="0"/>
        <pt x="90" y="701" on="1"/>
        <pt x="87" y="715" on="1"/>
        <pt x="97" y="715" on="1"/>
        <pt x="576" y="289" on="1"/>
        <pt x="576" y="629" on="1"/>
        <pt x="575" y="655" on="0"/>
        <pt x="539" y="690" on="0"/>
        <pt x="514" y="690" on="1"/>
        <pt x="495" y="690" on="1"/>
        <pt x="495" y="700" on="1"/>
        <pt x="861" y="700" on="1"/>
        <pt x="861" y="690" on="1"/>
      </contour>
    </TTGlyph>
    <TTGlyph name="O" xMin="34" yMin="-14" xMax="866" yMax="714">
      <contour>
        <pt x="450" y="714" on="1"/>
        <pt x="579" y="714" on="0"/>
        <pt x="766" y="628" on="0"/>
        <pt x="866" y="463" on="0"/>
        <pt x="866" y="350" on="1"/>
        <pt x="866" y="179" on="0"/>
        <pt x="644" y="-14" on="0"/>
        <pt x="256" y="-14" on="0"/>
        <pt x="35" y="179" on="0"/>
        <pt x="35" y="521" on="0"/>
        <pt x="256" y="714" on="0"/>
      </contour>
      <contour>
        <pt x="359" y="36" on="0"/>
        <pt x="542" y="36" on="0"/>
        <pt x="645" y="202" on="0"/>
        <pt x="645" y="498" on="0"/>
        <pt x="542" y="664" on="0"/>
        <pt x="359" y="664" on="0"/>
        <pt x="256" y="498" on="0"/>
        <pt x="256" y="202" on="0"/>
      </contour>
    </TTGlyph>
    <TTGlyph name="OE" xMin="35" yMin="-14" xMax="1128" yMax="719">
      <contour>
        <pt x="640" y="0" on="1"/>
        <pt x="601" y="0" on="0"/>
        <pt x="483" y="-14" on="0"/>
        <pt x="447" y="-14" on="1"/>
        <pt x="258" y="-14" on="0"/>
        <pt x="35" y="181" on="0"/>
        <pt x="35" y="522" on="0"/>
        <pt x="260" y="714" on="0"/>
        <pt x="459" y="714" on="1"/>
        <pt x="505" y="714" on="0"/>
        <pt x="609" y="700" on="0"/>
        <pt x="640" y="700" on="1"/>
        <pt x="948" y="700" on="1"/>
        <pt x="979" y="700" on="0"/>
        <pt x="1052" y="712" on="0"/>
        <pt x="1067" y="718" on="1"/>
        <pt x="1067" y="512" on="1"/>
        <pt x="1057" y="512" on="1"/>
        <pt x="1057" y="520" on="1"/>
        <pt x="1057" y="600" on="0"/>
        <pt x="999" y="632" on="1"/>
        <pt x="971" y="648" on="0"/>
        <pt x="932" y="649" on="1"/>
        <pt x="787" y="649" on="1"/>
        <pt x="787" y="370" on="1"/>
        <pt x="896" y="370" on="1"/>
        <pt x="944" y="371" on="0"/>
        <pt x="1004" y="432" on="0"/>
        <pt x="1004" y="480" on="1"/>
        <pt x="1004" y="484" on="1"/>
        <pt x="1014" y="484" on="1"/>
        <pt x="1014" y="206" on="1"/>
        <pt x="1004" y="206" on="1"/>
        <pt x="1004" y="211" on="1"/>
        <pt x="1004" y="275" on="0"/>
        <pt x="953" y="305" on="1"/>
        <pt x="928" y="319" on="0"/>
        <pt x="897" y="320" on="1"/>
        <pt x="787" y="320" on="1"/>
        <pt x="787" y="51" on="1"/>
        <pt x="910" y="51" on="1"/>
        <pt x="983" y="51" on="0"/>
        <pt x="1095" y="147" on="0"/>
        <pt x="1118" y="232" on="1"/>
        <pt x="1128" y="232" on="1"/>
        <pt x="1090" y="0" on="1"/>
      </contour>
      <contour>
        <pt x="462" y="664" on="1"/>
        <pt x="367" y="664" on="0"/>
        <pt x="247" y="499" on="0"/>
        <pt x="247" y="203" on="0"/>
        <pt x="364" y="36" on="0"/>
        <pt x="461" y="36" on="1"/>
        <pt x="513" y="36" on="0"/>
        <pt x="581" y="80" on="0"/>
        <pt x="581" y="104" on="1"/>
        <pt x="581" y="596" on="1"/>
        <pt x="581" y="619" on="0"/>
        <pt x="515" y="664" on="0"/>
      </contour>
    </TTGlyph>
    <TTGlyph name="Oacute" xMin="34" yMin="-14" xMax="866" yMax="968">
      <contour>
        <pt x="433" y="775" on="1"/>
        <pt x="426" y="782" on="1"/>
        <pt x="445" y="826" on="0"/>
        <pt x="538" y="931" on="0"/>
        <pt x="581" y="968" on="1"/>
        <pt x="645" y="941" on="0"/>
        <pt x="666" y="868" on="1"/>
        <pt x="616" y="835" on="0"/>
        <pt x="486" y="781" on="0"/>
      </contour>
      <contour>
        <pt x="450" y="714" on="1"/>
        <pt x="579" y="714" on="0"/>
        <pt x="766" y="628" on="0"/>
        <pt x="866" y="463" on="0"/>
        <pt x="866" y="350" on="1"/>
        <pt x="866" y="179" on="0"/>
        <pt x="645" y="-14" on="0"/>
        <pt x="256" y="-14" on="0"/>
        <pt x="35" y="179" on="0"/>
        <pt x="35" y="521" on="0"/>
        <pt x="256" y="714" on="0"/>
      </contour>
      <contour>
        <pt x="359" y="36" on="0"/>
        <pt x="542" y="36" on="0"/>
        <pt x="645" y="202" on="0"/>
        <pt x="645" y="498" on="0"/>
        <pt x="542" y="664" on="0"/>
        <pt x="359" y="664" on="0"/>
        <pt x="256" y="498" on="0"/>
        <pt x="256" y="202" on="0"/>
      </contour>
    </TTGlyph>
    <TTGlyph name="Ocircumflex" xMin="34" yMin="-14" xMax="866" yMax="946">
      <contour>
        <pt x="443" y="946" on="1"/>
        <pt x="455" y="946" on="1"/>
        <pt x="634" y="770" on="1"/>
        <pt x="626" y="762" on="1"/>
        <pt x="449" y="827" on="1"/>
        <pt x="281" y="762" on="1"/>
        <pt x="274" y="770" on="1"/>
      </contour>
      <contour>
        <pt x="450" y="714" on="1"/>
        <pt x="579" y="714" on="0"/>
        <pt x="766" y="628" on="0"/>
        <pt x="866" y="463" on="0"/>
        <pt x="866" y="350" on="1"/>
        <pt x="866" y="179" on="0"/>
        <pt x="644" y="-14" on="0"/>
        <pt x="256" y="-14" on="0"/>
        <pt x="35" y="179" on="0"/>
        <pt x="35" y="521" on="0"/>
        <pt x="256" y="714" on="0"/>
      </contour>
      <contour>
        <pt x="359" y="36" on="0"/>
        <pt x="542" y="36" on="0"/>
        <pt x="645" y="202" on="0"/>
        <pt x="645" y="498" on="0"/>
        <pt x="542" y="664" on="0"/>
        <pt x="359" y="664" on="0"/>
        <pt x="256" y="498" on="0"/>
        <pt x="256" y="202" on="0"/>
      </contour>
    </TTGlyph>
    <TTGlyph name="Odieresis" xMin="34" yMin="-14" xMax="866" yMax="917">
      <contour>
        <pt x="346" y="769" on="0"/>
        <pt x="285" y="769" on="0"/>
        <pt x="242" y="813" on="0"/>
        <pt x="242" y="874" on="0"/>
        <pt x="285" y="917" on="0"/>
        <pt x="346" y="917" on="0"/>
        <pt x="389" y="874" on="0"/>
        <pt x="389" y="813" on="0"/>
      </contour>
      <contour>
        <pt x="609" y="769" on="0"/>
        <pt x="548" y="769" on="0"/>
        <pt x="504" y="813" on="0"/>
        <pt x="504" y="874" on="0"/>
        <pt x="548" y="917" on="0"/>
        <pt x="609" y="917" on="0"/>
        <pt x="652" y="874" on="0"/>
        <pt x="652" y="813" on="0"/>
      </contour>
      <contour>
        <pt x="450" y="714" on="1"/>
        <pt x="579" y="714" on="0"/>
        <pt x="766" y="628" on="0"/>
        <pt x="866" y="463" on="0"/>
        <pt x="866" y="350" on="1"/>
        <pt x="866" y="179" on="0"/>
        <pt x="644" y="-14" on="0"/>
        <pt x="256" y="-14" on="0"/>
        <pt x="35" y="179" on="0"/>
        <pt x="35" y="521" on="0"/>
        <pt x="256" y="714" on="0"/>
      </contour>
      <contour>
        <pt x="359" y="36" on="0"/>
        <pt x="542" y="36" on="0"/>
        <pt x="645" y="202" on="0"/>
        <pt x="645" y="498" on="0"/>
        <pt x="542" y="664" on="0"/>
        <pt x="359" y="664" on="0"/>
        <pt x="256" y="498" on="0"/>
        <pt x="256" y="202" on="0"/>
      </contour>
    </TTGlyph>
    <TTGlyph name="Ograve" xMin="34" yMin="-14" xMax="866" yMax="971">
      <contour>
        <pt x="477" y="785" on="1"/>
        <pt x="470" y="778" on="1"/>
        <pt x="398" y="787" on="0"/>
        <pt x="309" y="830" on="1"/>
        <pt x="270" y="849" on="0"/>
        <pt x="237" y="871" on="1"/>
        <pt x="259" y="944" on="0"/>
        <pt x="323" y="971" on="1"/>
        <pt x="384" y="918" on="0"/>
        <pt x="464" y="815" on="0"/>
      </contour>
      <contour>
        <pt x="450" y="714" on="1"/>
        <pt x="579" y="714" on="0"/>
        <pt x="766" y="628" on="0"/>
        <pt x="866" y="463" on="0"/>
        <pt x="866" y="350" on="1"/>
        <pt x="866" y="179" on="0"/>
        <pt x="645" y="-14" on="0"/>
        <pt x="256" y="-14" on="0"/>
        <pt x="35" y="179" on="0"/>
        <pt x="35" y="521" on="0"/>
        <pt x="256" y="714" on="0"/>
      </contour>
      <contour>
        <pt x="450" y="36" on="1"/>
        <pt x="546" y="36" on="0"/>
        <pt x="650" y="201" on="0"/>
        <pt x="650" y="350" on="1"/>
        <pt x="650" y="551" on="0"/>
        <pt x="559" y="627" on="1"/>
        <pt x="514" y="664" on="0"/>
        <pt x="450" y="664" on="1"/>
        <pt x="354" y="664" on="0"/>
        <pt x="251" y="499" on="0"/>
        <pt x="251" y="350" on="1"/>
        <pt x="251" y="149" on="0"/>
        <pt x="342" y="73" on="1"/>
        <pt x="387" y="36" on="0"/>
      </contour>
    </TTGlyph>
    <TTGlyph name="Ohungarumlaut" xMin="35" yMin="-14" xMax="866" yMax="971">
      <contour>
        <pt x="326" y="778" on="1"/>
        <pt x="319" y="785" on="1"/>
        <pt x="338" y="829" on="0"/>
        <pt x="430" y="934" on="0"/>
        <pt x="474" y="971" on="1"/>
        <pt x="538" y="944" on="0"/>
        <pt x="559" y="871" on="1"/>
        <pt x="509" y="838" on="0"/>
        <pt x="379" y="784" on="0"/>
      </contour>
      <contour>
        <pt x="536" y="778" on="1"/>
        <pt x="529" y="785" on="1"/>
        <pt x="556" y="847" on="0"/>
        <pt x="644" y="934" on="1"/>
        <pt x="665" y="955" on="0"/>
        <pt x="684" y="971" on="1"/>
        <pt x="748" y="944" on="0"/>
        <pt x="769" y="871" on="1"/>
        <pt x="700" y="825" on="0"/>
        <pt x="571" y="782" on="0"/>
      </contour>
      <contour>
        <pt x="450" y="714" on="1"/>
        <pt x="579" y="714" on="0"/>
        <pt x="766" y="628" on="0"/>
        <pt x="866" y="463" on="0"/>
        <pt x="866" y="350" on="1"/>
        <pt x="866" y="179" on="0"/>
        <pt x="645" y="-14" on="0"/>
        <pt x="256" y="-14" on="0"/>
        <pt x="35" y="179" on="0"/>
        <pt x="35" y="521" on="0"/>
        <pt x="256" y="714" on="0"/>
      </contour>
      <contour>
        <pt x="359" y="36" on="0"/>
        <pt x="542" y="36" on="0"/>
        <pt x="645" y="202" on="0"/>
        <pt x="645" y="498" on="0"/>
        <pt x="542" y="664" on="0"/>
        <pt x="359" y="664" on="0"/>
        <pt x="256" y="498" on="0"/>
        <pt x="256" y="202" on="0"/>
      </contour>
    </TTGlyph>
    <TTGlyph name="Omacron" xMin="34" yMin="-14" xMax="866" yMax="895">
      <contour>
        <pt x="308" y="809" on="1"/>
        <pt x="308" y="894" on="1"/>
        <pt x="598" y="894" on="1"/>
        <pt x="598" y="809" on="1"/>
      </contour>
      <contour>
        <pt x="450" y="714" on="1"/>
        <pt x="579" y="714" on="0"/>
        <pt x="766" y="628" on="0"/>
        <pt x="866" y="463" on="0"/>
        <pt x="866" y="350" on="1"/>
        <pt x="866" y="179" on="0"/>
        <pt x="644" y="-14" on="0"/>
        <pt x="256" y="-14" on="0"/>
        <pt x="35" y="179" on="0"/>
        <pt x="35" y="521" on="0"/>
        <pt x="256" y="714" on="0"/>
      </contour>
      <contour>
        <pt x="359" y="36" on="0"/>
        <pt x="542" y="36" on="0"/>
        <pt x="645" y="202" on="0"/>
        <pt x="645" y="498" on="0"/>
        <pt x="542" y="664" on="0"/>
        <pt x="359" y="664" on="0"/>
        <pt x="256" y="498" on="0"/>
        <pt x="256" y="202" on="0"/>
      </contour>
    </TTGlyph>
    <TTGlyph name="Omega" xMin="19" yMin="0" xMax="860" yMax="715">
      <contour>
        <pt x="643" y="530" on="0"/>
        <pt x="528" y="664" on="0"/>
        <pt x="353" y="664" on="0"/>
        <pt x="236" y="527" on="0"/>
        <pt x="236" y="325" on="0"/>
        <pt x="330" y="201" on="0"/>
        <pt x="415" y="175" on="1"/>
        <pt x="395" y="0" on="1"/>
        <pt x="68" y="0" on="1"/>
        <pt x="20" y="260" on="1"/>
        <pt x="30" y="260" on="1"/>
        <pt x="57" y="210" on="0"/>
        <pt x="104" y="175" on="0"/>
        <pt x="147" y="175" on="1"/>
        <pt x="335" y="175" on="1"/>
        <pt x="252" y="175" on="0"/>
        <pt x="112" y="235" on="0"/>
        <pt x="26" y="352" on="0"/>
        <pt x="26" y="511" on="0"/>
        <pt x="134" y="642" on="0"/>
        <pt x="323" y="714" on="0"/>
        <pt x="557" y="714" on="0"/>
        <pt x="746" y="640" on="0"/>
        <pt x="853" y="509" on="0"/>
        <pt x="853" y="351" on="0"/>
        <pt x="768" y="234" on="0"/>
        <pt x="628" y="175" on="0"/>
        <pt x="542" y="175" on="1"/>
        <pt x="732" y="175" on="1"/>
        <pt x="776" y="175" on="0"/>
        <pt x="822" y="210" on="0"/>
        <pt x="850" y="260" on="1"/>
        <pt x="860" y="260" on="1"/>
        <pt x="812" y="0" on="1"/>
        <pt x="482" y="0" on="1"/>
        <pt x="462" y="175" on="1"/>
        <pt x="643" y="235" on="0"/>
        <pt x="643" y="429" on="1"/>
      </contour>
    </TTGlyph>
    <TTGlyph name="Oslash" xMin="35" yMin="-23" xMax="866" yMax="727">
      <contour>
        <pt x="866" y="350" on="1"/>
        <pt x="866" y="179" on="0"/>
        <pt x="644" y="-14" on="0"/>
        <pt x="450" y="-14" on="1"/>
        <pt x="307" y="-14" on="0"/>
        <pt x="207" y="40" on="1"/>
        <pt x="153" y="-23" on="1"/>
        <pt x="109" y="13" on="1"/>
        <pt x="159" y="71" on="1"/>
        <pt x="35" y="168" on="0"/>
        <pt x="35" y="521" on="0"/>
        <pt x="256" y="714" on="0"/>
        <pt x="450" y="714" on="1"/>
        <pt x="580" y="714" on="0"/>
        <pt x="674" y="670" on="1"/>
        <pt x="722" y="726" on="1"/>
        <pt x="766" y="692" on="1"/>
        <pt x="723" y="642" on="1"/>
        <pt x="866" y="546" on="0"/>
      </contour>
      <contour>
        <pt x="598" y="582" on="1"/>
        <pt x="546" y="664" on="0"/>
        <pt x="354" y="664" on="0"/>
        <pt x="251" y="499" on="0"/>
        <pt x="251" y="350" on="1"/>
        <pt x="251" y="264" on="0"/>
        <pt x="269" y="199" on="1"/>
      </contour>
      <contour>
        <pt x="291" y="138" on="1"/>
        <pt x="343" y="36" on="0"/>
        <pt x="546" y="36" on="0"/>
        <pt x="650" y="201" on="0"/>
        <pt x="650" y="350" on="1"/>
        <pt x="650" y="454" on="0"/>
        <pt x="624" y="527" on="1"/>
      </contour>
    </TTGlyph>
    <TTGlyph name="Otilde" xMin="34" yMin="-15" xMax="866" yMax="943">
      <contour>
        <pt x="645" y="933" on="1"/>
        <pt x="658" y="933" on="1"/>
        <pt x="664" y="916" on="0"/>
        <pt x="664" y="877" on="0"/>
        <pt x="655" y="858" on="1"/>
        <pt x="634" y="808" on="0"/>
        <pt x="594" y="790" on="1"/>
        <pt x="570" y="778" on="0"/>
        <pt x="515" y="778" on="0"/>
        <pt x="488" y="789" on="1"/>
        <pt x="462" y="800" on="0"/>
        <pt x="406" y="828" on="0"/>
        <pt x="373" y="833" on="0"/>
        <pt x="344" y="833" on="0"/>
        <pt x="296" y="801" on="0"/>
        <pt x="288" y="781" on="1"/>
        <pt x="275" y="781" on="1"/>
        <pt x="272" y="795" on="0"/>
        <pt x="272" y="810" on="1"/>
        <pt x="272" y="870" on="0"/>
        <pt x="316" y="913" on="1"/>
        <pt x="347" y="943" on="0"/>
        <pt x="422" y="943" on="0"/>
        <pt x="531" y="889" on="0"/>
        <pt x="576" y="889" on="1"/>
        <pt x="590" y="889" on="0"/>
        <pt x="639" y="918" on="0"/>
      </contour>
      <contour>
        <pt x="256" y="714" on="0"/>
        <pt x="644" y="714" on="0"/>
        <pt x="866" y="521" on="0"/>
        <pt x="866" y="179" on="0"/>
        <pt x="644" y="-14" on="0"/>
        <pt x="256" y="-14" on="0"/>
        <pt x="35" y="179" on="0"/>
        <pt x="35" y="521" on="0"/>
      </contour>
      <contour>
        <pt x="359" y="36" on="0"/>
        <pt x="542" y="36" on="0"/>
        <pt x="645" y="202" on="0"/>
        <pt x="645" y="498" on="0"/>
        <pt x="542" y="664" on="0"/>
        <pt x="359" y="664" on="0"/>
        <pt x="256" y="498" on="0"/>
        <pt x="256" y="202" on="0"/>
      </contour>
    </TTGlyph>
    <TTGlyph name="P" xMin="35" yMin="0" xMax="693" yMax="701">
      <contour>
        <pt x="693" y="495" on="1"/>
        <pt x="693" y="449" on="0"/>
        <pt x="656" y="363" on="0"/>
        <pt x="621" y="334" on="1"/>
        <pt x="558" y="283" on="0"/>
        <pt x="487" y="283" on="1"/>
        <pt x="415" y="283" on="0"/>
        <pt x="351" y="329" on="1"/>
        <pt x="351" y="339" on="1"/>
        <pt x="387" y="345" on="0"/>
        <pt x="424" y="372" on="0"/>
        <pt x="435" y="383" on="1"/>
        <pt x="460" y="410" on="0"/>
        <pt x="477" y="482" on="0"/>
        <pt x="477" y="497" on="1"/>
        <pt x="477" y="576" on="0"/>
        <pt x="409" y="650" on="0"/>
        <pt x="352" y="650" on="1"/>
        <pt x="317" y="650" on="1"/>
        <pt x="317" y="73" on="1"/>
        <pt x="318" y="47" on="0"/>
        <pt x="355" y="10" on="0"/>
        <pt x="381" y="10" on="1"/>
        <pt x="394" y="10" on="1"/>
        <pt x="394" y="0" on="1"/>
        <pt x="35" y="0" on="1"/>
        <pt x="35" y="10" on="1"/>
        <pt x="48" y="10" on="1"/>
        <pt x="84" y="10" on="0"/>
        <pt x="103" y="41" on="1"/>
        <pt x="112" y="56" on="0"/>
        <pt x="112" y="73" on="1"/>
        <pt x="112" y="633" on="1"/>
        <pt x="109" y="657" on="0"/>
        <pt x="73" y="690" on="0"/>
        <pt x="48" y="690" on="1"/>
        <pt x="36" y="690" on="1"/>
        <pt x="35" y="700" on="1"/>
        <pt x="416" y="700" on="1"/>
        <pt x="553" y="700" on="0"/>
        <pt x="626" y="643" on="1"/>
        <pt x="693" y="592" on="0"/>
      </contour>
    </TTGlyph>
    <TTGlyph name="Q" xMin="39" yMin="-307" xMax="1376" yMax="714">
      <contour>
        <pt x="1269" y="-264" on="1"/>
        <pt x="1197" y="-306" on="0"/>
        <pt x="1093" y="-306" on="1"/>
        <pt x="1057" y="-306" on="0"/>
        <pt x="913" y="-273" on="0"/>
        <pt x="773" y="-196" on="0"/>
        <pt x="657" y="-114" on="0"/>
        <pt x="585" y="-58" on="0"/>
        <pt x="495" y="-15" on="0"/>
        <pt x="453" y="-14" on="1"/>
        <pt x="260" y="-13" on="0"/>
        <pt x="40" y="179" on="0"/>
        <pt x="40" y="521" on="0"/>
        <pt x="261" y="714" on="0"/>
        <pt x="455" y="714" on="1"/>
        <pt x="584" y="714" on="0"/>
        <pt x="771" y="628" on="0"/>
        <pt x="871" y="463" on="0"/>
        <pt x="871" y="350" on="1"/>
        <pt x="871" y="178" on="0"/>
        <pt x="760" y="82" on="1"/>
        <pt x="706" y="35" on="0"/>
        <pt x="629" y="11" on="1"/>
        <pt x="713" y="-3" on="0"/>
        <pt x="839" y="-46" on="0"/>
        <pt x="921" y="-76" on="1"/>
        <pt x="1056" y="-125" on="0"/>
        <pt x="1284" y="-125" on="0"/>
        <pt x="1369" y="-64" on="1"/>
        <pt x="1376" y="-67" on="1"/>
        <pt x="1376" y="-131" on="0"/>
        <pt x="1321" y="-234" on="0"/>
      </contour>
      <contour>
        <pt x="261" y="498" on="0"/>
        <pt x="261" y="202" on="0"/>
        <pt x="364" y="36" on="0"/>
        <pt x="547" y="36" on="0"/>
        <pt x="650" y="202" on="0"/>
        <pt x="650" y="498" on="0"/>
        <pt x="547" y="664" on="0"/>
        <pt x="364" y="664" on="0"/>
      </contour>
    </TTGlyph>
    <TTGlyph name="R" xMin="35" yMin="0" xMax="854" yMax="701">
      <contour>
        <pt x="675" y="590" on="1"/>
        <pt x="691" y="555" on="0"/>
        <pt x="691" y="480" on="0"/>
        <pt x="675" y="423" on="0"/>
        <pt x="658" y="395" on="1"/>
        <pt x="621" y="335" on="0"/>
        <pt x="531" y="321" on="1"/>
        <pt x="570" y="310" on="0"/>
        <pt x="601" y="282" on="1"/>
        <pt x="634" y="254" on="0"/>
        <pt x="663" y="204" on="1"/>
        <pt x="738" y="76" on="0"/>
        <pt x="778" y="39" on="1"/>
        <pt x="808" y="11" on="0"/>
        <pt x="854" y="10" on="1"/>
        <pt x="854" y="0" on="1"/>
        <pt x="729" y="0" on="1"/>
        <pt x="599" y="0" on="0"/>
        <pt x="543" y="29" on="1"/>
        <pt x="463" y="70" on="0"/>
        <pt x="429" y="170" on="1"/>
        <pt x="420" y="199" on="0"/>
        <pt x="407" y="263" on="0"/>
        <pt x="398" y="292" on="0"/>
        <pt x="386" y="317" on="0"/>
        <pt x="379" y="324" on="1"/>
        <pt x="367" y="336" on="0"/>
        <pt x="351" y="342" on="1"/>
        <pt x="351" y="352" on="1"/>
        <pt x="367" y="352" on="1"/>
        <pt x="425" y="352" on="0"/>
        <pt x="454" y="405" on="1"/>
        <pt x="469" y="433" on="0"/>
        <pt x="476" y="498" on="0"/>
        <pt x="476" y="514" on="0"/>
        <pt x="476" y="516" on="1"/>
        <pt x="469" y="648" on="0"/>
        <pt x="362" y="648" on="1"/>
        <pt x="318" y="648" on="1"/>
        <pt x="318" y="73" on="1"/>
        <pt x="318" y="47" on="0"/>
        <pt x="356" y="10" on="0"/>
        <pt x="382" y="10" on="1"/>
        <pt x="394" y="10" on="1"/>
        <pt x="394" y="0" on="1"/>
        <pt x="35" y="0" on="1"/>
        <pt x="35" y="10" on="1"/>
        <pt x="48" y="10" on="1"/>
        <pt x="74" y="10" on="0"/>
        <pt x="111" y="46" on="0"/>
        <pt x="112" y="72" on="1"/>
        <pt x="112" y="627" on="1"/>
        <pt x="111" y="664" on="0"/>
        <pt x="80" y="682" on="1"/>
        <pt x="65" y="690" on="0"/>
        <pt x="48" y="690" on="1"/>
        <pt x="35" y="690" on="1"/>
        <pt x="35" y="700" on="1"/>
        <pt x="426" y="700" on="1"/>
        <pt x="622" y="700" on="0"/>
      </contour>
    </TTGlyph>
    <TTGlyph name="Racute" xMin="35" yMin="0" xMax="854" yMax="954">
      <contour>
        <pt x="374" y="761" on="1"/>
        <pt x="367" y="768" on="1"/>
        <pt x="386" y="812" on="0"/>
        <pt x="479" y="917" on="0"/>
        <pt x="522" y="954" on="1"/>
        <pt x="586" y="927" on="0"/>
        <pt x="607" y="854" on="1"/>
        <pt x="557" y="821" on="0"/>
        <pt x="427" y="767" on="0"/>
      </contour>
      <contour>
        <pt x="675" y="590" on="1"/>
        <pt x="691" y="555" on="0"/>
        <pt x="691" y="480" on="0"/>
        <pt x="675" y="423" on="0"/>
        <pt x="658" y="395" on="1"/>
        <pt x="621" y="335" on="0"/>
        <pt x="531" y="321" on="1"/>
        <pt x="570" y="310" on="0"/>
        <pt x="601" y="282" on="1"/>
        <pt x="634" y="254" on="0"/>
        <pt x="663" y="204" on="1"/>
        <pt x="751" y="53" on="0"/>
        <pt x="794" y="26" on="1"/>
        <pt x="817" y="11" on="0"/>
        <pt x="854" y="10" on="1"/>
        <pt x="854" y="0" on="1"/>
        <pt x="729" y="0" on="1"/>
        <pt x="599" y="0" on="0"/>
        <pt x="543" y="29" on="1"/>
        <pt x="463" y="70" on="0"/>
        <pt x="429" y="170" on="1"/>
        <pt x="420" y="199" on="0"/>
        <pt x="407" y="263" on="0"/>
        <pt x="396" y="298" on="0"/>
        <pt x="387" y="312" on="1"/>
        <pt x="374" y="334" on="0"/>
        <pt x="351" y="342" on="1"/>
        <pt x="351" y="352" on="1"/>
        <pt x="367" y="352" on="1"/>
        <pt x="425" y="352" on="0"/>
        <pt x="454" y="405" on="1"/>
        <pt x="469" y="433" on="0"/>
        <pt x="476" y="498" on="0"/>
        <pt x="476" y="514" on="0"/>
        <pt x="476" y="516" on="1"/>
        <pt x="469" y="648" on="0"/>
        <pt x="362" y="648" on="1"/>
        <pt x="318" y="648" on="1"/>
        <pt x="318" y="73" on="1"/>
        <pt x="318" y="47" on="0"/>
        <pt x="355" y="10" on="0"/>
        <pt x="382" y="10" on="1"/>
        <pt x="394" y="10" on="1"/>
        <pt x="395" y="0" on="1"/>
        <pt x="35" y="0" on="1"/>
        <pt x="35" y="10" on="1"/>
        <pt x="48" y="10" on="1"/>
        <pt x="74" y="10" on="0"/>
        <pt x="111" y="46" on="0"/>
        <pt x="112" y="72" on="1"/>
        <pt x="112" y="627" on="1"/>
        <pt x="111" y="653" on="0"/>
        <pt x="74" y="690" on="0"/>
        <pt x="48" y="690" on="1"/>
        <pt x="35" y="690" on="1"/>
        <pt x="35" y="700" on="1"/>
        <pt x="426" y="700" on="1"/>
        <pt x="622" y="700" on="0"/>
      </contour>
    </TTGlyph>
    <TTGlyph name="Rcaron" xMin="35" yMin="0" xMax="854" yMax="948">
      <contour>
        <pt x="398" y="764" on="1"/>
        <pt x="386" y="764" on="1"/>
        <pt x="217" y="939" on="1"/>
        <pt x="224" y="947" on="1"/>
        <pt x="392" y="883" on="1"/>
        <pt x="550" y="947" on="1"/>
        <pt x="557" y="939" on="1"/>
      </contour>
      <contour>
        <pt x="675" y="590" on="1"/>
        <pt x="691" y="555" on="0"/>
        <pt x="691" y="480" on="0"/>
        <pt x="675" y="423" on="0"/>
        <pt x="658" y="395" on="1"/>
        <pt x="621" y="335" on="0"/>
        <pt x="531" y="321" on="1"/>
        <pt x="570" y="310" on="0"/>
        <pt x="601" y="282" on="1"/>
        <pt x="634" y="254" on="0"/>
        <pt x="663" y="204" on="1"/>
        <pt x="738" y="76" on="0"/>
        <pt x="778" y="39" on="1"/>
        <pt x="808" y="11" on="0"/>
        <pt x="854" y="10" on="1"/>
        <pt x="854" y="0" on="1"/>
        <pt x="729" y="0" on="1"/>
        <pt x="599" y="0" on="0"/>
        <pt x="543" y="29" on="1"/>
        <pt x="463" y="70" on="0"/>
        <pt x="429" y="170" on="1"/>
        <pt x="420" y="199" on="0"/>
        <pt x="407" y="263" on="0"/>
        <pt x="400" y="285" on="1"/>
        <pt x="387" y="328" on="0"/>
        <pt x="351" y="342" on="1"/>
        <pt x="351" y="352" on="1"/>
        <pt x="367" y="352" on="1"/>
        <pt x="425" y="352" on="0"/>
        <pt x="454" y="405" on="1"/>
        <pt x="469" y="433" on="0"/>
        <pt x="476" y="498" on="0"/>
        <pt x="476" y="514" on="0"/>
        <pt x="476" y="516" on="1"/>
        <pt x="469" y="648" on="0"/>
        <pt x="362" y="648" on="1"/>
        <pt x="318" y="648" on="1"/>
        <pt x="318" y="73" on="1"/>
        <pt x="318" y="47" on="0"/>
        <pt x="356" y="10" on="0"/>
        <pt x="382" y="10" on="1"/>
        <pt x="394" y="10" on="1"/>
        <pt x="394" y="0" on="1"/>
        <pt x="35" y="0" on="1"/>
        <pt x="35" y="10" on="1"/>
        <pt x="48" y="10" on="1"/>
        <pt x="74" y="10" on="0"/>
        <pt x="111" y="46" on="0"/>
        <pt x="112" y="72" on="1"/>
        <pt x="112" y="627" on="1"/>
        <pt x="111" y="664" on="0"/>
        <pt x="80" y="682" on="1"/>
        <pt x="65" y="690" on="0"/>
        <pt x="48" y="690" on="1"/>
        <pt x="35" y="690" on="1"/>
        <pt x="35" y="700" on="1"/>
        <pt x="426" y="700" on="1"/>
        <pt x="622" y="700" on="0"/>
      </contour>
    </TTGlyph>
    <TTGlyph name="Rcommaaccent" xMin="35" yMin="-275" xMax="854" yMax="701">
      <contour>
        <pt x="675" y="590" on="1"/>
        <pt x="691" y="555" on="0"/>
        <pt x="691" y="480" on="0"/>
        <pt x="675" y="423" on="0"/>
        <pt x="658" y="395" on="1"/>
        <pt x="621" y="335" on="0"/>
        <pt x="531" y="321" on="1"/>
        <pt x="570" y="310" on="0"/>
        <pt x="601" y="282" on="1"/>
        <pt x="634" y="254" on="0"/>
        <pt x="663" y="204" on="1"/>
        <pt x="738" y="76" on="0"/>
        <pt x="778" y="39" on="1"/>
        <pt x="808" y="11" on="0"/>
        <pt x="854" y="10" on="1"/>
        <pt x="854" y="0" on="1"/>
        <pt x="729" y="0" on="1"/>
        <pt x="599" y="0" on="0"/>
        <pt x="543" y="29" on="1"/>
        <pt x="463" y="70" on="0"/>
        <pt x="429" y="170" on="1"/>
        <pt x="420" y="199" on="0"/>
        <pt x="407" y="263" on="0"/>
        <pt x="398" y="292" on="0"/>
        <pt x="386" y="317" on="0"/>
        <pt x="379" y="324" on="1"/>
        <pt x="367" y="336" on="0"/>
        <pt x="351" y="342" on="1"/>
        <pt x="351" y="352" on="1"/>
        <pt x="367" y="352" on="1"/>
        <pt x="425" y="352" on="0"/>
        <pt x="454" y="405" on="1"/>
        <pt x="469" y="433" on="0"/>
        <pt x="476" y="498" on="0"/>
        <pt x="476" y="514" on="0"/>
        <pt x="476" y="516" on="1"/>
        <pt x="469" y="648" on="0"/>
        <pt x="362" y="648" on="1"/>
        <pt x="318" y="648" on="1"/>
        <pt x="318" y="73" on="1"/>
        <pt x="318" y="47" on="0"/>
        <pt x="356" y="10" on="0"/>
        <pt x="382" y="10" on="1"/>
        <pt x="394" y="10" on="1"/>
        <pt x="394" y="0" on="1"/>
        <pt x="35" y="0" on="1"/>
        <pt x="35" y="10" on="1"/>
        <pt x="48" y="10" on="1"/>
        <pt x="74" y="10" on="0"/>
        <pt x="111" y="46" on="0"/>
        <pt x="112" y="72" on="1"/>
        <pt x="112" y="627" on="1"/>
        <pt x="111" y="664" on="0"/>
        <pt x="80" y="682" on="1"/>
        <pt x="65" y="690" on="0"/>
        <pt x="48" y="690" on="1"/>
        <pt x="35" y="690" on="1"/>
        <pt x="35" y="700" on="1"/>
        <pt x="426" y="700" on="1"/>
        <pt x="622" y="700" on="0"/>
      </contour>
      <contour>
        <pt x="419" y="-264" on="1"/>
        <pt x="450" y="-250" on="0"/>
        <pt x="450" y="-195" on="0"/>
        <pt x="414" y="-154" on="0"/>
        <pt x="414" y="-128" on="1"/>
        <pt x="414" y="-93" on="0"/>
        <pt x="438" y="-76" on="1"/>
        <pt x="454" y="-64" on="0"/>
        <pt x="468" y="-64" on="1"/>
        <pt x="520" y="-64" on="0"/>
        <pt x="539" y="-105" on="1"/>
        <pt x="550" y="-128" on="0"/>
        <pt x="550" y="-160" on="0"/>
        <pt x="543" y="-201" on="0"/>
        <pt x="510" y="-252" on="0"/>
        <pt x="461" y="-275" on="0"/>
        <pt x="431" y="-275" on="0"/>
        <pt x="421" y="-273" on="1"/>
      </contour>
    </TTGlyph>
    <TTGlyph name="S" xMin="44" yMin="-14" xMax="606" yMax="714">
      <contour>
        <pt x="606" y="105" on="0"/>
        <pt x="434" y="-14" on="0"/>
        <pt x="291" y="-14" on="1"/>
        <pt x="208" y="-14" on="0"/>
        <pt x="82" y="23" on="0"/>
        <pt x="54" y="51" on="1"/>
        <pt x="45" y="73" on="0"/>
        <pt x="45" y="124" on="0"/>
        <pt x="49" y="148" on="1"/>
        <pt x="60" y="207" on="0"/>
        <pt x="86" y="240" on="1"/>
        <pt x="95" y="240" on="1"/>
        <pt x="94" y="234" on="0"/>
        <pt x="94" y="227" on="1"/>
        <pt x="94" y="153" on="0"/>
        <pt x="211" y="36" on="0"/>
        <pt x="312" y="36" on="1"/>
        <pt x="380" y="36" on="0"/>
        <pt x="453" y="93" on="0"/>
        <pt x="453" y="166" on="0"/>
        <pt x="403" y="218" on="0"/>
        <pt x="347" y="244" on="1"/>
        <pt x="184" y="320" on="1"/>
        <pt x="115" y="351" on="0"/>
        <pt x="84" y="407" on="1"/>
        <pt x="59" y="451" on="0"/>
        <pt x="59" y="504" on="1"/>
        <pt x="59" y="612" on="0"/>
        <pt x="132" y="668" on="1"/>
        <pt x="193" y="714" on="0"/>
        <pt x="294" y="714" on="1"/>
        <pt x="360" y="714" on="0"/>
        <pt x="463" y="704" on="1"/>
        <pt x="541" y="704" on="1"/>
        <pt x="519" y="541" on="1"/>
        <pt x="509" y="541" on="1"/>
        <pt x="509" y="596" on="0"/>
        <pt x="423" y="664" on="0"/>
        <pt x="290" y="664" on="0"/>
        <pt x="217" y="618" on="0"/>
        <pt x="214" y="580" on="1"/>
        <pt x="210" y="533" on="0"/>
        <pt x="274" y="500" on="1"/>
        <pt x="285" y="494" on="0"/>
        <pt x="303" y="487" on="1"/>
        <pt x="490" y="400" on="1"/>
        <pt x="606" y="347" on="0"/>
      </contour>
    </TTGlyph>
    <TTGlyph name="Sacute" xMin="44" yMin="-14" xMax="606" yMax="954">
      <contour>
        <pt x="303" y="761" on="1"/>
        <pt x="296" y="768" on="1"/>
        <pt x="315" y="812" on="0"/>
        <pt x="408" y="917" on="0"/>
        <pt x="451" y="954" on="1"/>
        <pt x="515" y="927" on="0"/>
        <pt x="536" y="854" on="1"/>
        <pt x="486" y="821" on="0"/>
        <pt x="356" y="767" on="0"/>
      </contour>
      <contour>
        <pt x="606" y="105" on="0"/>
        <pt x="434" y="-14" on="0"/>
        <pt x="291" y="-14" on="1"/>
        <pt x="208" y="-14" on="0"/>
        <pt x="82" y="23" on="0"/>
        <pt x="54" y="51" on="1"/>
        <pt x="45" y="73" on="0"/>
        <pt x="45" y="124" on="0"/>
        <pt x="49" y="148" on="1"/>
        <pt x="60" y="207" on="0"/>
        <pt x="86" y="240" on="1"/>
        <pt x="95" y="240" on="1"/>
        <pt x="94" y="234" on="0"/>
        <pt x="94" y="227" on="1"/>
        <pt x="94" y="153" on="0"/>
        <pt x="211" y="36" on="0"/>
        <pt x="312" y="36" on="1"/>
        <pt x="380" y="36" on="0"/>
        <pt x="453" y="93" on="0"/>
        <pt x="453" y="166" on="0"/>
        <pt x="403" y="218" on="0"/>
        <pt x="347" y="244" on="1"/>
        <pt x="184" y="320" on="1"/>
        <pt x="115" y="351" on="0"/>
        <pt x="84" y="407" on="1"/>
        <pt x="59" y="451" on="0"/>
        <pt x="59" y="504" on="1"/>
        <pt x="59" y="612" on="0"/>
        <pt x="132" y="668" on="1"/>
        <pt x="193" y="714" on="0"/>
        <pt x="294" y="714" on="1"/>
        <pt x="360" y="714" on="0"/>
        <pt x="463" y="704" on="1"/>
        <pt x="541" y="704" on="1"/>
        <pt x="519" y="541" on="1"/>
        <pt x="509" y="541" on="1"/>
        <pt x="509" y="596" on="0"/>
        <pt x="423" y="664" on="0"/>
        <pt x="350" y="664" on="1"/>
        <pt x="268" y="664" on="0"/>
        <pt x="233" y="623" on="1"/>
        <pt x="214" y="602" on="0"/>
        <pt x="214" y="545" on="0"/>
        <pt x="257" y="507" on="0"/>
        <pt x="303" y="487" on="1"/>
        <pt x="490" y="400" on="1"/>
        <pt x="606" y="347" on="0"/>
      </contour>
    </TTGlyph>
    <TTGlyph name="Scaron" xMin="44" yMin="-15" xMax="606" yMax="948">
      <contour>
        <pt x="327" y="764" on="1"/>
        <pt x="315" y="764" on="1"/>
        <pt x="146" y="939" on="1"/>
        <pt x="153" y="947" on="1"/>
        <pt x="321" y="883" on="1"/>
        <pt x="479" y="947" on="1"/>
        <pt x="486" y="939" on="1"/>
      </contour>
      <contour>
        <pt x="606" y="105" on="0"/>
        <pt x="434" y="-14" on="0"/>
        <pt x="291" y="-14" on="1"/>
        <pt x="208" y="-14" on="0"/>
        <pt x="82" y="23" on="0"/>
        <pt x="54" y="51" on="1"/>
        <pt x="45" y="73" on="0"/>
        <pt x="45" y="124" on="0"/>
        <pt x="49" y="148" on="1"/>
        <pt x="60" y="207" on="0"/>
        <pt x="86" y="240" on="1"/>
        <pt x="95" y="240" on="1"/>
        <pt x="94" y="234" on="0"/>
        <pt x="94" y="227" on="1"/>
        <pt x="94" y="153" on="0"/>
        <pt x="211" y="36" on="0"/>
        <pt x="312" y="36" on="1"/>
        <pt x="380" y="36" on="0"/>
        <pt x="453" y="93" on="0"/>
        <pt x="453" y="176" on="0"/>
        <pt x="408" y="209" on="1"/>
        <pt x="385" y="227" on="0"/>
        <pt x="347" y="244" on="1"/>
        <pt x="184" y="320" on="1"/>
        <pt x="115" y="351" on="0"/>
        <pt x="84" y="407" on="1"/>
        <pt x="59" y="451" on="0"/>
        <pt x="59" y="504" on="1"/>
        <pt x="59" y="612" on="0"/>
        <pt x="132" y="668" on="1"/>
        <pt x="193" y="714" on="0"/>
        <pt x="294" y="714" on="1"/>
        <pt x="360" y="714" on="0"/>
        <pt x="463" y="704" on="1"/>
        <pt x="541" y="704" on="1"/>
        <pt x="519" y="541" on="1"/>
        <pt x="509" y="541" on="1"/>
        <pt x="509" y="596" on="0"/>
        <pt x="423" y="664" on="0"/>
        <pt x="290" y="664" on="0"/>
        <pt x="253" y="641" on="1"/>
        <pt x="214" y="615" on="0"/>
        <pt x="214" y="573" on="1"/>
        <pt x="214" y="545" on="0"/>
        <pt x="257" y="507" on="0"/>
        <pt x="303" y="487" on="1"/>
        <pt x="490" y="400" on="1"/>
        <pt x="606" y="347" on="0"/>
      </contour>
    </TTGlyph>
    <TTGlyph name="Scedilla" xMin="44" yMin="-218" xMax="606" yMax="714">
      <contour>
        <pt x="606" y="114" on="0"/>
        <pt x="457" y="-5" on="0"/>
        <pt x="333" y="-13" on="1"/>
        <pt x="291" y="-61" on="1"/>
        <pt x="305" y="-56" on="0"/>
        <pt x="325" y="-56" on="0"/>
        <pt x="346" y="-56" on="0"/>
        <pt x="386" y="-67" on="0"/>
        <pt x="410" y="-97" on="0"/>
        <pt x="410" y="-109" on="1"/>
        <pt x="410" y="-155" on="0"/>
        <pt x="378" y="-182" on="1"/>
        <pt x="337" y="-217" on="0"/>
        <pt x="278" y="-217" on="1"/>
        <pt x="251" y="-217" on="0"/>
        <pt x="221" y="-209" on="1"/>
        <pt x="222" y="-199" on="1"/>
        <pt x="259" y="-199" on="0"/>
        <pt x="326" y="-158" on="0"/>
        <pt x="326" y="-118" on="1"/>
        <pt x="326" y="-102" on="0"/>
        <pt x="310" y="-90" on="1"/>
        <pt x="293" y="-79" on="0"/>
        <pt x="248" y="-79" on="0"/>
        <pt x="229" y="-85" on="1"/>
        <pt x="223" y="-75" on="1"/>
        <pt x="271" y="-14" on="1"/>
        <pt x="195" y="-12" on="0"/>
        <pt x="80" y="24" on="0"/>
        <pt x="54" y="51" on="1"/>
        <pt x="45" y="73" on="0"/>
        <pt x="45" y="124" on="0"/>
        <pt x="49" y="148" on="1"/>
        <pt x="60" y="207" on="0"/>
        <pt x="86" y="240" on="1"/>
        <pt x="95" y="240" on="1"/>
        <pt x="94" y="234" on="0"/>
        <pt x="94" y="227" on="1"/>
        <pt x="94" y="153" on="0"/>
        <pt x="211" y="36" on="0"/>
        <pt x="312" y="36" on="1"/>
        <pt x="380" y="36" on="0"/>
        <pt x="453" y="93" on="0"/>
        <pt x="453" y="166" on="0"/>
        <pt x="403" y="218" on="0"/>
        <pt x="347" y="244" on="1"/>
        <pt x="184" y="320" on="1"/>
        <pt x="115" y="351" on="0"/>
        <pt x="84" y="407" on="1"/>
        <pt x="59" y="451" on="0"/>
        <pt x="59" y="504" on="1"/>
        <pt x="59" y="612" on="0"/>
        <pt x="132" y="668" on="1"/>
        <pt x="193" y="714" on="0"/>
        <pt x="294" y="714" on="1"/>
        <pt x="360" y="714" on="0"/>
        <pt x="463" y="704" on="1"/>
        <pt x="541" y="704" on="1"/>
        <pt x="519" y="541" on="1"/>
        <pt x="509" y="541" on="1"/>
        <pt x="509" y="596" on="0"/>
        <pt x="423" y="664" on="0"/>
        <pt x="290" y="664" on="0"/>
        <pt x="217" y="618" on="0"/>
        <pt x="214" y="580" on="1"/>
        <pt x="210" y="533" on="0"/>
        <pt x="274" y="500" on="1"/>
        <pt x="285" y="494" on="0"/>
        <pt x="303" y="487" on="1"/>
        <pt x="490" y="400" on="1"/>
        <pt x="606" y="347" on="0"/>
      </contour>
    </TTGlyph>
    <TTGlyph name="Scommaaccent" xMin="34" yMin="-275" xMax="596" yMax="715">
      <contour>
        <pt x="596" y="105" on="0"/>
        <pt x="424" y="-14" on="0"/>
        <pt x="281" y="-14" on="1"/>
        <pt x="198" y="-14" on="0"/>
        <pt x="72" y="23" on="0"/>
        <pt x="44" y="51" on="1"/>
        <pt x="35" y="73" on="0"/>
        <pt x="35" y="124" on="0"/>
        <pt x="39" y="148" on="1"/>
        <pt x="50" y="207" on="0"/>
        <pt x="76" y="240" on="1"/>
        <pt x="85" y="240" on="1"/>
        <pt x="84" y="234" on="0"/>
        <pt x="84" y="227" on="1"/>
        <pt x="84" y="153" on="0"/>
        <pt x="201" y="36" on="0"/>
        <pt x="302" y="36" on="1"/>
        <pt x="370" y="36" on="0"/>
        <pt x="443" y="93" on="0"/>
        <pt x="443" y="166" on="0"/>
        <pt x="393" y="218" on="0"/>
        <pt x="337" y="244" on="1"/>
        <pt x="174" y="320" on="1"/>
        <pt x="105" y="351" on="0"/>
        <pt x="74" y="407" on="1"/>
        <pt x="49" y="451" on="0"/>
        <pt x="49" y="504" on="1"/>
        <pt x="49" y="612" on="0"/>
        <pt x="122" y="668" on="1"/>
        <pt x="183" y="714" on="0"/>
        <pt x="284" y="714" on="1"/>
        <pt x="350" y="714" on="0"/>
        <pt x="453" y="704" on="1"/>
        <pt x="531" y="704" on="1"/>
        <pt x="509" y="541" on="1"/>
        <pt x="499" y="541" on="1"/>
        <pt x="499" y="604" on="0"/>
        <pt x="446" y="637" on="1"/>
        <pt x="404" y="664" on="0"/>
        <pt x="300" y="664" on="0"/>
        <pt x="270" y="653" on="1"/>
        <pt x="204" y="630" on="0"/>
        <pt x="204" y="573" on="1"/>
        <pt x="204" y="545" on="0"/>
        <pt x="247" y="507" on="0"/>
        <pt x="293" y="487" on="1"/>
        <pt x="480" y="400" on="1"/>
        <pt x="596" y="347" on="0"/>
      </contour>
      <contour>
        <pt x="242" y="-264" on="1"/>
        <pt x="274" y="-250" on="0"/>
        <pt x="274" y="-195" on="0"/>
        <pt x="238" y="-154" on="0"/>
        <pt x="238" y="-128" on="1"/>
        <pt x="238" y="-93" on="0"/>
        <pt x="262" y="-76" on="1"/>
        <pt x="278" y="-64" on="0"/>
        <pt x="292" y="-64" on="1"/>
        <pt x="344" y="-64" on="0"/>
        <pt x="363" y="-105" on="1"/>
        <pt x="374" y="-128" on="0"/>
        <pt x="374" y="-160" on="0"/>
        <pt x="367" y="-201" on="0"/>
        <pt x="334" y="-252" on="0"/>
        <pt x="285" y="-275" on="0"/>
        <pt x="255" y="-275" on="0"/>
        <pt x="245" y="-273" on="1"/>
      </contour>
    </TTGlyph>
    <TTGlyph name="T" xMin="9" yMin="-1" xMax="689" yMax="720">
      <contour>
        <pt x="452" y="651" on="1"/>
        <pt x="452" y="72" on="1"/>
        <pt x="453" y="46" on="0"/>
        <pt x="490" y="10" on="0"/>
        <pt x="516" y="10" on="1"/>
        <pt x="529" y="10" on="1"/>
        <pt x="529" y="0" on="1"/>
        <pt x="170" y="0" on="1"/>
        <pt x="170" y="10" on="1"/>
        <pt x="183" y="10" on="1"/>
        <pt x="209" y="10" on="0"/>
        <pt x="246" y="46" on="0"/>
        <pt x="247" y="71" on="1"/>
        <pt x="247" y="651" on="1"/>
        <pt x="148" y="651" on="1"/>
        <pt x="88" y="650" on="0"/>
        <pt x="20" y="581" on="0"/>
        <pt x="20" y="521" on="1"/>
        <pt x="20" y="514" on="1"/>
        <pt x="10" y="513" on="1"/>
        <pt x="10" y="719" on="1"/>
        <pt x="24" y="713" on="0"/>
        <pt x="97" y="701" on="0"/>
        <pt x="128" y="701" on="1"/>
        <pt x="571" y="701" on="1"/>
        <pt x="602" y="701" on="0"/>
        <pt x="674" y="713" on="0"/>
        <pt x="689" y="719" on="1"/>
        <pt x="689" y="513" on="1"/>
        <pt x="679" y="514" on="1"/>
        <pt x="679" y="521" on="1"/>
        <pt x="679" y="602" on="0"/>
        <pt x="619" y="635" on="1"/>
        <pt x="590" y="650" on="0"/>
        <pt x="550" y="651" on="1"/>
      </contour>
    </TTGlyph>
    <TTGlyph name="Tbar" xMin="9" yMin="-1" xMax="689" yMax="720">
      <contour>
        <pt x="452" y="651" on="1"/>
        <pt x="452" y="403" on="1"/>
        <pt x="602" y="403" on="1"/>
        <pt x="602" y="353" on="1"/>
        <pt x="452" y="353" on="1"/>
        <pt x="452" y="72" on="1"/>
        <pt x="453" y="46" on="0"/>
        <pt x="490" y="10" on="0"/>
        <pt x="516" y="10" on="1"/>
        <pt x="529" y="10" on="1"/>
        <pt x="529" y="0" on="1"/>
        <pt x="170" y="0" on="1"/>
        <pt x="170" y="10" on="1"/>
        <pt x="183" y="10" on="1"/>
        <pt x="209" y="10" on="0"/>
        <pt x="246" y="46" on="0"/>
        <pt x="247" y="71" on="1"/>
        <pt x="247" y="353" on="1"/>
        <pt x="96" y="353" on="1"/>
        <pt x="96" y="403" on="1"/>
        <pt x="247" y="403" on="1"/>
        <pt x="247" y="651" on="1"/>
        <pt x="148" y="651" on="1"/>
        <pt x="88" y="650" on="0"/>
        <pt x="20" y="581" on="0"/>
        <pt x="20" y="521" on="1"/>
        <pt x="20" y="514" on="1"/>
        <pt x="10" y="513" on="1"/>
        <pt x="10" y="719" on="1"/>
        <pt x="24" y="713" on="0"/>
        <pt x="97" y="701" on="0"/>
        <pt x="128" y="701" on="1"/>
        <pt x="571" y="701" on="1"/>
        <pt x="602" y="701" on="0"/>
        <pt x="674" y="713" on="0"/>
        <pt x="689" y="719" on="1"/>
        <pt x="689" y="513" on="1"/>
        <pt x="679" y="514" on="1"/>
        <pt x="679" y="521" on="1"/>
        <pt x="679" y="581" on="0"/>
        <pt x="611" y="650" on="0"/>
        <pt x="550" y="651" on="1"/>
      </contour>
    </TTGlyph>
    <TTGlyph name="Tcaron" xMin="9" yMin="-1" xMax="689" yMax="948">
      <contour>
        <pt x="357" y="764" on="1"/>
        <pt x="345" y="764" on="1"/>
        <pt x="176" y="939" on="1"/>
        <pt x="183" y="947" on="1"/>
        <pt x="351" y="883" on="1"/>
        <pt x="509" y="947" on="1"/>
        <pt x="516" y="939" on="1"/>
      </contour>
      <contour>
        <pt x="452" y="651" on="1"/>
        <pt x="452" y="72" on="1"/>
        <pt x="453" y="46" on="0"/>
        <pt x="490" y="10" on="0"/>
        <pt x="516" y="10" on="1"/>
        <pt x="529" y="10" on="1"/>
        <pt x="529" y="0" on="1"/>
        <pt x="170" y="0" on="1"/>
        <pt x="170" y="10" on="1"/>
        <pt x="183" y="10" on="1"/>
        <pt x="209" y="10" on="0"/>
        <pt x="246" y="46" on="0"/>
        <pt x="247" y="71" on="1"/>
        <pt x="247" y="651" on="1"/>
        <pt x="148" y="651" on="1"/>
        <pt x="88" y="650" on="0"/>
        <pt x="20" y="581" on="0"/>
        <pt x="20" y="521" on="1"/>
        <pt x="20" y="514" on="1"/>
        <pt x="10" y="513" on="1"/>
        <pt x="10" y="719" on="1"/>
        <pt x="24" y="713" on="0"/>
        <pt x="97" y="701" on="0"/>
        <pt x="128" y="701" on="1"/>
        <pt x="571" y="701" on="1"/>
        <pt x="614" y="702" on="0"/>
        <pt x="679" y="715" on="0"/>
        <pt x="689" y="719" on="1"/>
        <pt x="689" y="513" on="1"/>
        <pt x="679" y="514" on="1"/>
        <pt x="679" y="521" on="1"/>
        <pt x="679" y="602" on="0"/>
        <pt x="619" y="635" on="1"/>
        <pt x="590" y="650" on="0"/>
        <pt x="550" y="651" on="1"/>
      </contour>
    </TTGlyph>
    <TTGlyph name="Tcedilla" xMin="9" yMin="-205" xMax="689" yMax="720">
      <contour>
        <pt x="452" y="651" on="1"/>
        <pt x="452" y="72" on="1"/>
        <pt x="453" y="46" on="0"/>
        <pt x="490" y="10" on="0"/>
        <pt x="516" y="10" on="1"/>
        <pt x="529" y="10" on="1"/>
        <pt x="529" y="0" on="1"/>
        <pt x="369" y="0" on="1"/>
        <pt x="327" y="-48" on="1"/>
        <pt x="341" y="-43" on="0"/>
        <pt x="361" y="-43" on="0"/>
        <pt x="382" y="-43" on="0"/>
        <pt x="422" y="-54" on="0"/>
        <pt x="446" y="-84" on="0"/>
        <pt x="446" y="-96" on="1"/>
        <pt x="446" y="-142" on="0"/>
        <pt x="415" y="-169" on="1"/>
        <pt x="373" y="-205" on="0"/>
        <pt x="315" y="-205" on="1"/>
        <pt x="287" y="-205" on="0"/>
        <pt x="258" y="-196" on="1"/>
        <pt x="258" y="-186" on="1"/>
        <pt x="295" y="-186" on="0"/>
        <pt x="362" y="-145" on="0"/>
        <pt x="362" y="-105" on="1"/>
        <pt x="362" y="-89" on="0"/>
        <pt x="346" y="-77" on="1"/>
        <pt x="316" y="-56" on="0"/>
        <pt x="265" y="-72" on="1"/>
        <pt x="260" y="-62" on="1"/>
        <pt x="308" y="0" on="1"/>
        <pt x="170" y="0" on="1"/>
        <pt x="170" y="10" on="1"/>
        <pt x="183" y="10" on="1"/>
        <pt x="209" y="10" on="0"/>
        <pt x="246" y="46" on="0"/>
        <pt x="247" y="71" on="1"/>
        <pt x="247" y="651" on="1"/>
        <pt x="148" y="651" on="1"/>
        <pt x="88" y="650" on="0"/>
        <pt x="20" y="581" on="0"/>
        <pt x="20" y="521" on="1"/>
        <pt x="20" y="514" on="1"/>
        <pt x="10" y="513" on="1"/>
        <pt x="10" y="719" on="1"/>
        <pt x="24" y="713" on="0"/>
        <pt x="97" y="701" on="0"/>
        <pt x="128" y="701" on="1"/>
        <pt x="571" y="701" on="1"/>
        <pt x="602" y="701" on="0"/>
        <pt x="674" y="713" on="0"/>
        <pt x="689" y="719" on="1"/>
        <pt x="689" y="513" on="1"/>
        <pt x="679" y="514" on="1"/>
        <pt x="679" y="521" on="1"/>
        <pt x="679" y="581" on="0"/>
        <pt x="611" y="650" on="0"/>
        <pt x="550" y="651" on="1"/>
      </contour>
    </TTGlyph>
    <TTGlyph name="Thorn" xMin="42" yMin="-1" xMax="693" yMax="701">
      <contour>
        <pt x="693" y="353" on="1"/>
        <pt x="693" y="307" on="0"/>
        <pt x="656" y="221" on="0"/>
        <pt x="621" y="192" on="1"/>
        <pt x="558" y="141" on="0"/>
        <pt x="487" y="141" on="1"/>
        <pt x="415" y="141" on="0"/>
        <pt x="351" y="187" on="1"/>
        <pt x="351" y="197" on="1"/>
        <pt x="387" y="203" on="0"/>
        <pt x="424" y="230" on="0"/>
        <pt x="435" y="241" on="1"/>
        <pt x="460" y="268" on="0"/>
        <pt x="477" y="340" on="0"/>
        <pt x="477" y="355" on="1"/>
        <pt x="477" y="434" on="0"/>
        <pt x="409" y="508" on="0"/>
        <pt x="352" y="508" on="1"/>
        <pt x="325" y="508" on="1"/>
        <pt x="325" y="73" on="1"/>
        <pt x="325" y="36" on="0"/>
        <pt x="357" y="18" on="1"/>
        <pt x="371" y="10" on="0"/>
        <pt x="389" y="10" on="1"/>
        <pt x="401" y="10" on="1"/>
        <pt x="401" y="0" on="1"/>
        <pt x="43" y="0" on="1"/>
        <pt x="43" y="10" on="1"/>
        <pt x="55" y="10" on="1"/>
        <pt x="82" y="10" on="0"/>
        <pt x="119" y="47" on="0"/>
        <pt x="120" y="73" on="1"/>
        <pt x="120" y="628" on="1"/>
        <pt x="119" y="654" on="0"/>
        <pt x="82" y="690" on="0"/>
        <pt x="56" y="690" on="1"/>
        <pt x="43" y="690" on="1"/>
        <pt x="43" y="700" on="1"/>
        <pt x="401" y="700" on="1"/>
        <pt x="401" y="690" on="1"/>
        <pt x="389" y="690" on="1"/>
        <pt x="363" y="690" on="0"/>
        <pt x="325" y="654" on="0"/>
        <pt x="325" y="628" on="1"/>
        <pt x="325" y="558" on="1"/>
        <pt x="416" y="558" on="1"/>
        <pt x="582" y="558" on="0"/>
        <pt x="650" y="479" on="1"/>
        <pt x="693" y="429" on="0"/>
      </contour>
    </TTGlyph>
    <TTGlyph name="U" xMin="30" yMin="-15" xMax="826" yMax="701">
      <contour>
        <pt x="825" y="690" on="1"/>
        <pt x="809" y="690" on="1"/>
        <pt x="788" y="690" on="0"/>
        <pt x="757" y="663" on="0"/>
        <pt x="756" y="643" on="1"/>
        <pt x="756" y="257" on="1"/>
        <pt x="756" y="130" on="0"/>
        <pt x="599" y="-14" on="0"/>
        <pt x="456" y="-14" on="1"/>
        <pt x="277" y="-14" on="0"/>
        <pt x="99" y="126" on="0"/>
        <pt x="99" y="256" on="1"/>
        <pt x="99" y="640" on="1"/>
        <pt x="99" y="662" on="0"/>
        <pt x="68" y="690" on="0"/>
        <pt x="46" y="690" on="1"/>
        <pt x="30" y="690" on="1"/>
        <pt x="30" y="700" on="1"/>
        <pt x="373" y="700" on="1"/>
        <pt x="373" y="690" on="1"/>
        <pt x="357" y="690" on="1"/>
        <pt x="335" y="690" on="0"/>
        <pt x="305" y="663" on="0"/>
        <pt x="304" y="642" on="1"/>
        <pt x="304" y="260" on="1"/>
        <pt x="304" y="155" on="0"/>
        <pt x="400" y="37" on="0"/>
        <pt x="572" y="37" on="0"/>
        <pt x="669" y="148" on="0"/>
        <pt x="669" y="247" on="1"/>
        <pt x="669" y="642" on="1"/>
        <pt x="668" y="663" on="0"/>
        <pt x="638" y="690" on="0"/>
        <pt x="616" y="690" on="1"/>
        <pt x="600" y="690" on="1"/>
        <pt x="600" y="700" on="1"/>
        <pt x="825" y="700" on="1"/>
      </contour>
    </TTGlyph>
    <TTGlyph name="Uacute" xMin="30" yMin="-15" xMax="826" yMax="954">
      <contour>
        <pt x="466" y="761" on="1"/>
        <pt x="459" y="768" on="1"/>
        <pt x="478" y="812" on="0"/>
        <pt x="571" y="917" on="0"/>
        <pt x="614" y="954" on="1"/>
        <pt x="678" y="927" on="0"/>
        <pt x="699" y="854" on="1"/>
        <pt x="649" y="821" on="0"/>
        <pt x="519" y="767" on="0"/>
      </contour>
      <contour>
        <pt x="600" y="700" on="1"/>
        <pt x="825" y="700" on="1"/>
        <pt x="825" y="690" on="1"/>
        <pt x="809" y="690" on="1"/>
        <pt x="788" y="690" on="0"/>
        <pt x="757" y="663" on="0"/>
        <pt x="756" y="643" on="1"/>
        <pt x="756" y="257" on="1"/>
        <pt x="756" y="130" on="0"/>
        <pt x="599" y="-14" on="0"/>
        <pt x="456" y="-14" on="1"/>
        <pt x="277" y="-14" on="0"/>
        <pt x="99" y="126" on="0"/>
        <pt x="99" y="256" on="1"/>
        <pt x="99" y="640" on="1"/>
        <pt x="99" y="670" on="0"/>
        <pt x="73" y="684" on="1"/>
        <pt x="61" y="690" on="0"/>
        <pt x="46" y="690" on="1"/>
        <pt x="30" y="690" on="1"/>
        <pt x="30" y="700" on="1"/>
        <pt x="373" y="700" on="1"/>
        <pt x="373" y="690" on="1"/>
        <pt x="357" y="690" on="1"/>
        <pt x="335" y="690" on="0"/>
        <pt x="305" y="663" on="0"/>
        <pt x="304" y="642" on="1"/>
        <pt x="304" y="260" on="1"/>
        <pt x="304" y="155" on="0"/>
        <pt x="400" y="37" on="0"/>
        <pt x="572" y="37" on="0"/>
        <pt x="669" y="148" on="0"/>
        <pt x="669" y="247" on="1"/>
        <pt x="669" y="642" on="1"/>
        <pt x="668" y="675" on="0"/>
        <pt x="637" y="686" on="1"/>
        <pt x="627" y="690" on="0"/>
        <pt x="616" y="690" on="1"/>
        <pt x="600" y="690" on="1"/>
      </contour>
    </TTGlyph>
    <TTGlyph name="Ucircumflex" xMin="30" yMin="-15" xMax="826" yMax="932">
      <contour>
        <pt x="476" y="932" on="1"/>
        <pt x="488" y="932" on="1"/>
        <pt x="666" y="756" on="1"/>
        <pt x="659" y="748" on="1"/>
        <pt x="481" y="813" on="1"/>
        <pt x="314" y="748" on="1"/>
        <pt x="307" y="756" on="1"/>
      </contour>
      <contour>
        <pt x="600" y="700" on="1"/>
        <pt x="825" y="700" on="1"/>
        <pt x="825" y="690" on="1"/>
        <pt x="809" y="690" on="1"/>
        <pt x="788" y="690" on="0"/>
        <pt x="757" y="663" on="0"/>
        <pt x="756" y="643" on="1"/>
        <pt x="756" y="257" on="1"/>
        <pt x="756" y="130" on="0"/>
        <pt x="599" y="-14" on="0"/>
        <pt x="456" y="-14" on="1"/>
        <pt x="277" y="-14" on="0"/>
        <pt x="99" y="126" on="0"/>
        <pt x="99" y="256" on="1"/>
        <pt x="99" y="640" on="1"/>
        <pt x="99" y="670" on="0"/>
        <pt x="73" y="684" on="1"/>
        <pt x="61" y="690" on="0"/>
        <pt x="46" y="690" on="1"/>
        <pt x="30" y="690" on="1"/>
        <pt x="30" y="700" on="1"/>
        <pt x="373" y="700" on="1"/>
        <pt x="373" y="690" on="1"/>
        <pt x="357" y="690" on="1"/>
        <pt x="335" y="690" on="0"/>
        <pt x="305" y="663" on="0"/>
        <pt x="304" y="642" on="1"/>
        <pt x="304" y="260" on="1"/>
        <pt x="304" y="155" on="0"/>
        <pt x="400" y="37" on="0"/>
        <pt x="572" y="37" on="0"/>
        <pt x="669" y="148" on="0"/>
        <pt x="669" y="247" on="1"/>
        <pt x="669" y="642" on="1"/>
        <pt x="668" y="663" on="0"/>
        <pt x="638" y="690" on="0"/>
        <pt x="616" y="690" on="1"/>
        <pt x="600" y="690" on="1"/>
      </contour>
    </TTGlyph>
    <TTGlyph name="Udieresis" xMin="29" yMin="-15" xMax="826" yMax="903">
      <contour>
        <pt x="379" y="755" on="0"/>
        <pt x="318" y="755" on="0"/>
        <pt x="274" y="799" on="0"/>
        <pt x="274" y="860" on="0"/>
        <pt x="318" y="903" on="0"/>
        <pt x="379" y="903" on="0"/>
        <pt x="422" y="860" on="0"/>
        <pt x="422" y="799" on="0"/>
      </contour>
      <contour>
        <pt x="641" y="755" on="0"/>
        <pt x="580" y="755" on="0"/>
        <pt x="537" y="799" on="0"/>
        <pt x="537" y="860" on="0"/>
        <pt x="580" y="903" on="0"/>
        <pt x="641" y="903" on="0"/>
        <pt x="684" y="860" on="0"/>
        <pt x="684" y="799" on="0"/>
      </contour>
      <contour>
        <pt x="600" y="700" on="1"/>
        <pt x="825" y="700" on="1"/>
        <pt x="825" y="690" on="1"/>
        <pt x="809" y="690" on="1"/>
        <pt x="788" y="690" on="0"/>
        <pt x="757" y="663" on="0"/>
        <pt x="756" y="643" on="1"/>
        <pt x="756" y="257" on="1"/>
        <pt x="756" y="130" on="0"/>
        <pt x="599" y="-14" on="0"/>
        <pt x="456" y="-14" on="1"/>
        <pt x="277" y="-14" on="0"/>
        <pt x="99" y="126" on="0"/>
        <pt x="99" y="256" on="1"/>
        <pt x="99" y="640" on="1"/>
        <pt x="99" y="670" on="0"/>
        <pt x="73" y="684" on="1"/>
        <pt x="61" y="690" on="0"/>
        <pt x="46" y="690" on="1"/>
        <pt x="30" y="690" on="1"/>
        <pt x="30" y="700" on="1"/>
        <pt x="373" y="700" on="1"/>
        <pt x="373" y="690" on="1"/>
        <pt x="357" y="690" on="1"/>
        <pt x="335" y="690" on="0"/>
        <pt x="305" y="663" on="0"/>
        <pt x="304" y="642" on="1"/>
        <pt x="304" y="260" on="1"/>
        <pt x="304" y="155" on="0"/>
        <pt x="400" y="37" on="0"/>
        <pt x="572" y="37" on="0"/>
        <pt x="669" y="148" on="0"/>
        <pt x="669" y="247" on="1"/>
        <pt x="669" y="642" on="1"/>
        <pt x="668" y="663" on="0"/>
        <pt x="638" y="690" on="0"/>
        <pt x="616" y="690" on="1"/>
        <pt x="600" y="690" on="1"/>
      </contour>
    </TTGlyph>
    <TTGlyph name="Ugrave" xMin="30" yMin="-15" xMax="826" yMax="957">
      <contour>
        <pt x="510" y="771" on="1"/>
        <pt x="503" y="764" on="1"/>
        <pt x="450" y="770" on="0"/>
        <pt x="320" y="824" on="0"/>
        <pt x="270" y="857" on="1"/>
        <pt x="291" y="930" on="0"/>
        <pt x="355" y="957" on="1"/>
        <pt x="398" y="920" on="0"/>
        <pt x="491" y="815" on="0"/>
      </contour>
      <contour>
        <pt x="600" y="700" on="1"/>
        <pt x="825" y="700" on="1"/>
        <pt x="825" y="690" on="1"/>
        <pt x="809" y="690" on="1"/>
        <pt x="788" y="690" on="0"/>
        <pt x="757" y="663" on="0"/>
        <pt x="756" y="643" on="1"/>
        <pt x="756" y="257" on="1"/>
        <pt x="756" y="130" on="0"/>
        <pt x="599" y="-14" on="0"/>
        <pt x="456" y="-14" on="1"/>
        <pt x="277" y="-14" on="0"/>
        <pt x="99" y="126" on="0"/>
        <pt x="99" y="256" on="1"/>
        <pt x="99" y="640" on="1"/>
        <pt x="99" y="670" on="0"/>
        <pt x="73" y="684" on="1"/>
        <pt x="61" y="690" on="0"/>
        <pt x="46" y="690" on="1"/>
        <pt x="30" y="690" on="1"/>
        <pt x="30" y="700" on="1"/>
        <pt x="373" y="700" on="1"/>
        <pt x="373" y="690" on="1"/>
        <pt x="357" y="690" on="1"/>
        <pt x="335" y="690" on="0"/>
        <pt x="305" y="663" on="0"/>
        <pt x="304" y="642" on="1"/>
        <pt x="304" y="260" on="1"/>
        <pt x="304" y="155" on="0"/>
        <pt x="400" y="37" on="0"/>
        <pt x="572" y="37" on="0"/>
        <pt x="669" y="148" on="0"/>
        <pt x="669" y="247" on="1"/>
        <pt x="669" y="642" on="1"/>
        <pt x="668" y="663" on="0"/>
        <pt x="638" y="690" on="0"/>
        <pt x="616" y="690" on="1"/>
        <pt x="600" y="690" on="1"/>
      </contour>
    </TTGlyph>
    <TTGlyph name="Uhungarumlaut" xMin="30" yMin="-15" xMax="826" yMax="957">
      <contour>
        <pt x="359" y="764" on="1"/>
        <pt x="352" y="771" on="1"/>
        <pt x="370" y="815" on="0"/>
        <pt x="463" y="920" on="0"/>
        <pt x="506" y="957" on="1"/>
        <pt x="570" y="930" on="0"/>
        <pt x="591" y="857" on="1"/>
        <pt x="522" y="811" on="0"/>
        <pt x="394" y="768" on="0"/>
      </contour>
      <contour>
        <pt x="569" y="764" on="1"/>
        <pt x="562" y="771" on="1"/>
        <pt x="580" y="815" on="0"/>
        <pt x="673" y="920" on="0"/>
        <pt x="716" y="957" on="1"/>
        <pt x="780" y="930" on="0"/>
        <pt x="801" y="857" on="1"/>
        <pt x="751" y="824" on="0"/>
        <pt x="621" y="770" on="0"/>
      </contour>
      <contour>
        <pt x="600" y="700" on="1"/>
        <pt x="825" y="700" on="1"/>
        <pt x="825" y="690" on="1"/>
        <pt x="809" y="690" on="1"/>
        <pt x="788" y="690" on="0"/>
        <pt x="757" y="663" on="0"/>
        <pt x="756" y="643" on="1"/>
        <pt x="756" y="257" on="1"/>
        <pt x="756" y="130" on="0"/>
        <pt x="599" y="-14" on="0"/>
        <pt x="456" y="-14" on="1"/>
        <pt x="277" y="-14" on="0"/>
        <pt x="99" y="126" on="0"/>
        <pt x="99" y="256" on="1"/>
        <pt x="99" y="640" on="1"/>
        <pt x="99" y="662" on="0"/>
        <pt x="68" y="690" on="0"/>
        <pt x="46" y="690" on="1"/>
        <pt x="30" y="690" on="1"/>
        <pt x="30" y="700" on="1"/>
        <pt x="373" y="700" on="1"/>
        <pt x="373" y="690" on="1"/>
        <pt x="357" y="690" on="1"/>
        <pt x="335" y="690" on="0"/>
        <pt x="305" y="663" on="0"/>
        <pt x="304" y="642" on="1"/>
        <pt x="304" y="260" on="1"/>
        <pt x="304" y="155" on="0"/>
        <pt x="400" y="37" on="0"/>
        <pt x="572" y="37" on="0"/>
        <pt x="669" y="148" on="0"/>
        <pt x="669" y="247" on="1"/>
        <pt x="669" y="642" on="1"/>
        <pt x="668" y="663" on="0"/>
        <pt x="638" y="690" on="0"/>
        <pt x="616" y="690" on="1"/>
        <pt x="600" y="690" on="1"/>
      </contour>
    </TTGlyph>
    <TTGlyph name="Umacron" xMin="29" yMin="-15" xMax="826" yMax="881">
      <contour>
        <pt x="341" y="795" on="1"/>
        <pt x="341" y="880" on="1"/>
        <pt x="631" y="880" on="1"/>
        <pt x="631" y="795" on="1"/>
      </contour>
      <contour>
        <pt x="600" y="700" on="1"/>
        <pt x="825" y="700" on="1"/>
        <pt x="825" y="690" on="1"/>
        <pt x="809" y="690" on="1"/>
        <pt x="788" y="690" on="0"/>
        <pt x="757" y="663" on="0"/>
        <pt x="756" y="643" on="1"/>
        <pt x="756" y="257" on="1"/>
        <pt x="756" y="130" on="0"/>
        <pt x="599" y="-14" on="0"/>
        <pt x="456" y="-14" on="1"/>
        <pt x="277" y="-14" on="0"/>
        <pt x="99" y="126" on="0"/>
        <pt x="99" y="256" on="1"/>
        <pt x="99" y="640" on="1"/>
        <pt x="99" y="662" on="0"/>
        <pt x="68" y="690" on="0"/>
        <pt x="46" y="690" on="1"/>
        <pt x="30" y="690" on="1"/>
        <pt x="30" y="700" on="1"/>
        <pt x="373" y="700" on="1"/>
        <pt x="373" y="690" on="1"/>
        <pt x="357" y="690" on="1"/>
        <pt x="335" y="690" on="0"/>
        <pt x="305" y="663" on="0"/>
        <pt x="304" y="642" on="1"/>
        <pt x="304" y="260" on="1"/>
        <pt x="304" y="155" on="0"/>
        <pt x="400" y="37" on="0"/>
        <pt x="572" y="37" on="0"/>
        <pt x="669" y="148" on="0"/>
        <pt x="669" y="247" on="1"/>
        <pt x="669" y="642" on="1"/>
        <pt x="668" y="663" on="0"/>
        <pt x="638" y="690" on="0"/>
        <pt x="616" y="690" on="1"/>
        <pt x="600" y="690" on="1"/>
      </contour>
    </TTGlyph>
    <TTGlyph name="Uogonek" xMin="30" yMin="-227" xMax="826" yMax="700">
      <contour>
        <pt x="825" y="700" on="1"/>
        <pt x="825" y="690" on="1"/>
        <pt x="809" y="690" on="1"/>
        <pt x="788" y="690" on="0"/>
        <pt x="757" y="663" on="0"/>
        <pt x="756" y="643" on="1"/>
        <pt x="756" y="257" on="1"/>
        <pt x="756" y="95" on="0"/>
        <pt x="633" y="26" on="1"/>
        <pt x="573" y="-8" on="0"/>
        <pt x="487" y="-13" on="1"/>
        <pt x="424" y="-28" on="0"/>
        <pt x="424" y="-82" on="1"/>
        <pt x="424" y="-135" on="0"/>
        <pt x="464" y="-150" on="1"/>
        <pt x="475" y="-154" on="0"/>
        <pt x="510" y="-154" on="0"/>
        <pt x="537" y="-133" on="1"/>
        <pt x="543" y="-139" on="1"/>
        <pt x="538" y="-203" on="0"/>
        <pt x="481" y="-221" on="1"/>
        <pt x="464" y="-226" on="0"/>
        <pt x="413" y="-226" on="0"/>
        <pt x="381" y="-204" on="1"/>
        <pt x="337" y="-173" on="0"/>
        <pt x="337" y="-121" on="1"/>
        <pt x="337" y="-72" on="0"/>
        <pt x="390" y="-21" on="0"/>
        <pt x="424" y="-13" on="1"/>
        <pt x="261" y="-7" on="0"/>
        <pt x="99" y="132" on="0"/>
        <pt x="99" y="256" on="1"/>
        <pt x="99" y="640" on="1"/>
        <pt x="99" y="662" on="0"/>
        <pt x="68" y="690" on="0"/>
        <pt x="46" y="690" on="1"/>
        <pt x="30" y="690" on="1"/>
        <pt x="30" y="700" on="1"/>
        <pt x="373" y="700" on="1"/>
        <pt x="373" y="690" on="1"/>
        <pt x="357" y="690" on="1"/>
        <pt x="335" y="690" on="0"/>
        <pt x="305" y="663" on="0"/>
        <pt x="304" y="642" on="1"/>
        <pt x="304" y="260" on="1"/>
        <pt x="304" y="155" on="0"/>
        <pt x="400" y="37" on="0"/>
        <pt x="572" y="37" on="0"/>
        <pt x="669" y="148" on="0"/>
        <pt x="669" y="247" on="1"/>
        <pt x="669" y="642" on="1"/>
        <pt x="668" y="663" on="0"/>
        <pt x="638" y="690" on="0"/>
        <pt x="616" y="690" on="1"/>
        <pt x="600" y="690" on="1"/>
        <pt x="600" y="700" on="1"/>
      </contour>
    </TTGlyph>
    <TTGlyph name="Uring" xMin="29" yMin="-15" xMax="826" yMax="942">
      <contour>
        <pt x="364" y="891" on="0"/>
        <pt x="432" y="942" on="0"/>
        <pt x="533" y="942" on="0"/>
        <pt x="600" y="892" on="0"/>
        <pt x="600" y="815" on="0"/>
        <pt x="532" y="763" on="0"/>
        <pt x="431" y="763" on="0"/>
        <pt x="364" y="814" on="0"/>
      </contour>
      <contour>
        <pt x="534" y="878" on="0"/>
        <pt x="504" y="912" on="0"/>
        <pt x="460" y="912" on="0"/>
        <pt x="431" y="878" on="0"/>
        <pt x="431" y="827" on="0"/>
        <pt x="460" y="794" on="0"/>
        <pt x="504" y="794" on="0"/>
        <pt x="534" y="827" on="0"/>
      </contour>
      <contour>
        <pt x="600" y="700" on="1"/>
        <pt x="825" y="700" on="1"/>
        <pt x="825" y="690" on="1"/>
        <pt x="809" y="690" on="1"/>
        <pt x="788" y="690" on="0"/>
        <pt x="757" y="663" on="0"/>
        <pt x="756" y="643" on="1"/>
        <pt x="756" y="257" on="1"/>
        <pt x="756" y="130" on="0"/>
        <pt x="599" y="-14" on="0"/>
        <pt x="456" y="-14" on="1"/>
        <pt x="277" y="-14" on="0"/>
        <pt x="99" y="126" on="0"/>
        <pt x="99" y="256" on="1"/>
        <pt x="99" y="640" on="1"/>
        <pt x="99" y="662" on="0"/>
        <pt x="68" y="690" on="0"/>
        <pt x="46" y="690" on="1"/>
        <pt x="30" y="690" on="1"/>
        <pt x="30" y="700" on="1"/>
        <pt x="373" y="700" on="1"/>
        <pt x="373" y="690" on="1"/>
        <pt x="357" y="690" on="1"/>
        <pt x="335" y="690" on="0"/>
        <pt x="305" y="663" on="0"/>
        <pt x="304" y="642" on="1"/>
        <pt x="304" y="260" on="1"/>
        <pt x="304" y="155" on="0"/>
        <pt x="400" y="37" on="0"/>
        <pt x="572" y="37" on="0"/>
        <pt x="669" y="148" on="0"/>
        <pt x="669" y="247" on="1"/>
        <pt x="669" y="642" on="1"/>
        <pt x="668" y="663" on="0"/>
        <pt x="638" y="690" on="0"/>
        <pt x="616" y="690" on="1"/>
        <pt x="600" y="690" on="1"/>
      </contour>
    </TTGlyph>
    <TTGlyph name="V" xMin="-40" yMin="-25" xMax="761" yMax="700">
      <contour>
        <pt x="760" y="690" on="1"/>
        <pt x="751" y="690" on="1"/>
        <pt x="699" y="690" on="0"/>
        <pt x="668" y="636" on="1"/>
        <pt x="435" y="125" on="1"/>
        <pt x="382" y="13" on="0"/>
        <pt x="378" y="-24" on="1"/>
        <pt x="369" y="-24" on="1"/>
        <pt x="52" y="635" on="1"/>
        <pt x="21" y="690" on="0"/>
        <pt x="-32" y="690" on="1"/>
        <pt x="-40" y="690" on="1"/>
        <pt x="-40" y="700" on="1"/>
        <pt x="339" y="700" on="1"/>
        <pt x="339" y="690" on="1"/>
        <pt x="330" y="690" on="1"/>
        <pt x="309" y="690" on="0"/>
        <pt x="288" y="663" on="0"/>
        <pt x="288" y="639" on="0"/>
        <pt x="292" y="627" on="1"/>
        <pt x="435" y="284" on="1"/>
        <pt x="584" y="627" on="1"/>
        <pt x="590" y="640" on="0"/>
        <pt x="590" y="663" on="0"/>
        <pt x="568" y="690" on="0"/>
        <pt x="546" y="690" on="1"/>
        <pt x="537" y="690" on="1"/>
        <pt x="537" y="700" on="1"/>
        <pt x="760" y="700" on="1"/>
      </contour>
    </TTGlyph>
    <TTGlyph name="W" xMin="-51" yMin="-23" xMax="1005" yMax="716">
      <contour>
        <pt x="1004" y="690" on="1"/>
        <pt x="996" y="690" on="1"/>
        <pt x="971" y="690" on="0"/>
        <pt x="921" y="661" on="0"/>
        <pt x="910" y="633" on="1"/>
        <pt x="740" y="89" on="1"/>
        <pt x="725" y="42" on="0"/>
        <pt x="725" y="-5" on="1"/>
        <pt x="725" y="-14" on="0"/>
        <pt x="726" y="-22" on="1"/>
        <pt x="716" y="-22" on="1"/>
        <pt x="485" y="413" on="1"/>
        <pt x="327" y="89" on="1"/>
        <pt x="301" y="33" on="0"/>
        <pt x="300" y="-22" on="1"/>
        <pt x="291" y="-22" on="1"/>
        <pt x="44" y="633" on="1"/>
        <pt x="30" y="662" on="0"/>
        <pt x="-17" y="690" on="0"/>
        <pt x="-42" y="690" on="1"/>
        <pt x="-50" y="690" on="1"/>
        <pt x="-50" y="700" on="1"/>
        <pt x="309" y="700" on="1"/>
        <pt x="309" y="690" on="1"/>
        <pt x="300" y="690" on="1"/>
        <pt x="270" y="690" on="0"/>
        <pt x="260" y="662" on="1"/>
        <pt x="259" y="656" on="0"/>
        <pt x="259" y="640" on="0"/>
        <pt x="263" y="628" on="1"/>
        <pt x="372" y="356" on="1"/>
        <pt x="545" y="716" on="1"/>
        <pt x="554" y="715" on="1"/>
        <pt x="753" y="347" on="1"/>
        <pt x="833" y="628" on="1"/>
        <pt x="835" y="639" on="0"/>
        <pt x="835" y="656" on="0"/>
        <pt x="829" y="676" on="0"/>
        <pt x="809" y="690" on="0"/>
        <pt x="795" y="690" on="1"/>
        <pt x="786" y="690" on="1"/>
        <pt x="786" y="700" on="1"/>
        <pt x="1004" y="700" on="1"/>
      </contour>
    </TTGlyph>
    <TTGlyph name="Wacute" xMin="-50" yMin="-23" xMax="1005" yMax="954">
      <contour>
        <pt x="526" y="761" on="1"/>
        <pt x="519" y="768" on="1"/>
        <pt x="538" y="812" on="0"/>
        <pt x="631" y="917" on="0"/>
        <pt x="674" y="954" on="1"/>
        <pt x="738" y="927" on="0"/>
        <pt x="759" y="854" on="1"/>
        <pt x="709" y="821" on="0"/>
        <pt x="579" y="767" on="0"/>
      </contour>
      <contour>
        <pt x="1004" y="690" on="1"/>
        <pt x="996" y="690" on="1"/>
        <pt x="971" y="690" on="0"/>
        <pt x="921" y="661" on="0"/>
        <pt x="910" y="633" on="1"/>
        <pt x="740" y="89" on="1"/>
        <pt x="725" y="42" on="0"/>
        <pt x="725" y="-5" on="1"/>
        <pt x="725" y="-14" on="0"/>
        <pt x="726" y="-22" on="1"/>
        <pt x="716" y="-22" on="1"/>
        <pt x="485" y="413" on="1"/>
        <pt x="327" y="89" on="1"/>
        <pt x="301" y="33" on="0"/>
        <pt x="300" y="-22" on="1"/>
        <pt x="291" y="-22" on="1"/>
        <pt x="44" y="633" on="1"/>
        <pt x="30" y="662" on="0"/>
        <pt x="-17" y="690" on="0"/>
        <pt x="-42" y="690" on="1"/>
        <pt x="-50" y="690" on="1"/>
        <pt x="-50" y="700" on="1"/>
        <pt x="309" y="700" on="1"/>
        <pt x="309" y="690" on="1"/>
        <pt x="300" y="690" on="1"/>
        <pt x="270" y="690" on="0"/>
        <pt x="260" y="662" on="1"/>
        <pt x="259" y="656" on="0"/>
        <pt x="259" y="640" on="0"/>
        <pt x="263" y="628" on="1"/>
        <pt x="372" y="356" on="1"/>
        <pt x="545" y="716" on="1"/>
        <pt x="554" y="715" on="1"/>
        <pt x="753" y="347" on="1"/>
        <pt x="833" y="628" on="1"/>
        <pt x="836" y="639" on="0"/>
        <pt x="836" y="663" on="0"/>
        <pt x="817" y="690" on="0"/>
        <pt x="795" y="690" on="1"/>
        <pt x="786" y="690" on="1"/>
        <pt x="786" y="700" on="1"/>
        <pt x="1004" y="700" on="1"/>
      </contour>
    </TTGlyph>
    <TTGlyph name="Wcircumflex" xMin="-51" yMin="-23" xMax="1005" yMax="932">
      <contour>
        <pt x="536" y="932" on="1"/>
        <pt x="548" y="932" on="1"/>
        <pt x="726" y="756" on="1"/>
        <pt x="719" y="748" on="1"/>
        <pt x="541" y="813" on="1"/>
        <pt x="374" y="748" on="1"/>
        <pt x="367" y="756" on="1"/>
      </contour>
      <contour>
        <pt x="1004" y="690" on="1"/>
        <pt x="996" y="690" on="1"/>
        <pt x="971" y="690" on="0"/>
        <pt x="921" y="661" on="0"/>
        <pt x="910" y="633" on="1"/>
        <pt x="740" y="89" on="1"/>
        <pt x="725" y="42" on="0"/>
        <pt x="725" y="-5" on="1"/>
        <pt x="725" y="-14" on="0"/>
        <pt x="726" y="-22" on="1"/>
        <pt x="716" y="-22" on="1"/>
        <pt x="485" y="413" on="1"/>
        <pt x="327" y="89" on="1"/>
        <pt x="301" y="33" on="0"/>
        <pt x="300" y="-22" on="1"/>
        <pt x="291" y="-22" on="1"/>
        <pt x="44" y="633" on="1"/>
        <pt x="30" y="662" on="0"/>
        <pt x="-17" y="690" on="0"/>
        <pt x="-42" y="690" on="1"/>
        <pt x="-50" y="690" on="1"/>
        <pt x="-50" y="700" on="1"/>
        <pt x="309" y="700" on="1"/>
        <pt x="309" y="690" on="1"/>
        <pt x="300" y="690" on="1"/>
        <pt x="270" y="690" on="0"/>
        <pt x="260" y="662" on="1"/>
        <pt x="259" y="656" on="0"/>
        <pt x="259" y="640" on="0"/>
        <pt x="263" y="628" on="1"/>
        <pt x="372" y="356" on="1"/>
        <pt x="545" y="716" on="1"/>
        <pt x="554" y="715" on="1"/>
        <pt x="753" y="347" on="1"/>
        <pt x="833" y="628" on="1"/>
        <pt x="835" y="639" on="0"/>
        <pt x="835" y="656" on="0"/>
        <pt x="829" y="676" on="0"/>
        <pt x="809" y="690" on="0"/>
        <pt x="795" y="690" on="1"/>
        <pt x="786" y="690" on="1"/>
        <pt x="786" y="700" on="1"/>
        <pt x="1004" y="700" on="1"/>
      </contour>
    </TTGlyph>
    <TTGlyph name="Wdieresis" xMin="-50" yMin="-23" xMax="1005" yMax="903">
      <contour>
        <pt x="439" y="755" on="0"/>
        <pt x="378" y="755" on="0"/>
        <pt x="335" y="799" on="0"/>
        <pt x="335" y="860" on="0"/>
        <pt x="378" y="903" on="0"/>
        <pt x="439" y="903" on="0"/>
        <pt x="482" y="860" on="0"/>
        <pt x="482" y="799" on="0"/>
      </contour>
      <contour>
        <pt x="702" y="755" on="0"/>
        <pt x="641" y="755" on="0"/>
        <pt x="597" y="799" on="0"/>
        <pt x="597" y="860" on="0"/>
        <pt x="641" y="903" on="0"/>
        <pt x="702" y="903" on="0"/>
        <pt x="745" y="860" on="0"/>
        <pt x="745" y="799" on="0"/>
      </contour>
      <contour>
        <pt x="1004" y="690" on="1"/>
        <pt x="996" y="690" on="1"/>
        <pt x="971" y="690" on="0"/>
        <pt x="921" y="661" on="0"/>
        <pt x="910" y="633" on="1"/>
        <pt x="740" y="89" on="1"/>
        <pt x="725" y="42" on="0"/>
        <pt x="725" y="-5" on="1"/>
        <pt x="725" y="-14" on="0"/>
        <pt x="726" y="-22" on="1"/>
        <pt x="716" y="-22" on="1"/>
        <pt x="485" y="413" on="1"/>
        <pt x="327" y="89" on="1"/>
        <pt x="301" y="33" on="0"/>
        <pt x="300" y="-22" on="1"/>
        <pt x="291" y="-22" on="1"/>
        <pt x="44" y="633" on="1"/>
        <pt x="30" y="662" on="0"/>
        <pt x="-17" y="690" on="0"/>
        <pt x="-42" y="690" on="1"/>
        <pt x="-50" y="690" on="1"/>
        <pt x="-50" y="700" on="1"/>
        <pt x="309" y="700" on="1"/>
        <pt x="309" y="690" on="1"/>
        <pt x="300" y="690" on="1"/>
        <pt x="270" y="690" on="0"/>
        <pt x="260" y="662" on="1"/>
        <pt x="259" y="656" on="0"/>
        <pt x="259" y="640" on="0"/>
        <pt x="263" y="628" on="1"/>
        <pt x="372" y="356" on="1"/>
        <pt x="545" y="716" on="1"/>
        <pt x="554" y="715" on="1"/>
        <pt x="753" y="347" on="1"/>
        <pt x="833" y="628" on="1"/>
        <pt x="836" y="639" on="0"/>
        <pt x="836" y="663" on="0"/>
        <pt x="817" y="690" on="0"/>
        <pt x="795" y="690" on="1"/>
        <pt x="786" y="690" on="1"/>
        <pt x="786" y="700" on="1"/>
        <pt x="1004" y="700" on="1"/>
      </contour>
    </TTGlyph>
    <TTGlyph name="Wgrave" xMin="-50" yMin="-23" xMax="1005" yMax="957">
      <contour>
        <pt x="570" y="771" on="1"/>
        <pt x="563" y="764" on="1"/>
        <pt x="510" y="770" on="0"/>
        <pt x="380" y="824" on="0"/>
        <pt x="330" y="857" on="1"/>
        <pt x="351" y="930" on="0"/>
        <pt x="415" y="957" on="1"/>
        <pt x="459" y="920" on="0"/>
        <pt x="551" y="815" on="0"/>
      </contour>
      <contour>
        <pt x="1004" y="690" on="1"/>
        <pt x="996" y="690" on="1"/>
        <pt x="971" y="690" on="0"/>
        <pt x="921" y="661" on="0"/>
        <pt x="910" y="633" on="1"/>
        <pt x="740" y="89" on="1"/>
        <pt x="725" y="42" on="0"/>
        <pt x="725" y="-5" on="1"/>
        <pt x="725" y="-14" on="0"/>
        <pt x="726" y="-22" on="1"/>
        <pt x="716" y="-22" on="1"/>
        <pt x="485" y="413" on="1"/>
        <pt x="327" y="89" on="1"/>
        <pt x="301" y="33" on="0"/>
        <pt x="300" y="-22" on="1"/>
        <pt x="291" y="-22" on="1"/>
        <pt x="44" y="633" on="1"/>
        <pt x="30" y="662" on="0"/>
        <pt x="-17" y="690" on="0"/>
        <pt x="-42" y="690" on="1"/>
        <pt x="-50" y="690" on="1"/>
        <pt x="-50" y="700" on="1"/>
        <pt x="309" y="700" on="1"/>
        <pt x="309" y="690" on="1"/>
        <pt x="300" y="690" on="1"/>
        <pt x="279" y="690" on="0"/>
        <pt x="258" y="663" on="0"/>
        <pt x="258" y="640" on="0"/>
        <pt x="263" y="628" on="1"/>
        <pt x="372" y="356" on="1"/>
        <pt x="545" y="716" on="1"/>
        <pt x="554" y="715" on="1"/>
        <pt x="753" y="347" on="1"/>
        <pt x="833" y="628" on="1"/>
        <pt x="835" y="639" on="0"/>
        <pt x="835" y="656" on="0"/>
        <pt x="830" y="676" on="0"/>
        <pt x="809" y="690" on="0"/>
        <pt x="795" y="690" on="1"/>
        <pt x="786" y="690" on="1"/>
        <pt x="786" y="700" on="1"/>
        <pt x="1004" y="700" on="1"/>
      </contour>
    </TTGlyph>
    <TTGlyph name="X" xMin="-33" yMin="0" xMax="811" yMax="701">
      <contour>
        <pt x="419" y="10" on="1"/>
        <pt x="440" y="10" on="0"/>
        <pt x="453" y="31" on="1"/>
        <pt x="459" y="41" on="0"/>
        <pt x="459" y="61" on="0"/>
        <pt x="453" y="72" on="1"/>
        <pt x="321" y="273" on="1"/>
        <pt x="179" y="72" on="1"/>
        <pt x="162" y="42" on="0"/>
        <pt x="189" y="20" on="1"/>
        <pt x="201" y="10" on="0"/>
        <pt x="214" y="10" on="1"/>
        <pt x="227" y="10" on="1"/>
        <pt x="227" y="0" on="1"/>
        <pt x="-33" y="0" on="1"/>
        <pt x="-33" y="10" on="1"/>
        <pt x="-19" y="10" on="1"/>
        <pt x="35" y="10" on="0"/>
        <pt x="80" y="67" on="1"/>
        <pt x="279" y="339" on="1"/>
        <pt x="88" y="632" on="1"/>
        <pt x="71" y="656" on="0"/>
        <pt x="17" y="690" on="0"/>
        <pt x="-13" y="690" on="1"/>
        <pt x="-27" y="690" on="1"/>
        <pt x="-27" y="700" on="1"/>
        <pt x="375" y="700" on="1"/>
        <pt x="375" y="690" on="1"/>
        <pt x="363" y="690" on="1"/>
        <pt x="341" y="690" on="0"/>
        <pt x="329" y="669" on="1"/>
        <pt x="322" y="659" on="0"/>
        <pt x="322" y="638" on="0"/>
        <pt x="328" y="628" on="1"/>
        <pt x="445" y="451" on="1"/>
        <pt x="558" y="628" on="1"/>
        <pt x="564" y="638" on="0"/>
        <pt x="564" y="659" on="0"/>
        <pt x="558" y="669" on="1"/>
        <pt x="545" y="690" on="0"/>
        <pt x="523" y="690" on="1"/>
        <pt x="511" y="690" on="1"/>
        <pt x="510" y="700" on="1"/>
        <pt x="769" y="700" on="1"/>
        <pt x="769" y="690" on="1"/>
        <pt x="755" y="690" on="1"/>
        <pt x="726" y="690" on="0"/>
        <pt x="674" y="657" on="0"/>
        <pt x="656" y="632" on="1"/>
        <pt x="489" y="383" on="1"/>
        <pt x="695" y="68" on="1"/>
        <pt x="711" y="44" on="0"/>
        <pt x="766" y="10" on="0"/>
        <pt x="796" y="10" on="1"/>
        <pt x="810" y="10" on="1"/>
        <pt x="810" y="0" on="1"/>
        <pt x="406" y="0" on="1"/>
        <pt x="406" y="10" on="1"/>
      </contour>
    </TTGlyph>
    <TTGlyph name="Y" xMin="-46" yMin="-1" xMax="775" yMax="701">
      <contour>
        <pt x="775" y="690" on="1"/>
        <pt x="761" y="690" on="1"/>
        <pt x="731" y="690" on="0"/>
        <pt x="676" y="656" on="0"/>
        <pt x="660" y="631" on="1"/>
        <pt x="464" y="322" on="1"/>
        <pt x="464" y="73" on="1"/>
        <pt x="464" y="47" on="0"/>
        <pt x="501" y="10" on="0"/>
        <pt x="528" y="10" on="1"/>
        <pt x="540" y="10" on="1"/>
        <pt x="540" y="0" on="1"/>
        <pt x="182" y="0" on="1"/>
        <pt x="182" y="10" on="1"/>
        <pt x="195" y="10" on="1"/>
        <pt x="221" y="10" on="0"/>
        <pt x="258" y="46" on="0"/>
        <pt x="259" y="72" on="1"/>
        <pt x="259" y="322" on="1"/>
        <pt x="68" y="633" on="1"/>
        <pt x="43" y="672" on="0"/>
        <pt x="-1" y="685" on="1"/>
        <pt x="-16" y="690" on="0"/>
        <pt x="-31" y="690" on="1"/>
        <pt x="-45" y="690" on="1"/>
        <pt x="-45" y="700" on="1"/>
        <pt x="341" y="700" on="1"/>
        <pt x="341" y="690" on="1"/>
        <pt x="329" y="690" on="1"/>
        <pt x="307" y="690" on="0"/>
        <pt x="295" y="670" on="1"/>
        <pt x="288" y="659" on="0"/>
        <pt x="288" y="638" on="0"/>
        <pt x="294" y="628" on="1"/>
        <pt x="431" y="381" on="1"/>
        <pt x="573" y="628" on="1"/>
        <pt x="579" y="638" on="0"/>
        <pt x="579" y="658" on="0"/>
        <pt x="572" y="669" on="1"/>
        <pt x="559" y="690" on="0"/>
        <pt x="538" y="690" on="1"/>
        <pt x="526" y="690" on="1"/>
        <pt x="526" y="700" on="1"/>
        <pt x="775" y="700" on="1"/>
      </contour>
    </TTGlyph>
    <TTGlyph name="Yacute" xMin="-45" yMin="-1" xMax="775" yMax="954">
      <contour>
        <pt x="418" y="761" on="1"/>
        <pt x="411" y="768" on="1"/>
        <pt x="430" y="812" on="0"/>
        <pt x="523" y="917" on="0"/>
        <pt x="566" y="954" on="1"/>
        <pt x="630" y="927" on="0"/>
        <pt x="651" y="854" on="1"/>
        <pt x="601" y="821" on="0"/>
        <pt x="471" y="767" on="0"/>
      </contour>
      <contour>
        <pt x="775" y="690" on="1"/>
        <pt x="761" y="690" on="1"/>
        <pt x="731" y="690" on="0"/>
        <pt x="676" y="656" on="0"/>
        <pt x="660" y="631" on="1"/>
        <pt x="464" y="322" on="1"/>
        <pt x="464" y="73" on="1"/>
        <pt x="464" y="47" on="0"/>
        <pt x="501" y="10" on="0"/>
        <pt x="528" y="10" on="1"/>
        <pt x="540" y="10" on="1"/>
        <pt x="540" y="0" on="1"/>
        <pt x="182" y="0" on="1"/>
        <pt x="182" y="10" on="1"/>
        <pt x="195" y="10" on="1"/>
        <pt x="221" y="10" on="0"/>
        <pt x="258" y="46" on="0"/>
        <pt x="259" y="72" on="1"/>
        <pt x="259" y="322" on="1"/>
        <pt x="68" y="633" on="1"/>
        <pt x="53" y="657" on="0"/>
        <pt x="-2" y="690" on="0"/>
        <pt x="-31" y="690" on="1"/>
        <pt x="-45" y="690" on="1"/>
        <pt x="-45" y="700" on="1"/>
        <pt x="341" y="700" on="1"/>
        <pt x="341" y="690" on="1"/>
        <pt x="329" y="690" on="1"/>
        <pt x="307" y="690" on="0"/>
        <pt x="295" y="670" on="1"/>
        <pt x="289" y="659" on="0"/>
        <pt x="289" y="638" on="0"/>
        <pt x="294" y="628" on="1"/>
        <pt x="431" y="381" on="1"/>
        <pt x="573" y="628" on="1"/>
        <pt x="579" y="638" on="0"/>
        <pt x="579" y="659" on="0"/>
        <pt x="572" y="669" on="1"/>
        <pt x="559" y="690" on="0"/>
        <pt x="538" y="690" on="1"/>
        <pt x="526" y="690" on="1"/>
        <pt x="526" y="700" on="1"/>
        <pt x="775" y="700" on="1"/>
      </contour>
    </TTGlyph>
    <TTGlyph name="Ycircumflex" xMin="-46" yMin="-1" xMax="775" yMax="932">
      <contour>
        <pt x="428" y="932" on="1"/>
        <pt x="440" y="932" on="1"/>
        <pt x="618" y="756" on="1"/>
        <pt x="611" y="748" on="1"/>
        <pt x="433" y="813" on="1"/>
        <pt x="266" y="748" on="1"/>
        <pt x="259" y="756" on="1"/>
      </contour>
      <contour>
        <pt x="775" y="690" on="1"/>
        <pt x="761" y="690" on="1"/>
        <pt x="731" y="690" on="0"/>
        <pt x="676" y="656" on="0"/>
        <pt x="660" y="631" on="1"/>
        <pt x="464" y="322" on="1"/>
        <pt x="464" y="73" on="1"/>
        <pt x="464" y="47" on="0"/>
        <pt x="501" y="10" on="0"/>
        <pt x="528" y="10" on="1"/>
        <pt x="540" y="10" on="1"/>
        <pt x="540" y="0" on="1"/>
        <pt x="182" y="0" on="1"/>
        <pt x="182" y="10" on="1"/>
        <pt x="195" y="10" on="1"/>
        <pt x="221" y="10" on="0"/>
        <pt x="258" y="46" on="0"/>
        <pt x="259" y="72" on="1"/>
        <pt x="259" y="322" on="1"/>
        <pt x="68" y="633" on="1"/>
        <pt x="43" y="672" on="0"/>
        <pt x="-1" y="685" on="1"/>
        <pt x="-16" y="690" on="0"/>
        <pt x="-31" y="690" on="1"/>
        <pt x="-45" y="690" on="1"/>
        <pt x="-45" y="700" on="1"/>
        <pt x="341" y="700" on="1"/>
        <pt x="341" y="690" on="1"/>
        <pt x="329" y="690" on="1"/>
        <pt x="307" y="690" on="0"/>
        <pt x="295" y="670" on="1"/>
        <pt x="288" y="659" on="0"/>
        <pt x="288" y="638" on="0"/>
        <pt x="294" y="628" on="1"/>
        <pt x="431" y="381" on="1"/>
        <pt x="573" y="628" on="1"/>
        <pt x="579" y="638" on="0"/>
        <pt x="579" y="658" on="0"/>
        <pt x="572" y="669" on="1"/>
        <pt x="559" y="690" on="0"/>
        <pt x="538" y="690" on="1"/>
        <pt x="526" y="690" on="1"/>
        <pt x="526" y="700" on="1"/>
        <pt x="775" y="700" on="1"/>
      </contour>
    </TTGlyph>
</ttFont>
